{
.appVersion = "1075";
DisplayStrings = (
"?\U00BF",
"!",
"ciao?\012\U00A1come stai!",
"/f_f  "
);
classes = (
{
automatic = 1;
code = "A Aacute Acircumflex Adieresis Agrave Aring Atilde AE B C Ccedilla D E Eacute Ecircumflex Edieresis Egrave F G H I Iacute Icircumflex Idieresis Igrave J K L M N Ntilde O Oacute Ocircumflex Odieresis Ograve Oslash Otilde OE P Q R S T U Uacute Ucircumflex Udieresis Ugrave V W X Y Ycircumflex Ydieresis Z H.001";
name = Uppercase;
},
{
code = "";
name = xxxx;
}
);
date = "2018-02-26 16:00:28 +0000";
familyName = Ortica;
featurePrefixes = (
{
automatic = 1;
code = "";
name = xxxx;
}
);
fontMaster = (
{
ascender = 770;
capHeight = 700;
descender = -230;
id = "4EF47A43-EA9F-416F-884D-AC541148DC09";
userData = {
GSCornerRadius = 15;
};
weight = Bold;
weightValue = 600;
xHeight = 500;
},
{
ascender = 780;
capHeight = 700;
descender = -220;
id = "1F3E6E29-04CF-4B88-BFE7-02FED6A7184C";
weight = Light;
xHeight = 500;
}
);
glyphs = (
{
glyphname = A;
lastChange = "2019-01-09 10:34:21 +0000";
layers = (
{
anchors = (
{
name = bottom;
position = "{351, 0}";
},
{
name = ogonek;
position = "{647, 10}";
},
{
name = top;
position = "{351, 700}";
}
);
background = {
paths = (
{
closed = 1;
nodes = (
"746 15 LINE",
"639 48 LINE",
"380 729 LINE",
"331 729 LINE",
"174 307 LINE",
"73 48 LINE",
"-29 15 LINE",
"-29 0 LINE",
"246 0 LINE",
"246 15 LINE",
"126 48 LINE",
"198 281 LINE",
"473 270 LINE",
"546 48 LINE",
"438 15 LINE",
"438 0 LINE",
"746 0 LINE"
);
},
{
closed = 1;
nodes = (
"206 306 LINE",
"342 634 LINE",
"458 315 LINE"
);
}
);
};
layerId = "4EF47A43-EA9F-416F-884D-AC541148DC09";
paths = (
{
closed = 1;
nodes = (
"687 3 LINE",
"395 700 LINE",
"287 700 LINE",
"18 0 LINE",
"87 0 LINE",
"294 549 LINE",
"523 3 LINE"
);
},
{
closed = 1;
nodes = (
"163 255 LINE",
"433 255 LINE",
"433 310 LINE",
"163 310 LINE"
);
},
{
closed = 1;
nodes = (
"458 25 LINE",
"414 22 LINE",
"414 0 LINE",
"734 0 LINE",
"734 22 LINE",
"690 25 LINE",
"659 70 LINE",
"495 70 LINE"
);
},
{
closed = 1;
nodes = (
"14 25 LINE",
"-30 22 LINE",
"-30 0 LINE",
"190 0 LINE",
"190 22 LINE",
"146 25 LINE",
"146 158 LINE",
"45 70 LINE"
);
}
);
width = 704;
},
{
anchors = (
{
name = bottom;
position = "{352, 0}";
},
{
name = ogonek;
position = "{630, 10}";
},
{
name = top;
position = "{352, 700}";
}
);
background = {
paths = (
{
closed = 1;
nodes = (
"379 244 LINE",
"439 99 LINE SMOOTH",
"446 83 OFFCURVE",
"452 69 OFFCURVE",
"452 58 CURVE SMOOTH",
"452 21 OFFCURVE",
"417 22 OFFCURVE",
"370 22 CURVE",
"370 0 LINE",
"631 0 LINE",
"631 22 LINE",
"578 22 OFFCURVE",
"557 62 OFFCURVE",
"542 97 CURVE SMOOTH",
"299 672 LINE",
"280 672 LINE",
"42 101 LINE SMOOTH",
"16 40 OFFCURVE",
"-25 23 OFFCURVE",
"-53 22 CURVE",
"-53 0 LINE",
"144 0 LINE",
"144 22 LINE",
"95 22 OFFCURVE",
"72 52 OFFCURVE",
"72 84 CURVE SMOOTH",
"72 98 OFFCURVE",
"82 131 OFFCURVE",
"88 147 CURVE SMOOTH",
"127 244 LINE"
);
},
{
closed = 1;
nodes = (
"137 266 LINE",
"253 548 LINE",
"370 266 LINE"
);
}
);
};
layerId = "1F3E6E29-04CF-4B88-BFE7-02FED6A7184C";
paths = (
{
closed = 1;
nodes = (
"665 0 LINE",
"366 700 LINE",
"300 700 LINE",
"43 0 LINE",
"86 0 LINE",
"313 633 LINE",
"585 0 LINE"
);
},
{
closed = 1;
nodes = (
"182 280 LINE",
"475 280 LINE",
"475 310 LINE",
"182 310 LINE"
);
},
{
closed = 1;
nodes = (
"565 45 OFFCURVE",
"537 16 OFFCURVE",
"462 14 CURVE",
"462 0 LINE",
"733 0 LINE",
"733 14 LINE",
"668 16 OFFCURVE",
"639 58 OFFCURVE",
"618 109 CURVE",
"538 109 LINE"
);
},
{
closed = 1;
nodes = (
"83 109 LINE",
"62 58 OFFCURVE",
"35 16 OFFCURVE",
"-30 14 CURVE",
"-30 0 LINE",
"203 0 LINE",
"203 14 LINE",
"128 16 OFFCURVE",
"101 45 OFFCURVE",
"125 109 CURVE"
);
},
{
closed = 1;
nodes = (
"389 645 LINE",
"371 688 OFFCURVE",
"411 683 OFFCURVE",
"486 686 CURVE",
"486 700 LINE",
"182 700 LINE",
"182 686 LINE",
"257 683 OFFCURVE",
"295 688 OFFCURVE",
"280 645 CURVE"
);
}
);
width = 703;
}
);
unicode = 0041;
},
{
glyphname = AE;
lastChange = "2018-12-05 21:12:27 +0000";
layers = (
{
layerId = "4EF47A43-EA9F-416F-884D-AC541148DC09";
paths = (
{
closed = 1;
nodes = (
"544 3 LINE",
"544 700 LINE",
"436 700 LINE",
"-13 0 LINE",
"41 0 LINE",
"436 627 LINE",
"436 3 LINE"
);
},
{
closed = 1;
nodes = (
"239 323 LINE",
"509 324 LINE",
"509 360 LINE",
"239 358 LINE"
);
},
{
closed = 1;
nodes = (
"1 25 LINE",
"-43 22 LINE",
"-43 0 LINE",
"170 0 LINE",
"170 22 LINE",
"126 25 LINE",
"126 158 LINE",
"34 70 LINE"
);
},
{
closed = 1;
nodes = (
"436 0 LINE",
"586 0 LINE",
"586 700 LINE",
"436 700 LINE"
);
},
{
closed = 1;
nodes = (
"586 665 LINE",
"914 645 LINE",
"914 700 LINE",
"586 700 LINE"
);
},
{
closed = 1;
nodes = (
"586 0 LINE",
"914 0 LINE",
"915 55 LINE",
"586 35 LINE"
);
},
{
closed = 1;
nodes = (
"586 324 LINE",
"865 314 LINE",
"865 370 LINE",
"586 360 LINE"
);
},
{
closed = 1;
nodes = (
"820 284 LINE",
"843 240 LINE",
"865 240 LINE",
"865 436 LINE",
"843 436 LINE",
"820 392 LINE",
"775 361 LINE",
"775 317 LINE"
);
},
{
closed = 1;
nodes = (
"946 169 LINE",
"924 169 LINE",
"863 73 LINE",
"739 0 LINE",
"915 0 LINE"
);
},
{
closed = 1;
nodes = (
"403 26 LINE",
"375 23 LINE",
"375 0 LINE",
"495 0 LINE",
"495 56 LINE",
"436 56 LINE"
);
},
{
closed = 1;
nodes = (
"475 644 LINE",
"476 700 LINE",
"375 700 LINE",
"375 677 LINE",
"403 674 LINE",
"436 644 LINE"
);
},
{
closed = 1;
nodes = (
"734 700 LINE",
"854 628 LINE",
"914 531 LINE",
"936 531 LINE",
"915 700 LINE"
);
}
);
width = 968;
},
{
layerId = "1F3E6E29-04CF-4B88-BFE7-02FED6A7184C";
paths = (
{
closed = 1;
nodes = (
"545 0 LINE",
"545 700 LINE",
"457 700 LINE",
"39 0 LINE",
"85 0 LINE",
"466 640 LINE",
"464 0 LINE"
);
},
{
closed = 1;
nodes = (
"251 280 LINE",
"544 280 LINE",
"544 310 LINE",
"251 310 LINE"
);
},
{
closed = 1;
nodes = (
"33 25 LINE",
"-20 15 LINE",
"-20 0 LINE",
"191 0 LINE",
"191 15 LINE",
"138 25 LINE",
"138 153 LINE",
"66 45 LINE"
);
},
{
closed = 1;
nodes = (
"467 0 LINE",
"543 0 LINE",
"543 700 LINE",
"467 700 LINE"
);
},
{
closed = 1;
nodes = (
"542 675 LINE",
"921 655 LINE",
"921 700 LINE",
"542 700 LINE"
);
},
{
closed = 1;
nodes = (
"541 0 LINE",
"926 0 LINE",
"927 45 LINE",
"541 25 LINE"
);
},
{
closed = 1;
nodes = (
"542 349 LINE",
"855 339 LINE",
"855 384 LINE",
"542 374 LINE"
);
},
{
closed = 1;
nodes = (
"946 159 LINE",
"931 159 LINE",
"870 58 LINE",
"736 0 LINE",
"926 0 LINE"
);
},
{
closed = 1;
nodes = (
"731 700 LINE",
"865 642 LINE",
"916 541 LINE",
"931 541 LINE",
"921 700 LINE"
);
},
{
closed = 1;
nodes = (
"433 25 LINE",
"380 15 LINE",
"380 0 LINE",
"511 0 LINE",
"511 45 LINE",
"466 45 LINE"
);
},
{
closed = 1;
nodes = (
"825 306 LINE",
"840 253 LINE",
"855 253 LINE",
"855 463 LINE",
"840 463 LINE",
"825 410 LINE",
"800 379 LINE",
"800 339 LINE"
);
},
{
closed = 1;
nodes = (
"511 655 LINE",
"511 700 LINE",
"380 700 LINE",
"380 685 LINE",
"433 675 LINE",
"466 655 LINE"
);
}
);
width = 978;
}
);
leftMetricsKey = "=A";
rightMetricsKey = "=E";
unicode = 00C6;
},
{
glyphname = B;
lastChange = "2019-01-09 10:39:43 +0000";
layers = (
{
background = {
paths = (
{
closed = 1;
nodes = (
"614 266 OFFCURVE",
"599 302 OFFCURVE",
"568 329 CURVE SMOOTH",
"534 359 OFFCURVE",
"484 374 OFFCURVE",
"418 374 CURVE SMOOTH",
"397 374 LINE",
"448 389 OFFCURVE",
"488 415 OFFCURVE",
"519 453 CURVE SMOOTH",
"548 489 OFFCURVE",
"562 528 OFFCURVE",
"562 569 CURVE SMOOTH",
"562 612 OFFCURVE",
"546 647 OFFCURVE",
"515 674 CURVE SMOOTH",
"480 705 OFFCURVE",
"430 720 OFFCURVE",
"366 720 CURVE SMOOTH",
"57 720 LINE",
"57 705 LINE",
"159 672 LINE",
"159 48 LINE",
"57 15 LINE",
"57 0 LINE",
"361 0 LINE SMOOTH",
"434 0 OFFCURVE",
"495 24 OFFCURVE",
"545 72 CURVE SMOOTH",
"591 116 OFFCURVE",
"614 166 OFFCURVE",
"614 221 CURVE SMOOTH"
);
},
{
closed = 1;
nodes = (
"490 491 OFFCURVE",
"473 456 OFFCURVE",
"439 427 CURVE SMOOTH",
"402 395 OFFCURVE",
"352 379 OFFCURVE",
"289 379 CURVE SMOOTH",
"241 379 LINE",
"241 695 LINE",
"331 682 LINE SMOOTH",
"382 675 OFFCURVE",
"421 656 OFFCURVE",
"450 627 CURVE SMOOTH",
"477 600 OFFCURVE",
"490 569 OFFCURVE",
"490 533 CURVE SMOOTH"
);
},
{
closed = 1;
nodes = (
"525 143 OFFCURVE",
"507 102 OFFCURVE",
"471 70 CURVE SMOOTH",
"437 41 OFFCURVE",
"396 26 OFFCURVE",
"349 26 CURVE SMOOTH",
"308 26 OFFCURVE",
"272 37 OFFCURVE",
"241 59 CURVE",
"241 359 LINE",
"383 342 LINE SMOOTH",
"430 337 OFFCURVE",
"466 319 OFFCURVE",
"491 290 CURVE SMOOTH",
"514 263 OFFCURVE",
"525 231 OFFCURVE",
"525 194 CURVE SMOOTH"
);
}
);
};
components = (
{
name = Grazie_maiusc;
transform = "{1, 0, 0, 1, -131, 0}";
},
{
name = Grazie_maiusc;
transform = "{1, 0, 0, -1, -131, 700}";
}
);
layerId = "4EF47A43-EA9F-416F-884D-AC541148DC09";
paths = (
{
closed = 1;
nodes = (
"98 0 LINE",
"248 0 LINE",
"248 700 LINE",
"98 700 LINE"
);
},
{
closed = 1;
nodes = (
"191 0 LINE",
"469 0 LINE",
"609 76 LINE",
"648 188 LINE",
"573 319 LINE",
"441 366 LINE",
"566 399 LINE",
"614 529 LINE",
"568 648 LINE",
"468 700 LINE",
"194 700 LINE"
);
},
{
closed = 1;
nodes = (
"400 647 LINE",
"454 582 LINE",
"462 455 LINE",
"385 381 LINE",
"248 381 LINE",
"248 635 LINE",
"279 665 LINE"
);
},
{
closed = 1;
nodes = (
"248 65 LINE",
"248 346 LINE",
"425 317 LINE",
"478 240 LINE",
"488 124 LINE",
"420 35 LINE",
"279 35 LINE"
);
}
);
width = 683;
},
{
background = {
paths = (
{
closed = 1;
nodes = (
"328 0 LINE SMOOTH",
"444 0 OFFCURVE",
"572 36 OFFCURVE",
"572 182 CURVE SMOOTH",
"572 307 OFFCURVE",
"456 350 OFFCURVE",
"345 356 CURVE",
"389 362 OFFCURVE",
"536 384 OFFCURVE",
"536 511 CURVE SMOOTH",
"536 677 OFFCURVE",
"303 669 OFFCURVE",
"265 669 CURVE SMOOTH",
"208 669 OFFCURVE",
"103 665 OFFCURVE",
"32 662 CURVE",
"32 640 LINE",
"131 640 OFFCURVE",
"134 640 OFFCURVE",
"134 495 CURVE SMOOTH",
"134 172 LINE SMOOTH",
"134 44 OFFCURVE",
"134 22 OFFCURVE",
"50 22 CURVE SMOOTH",
"25 22 LINE",
"25 0 LINE"
);
},
{
closed = 1;
nodes = (
"230 342 LINE",
"419 352 OFFCURVE",
"465 290 OFFCURVE",
"465 183 CURVE SMOOTH",
"465 128 OFFCURVE",
"457 23 OFFCURVE",
"310 23 CURVE SMOOTH",
"230 23 OFFCURVE",
"230 42 OFFCURVE",
"230 194 CURVE SMOOTH"
);
},
{
closed = 1;
nodes = (
"230 644 LINE",
"363 656 OFFCURVE",
"433 626 OFFCURVE",
"433 506 CURVE SMOOTH",
"433 382 OFFCURVE",
"357 363 OFFCURVE",
"230 366 CURVE"
);
}
);
};
layerId = "1F3E6E29-04CF-4B88-BFE7-02FED6A7184C";
paths = (
{
closed = 1;
nodes = (
"131 0 LINE",
"206 0 LINE",
"206 700 LINE",
"131 700 LINE"
);
},
{
closed = 1;
nodes = (
"234 670 OFFCURVE",
"270 684 OFFCURVE",
"349 675 CURVE SMOOTH",
"436 666 OFFCURVE",
"488 596 OFFCURVE",
"488 504 CURVE SMOOTH",
"488 445 OFFCURVE",
"441 382 OFFCURVE",
"361 383 CURVE",
"206 397 LINE",
"207 653 LINE"
);
},
{
closed = 1;
nodes = (
"337 354 LINE",
"454 336 OFFCURVE",
"515 267 OFFCURVE",
"515 166 CURVE SMOOTH",
"515 103 OFFCURVE",
"464 40 OFFCURVE",
"396 29 CURVE SMOOTH",
"336 19 OFFCURVE",
"287 20 OFFCURVE",
"206 44 CURVE",
"206 368 LINE"
);
},
{
closed = 1;
nodes = (
"356 0 LINE SMOOTH",
"494 0 OFFCURVE",
"587 82 OFFCURVE",
"587 198 CURVE SMOOTH",
"587 288 OFFCURVE",
"489 348 OFFCURVE",
"405 366 CURVE SMOOTH",
"459 381 OFFCURVE",
"555 430 OFFCURVE",
"555 537 CURVE SMOOTH",
"555 636 OFFCURVE",
"452 700 OFFCURVE",
"359 700 CURVE SMOOTH",
"173 700 LINE",
"172 0 LINE"
);
},
{
closed = 1;
nodes = (
"194 700 LINE",
"33 700 LINE",
"33 686 LINE",
"108 683 OFFCURVE",
"131 688 OFFCURVE",
"131 645 CURVE"
);
},
{
closed = 1;
nodes = (
"131 12 OFFCURVE",
"108 17 OFFCURVE",
"33 14 CURVE",
"33 0 LINE",
"194 0 LINE",
"131 55 LINE"
);
}
);
width = 630;
},
{
associatedMasterId = "1F3E6E29-04CF-4B88-BFE7-02FED6A7184C";
layerId = "1F185FF8-A08D-4DD0-9291-AAC6E55900C4";
name = "Oct 6 18, 18:25";
paths = (
{
closed = 1;
nodes = (
"125 0 LINE",
"200 0 LINE",
"200 700 LINE",
"125 700 LINE"
);
},
{
closed = 1;
nodes = (
"167 656 LINE",
"167 700 LINE",
"30 700 LINE",
"30 685 LINE",
"92 675 LINE",
"125 656 LINE"
);
},
{
closed = 1;
nodes = (
"92 25 LINE",
"39 15 LINE",
"39 0 LINE",
"170 0 LINE",
"170 45 LINE",
"125 45 LINE"
);
},
{
closed = 1;
nodes = (
"248 666 OFFCURVE",
"297 674 OFFCURVE",
"322 673 CURVE SMOOTH",
"402 670 OFFCURVE",
"457 592 OFFCURVE",
"457 506 CURVE SMOOTH",
"457 445 OFFCURVE",
"429 373 OFFCURVE",
"351 375 CURVE",
"200 387 LINE",
"201 633 LINE",
"224 661 LINE"
);
},
{
closed = 1;
nodes = (
"327 346 LINE",
"456 316 OFFCURVE",
"486 261 OFFCURVE",
"486 177 CURVE SMOOTH",
"486 91 OFFCURVE",
"437 33 OFFCURVE",
"366 27 CURVE SMOOTH",
"332 24 OFFCURVE",
"223 33 OFFCURVE",
"223 39 CURVE",
"200 67 LINE",
"201 358 LINE"
);
},
{
closed = 1;
nodes = (
"335 0 LINE SMOOTH",
"468 0 OFFCURVE",
"557 80 OFFCURVE",
"557 198 CURVE SMOOTH",
"557 268 OFFCURVE",
"497 329 OFFCURVE",
"395 358 CURVE",
"449 373 OFFCURVE",
"529 430 OFFCURVE",
"529 537 CURVE SMOOTH",
"529 628 OFFCURVE",
"427 700 OFFCURVE",
"336 700 CURVE SMOOTH",
"167 700 LINE",
"166 0 LINE"
);
}
);
width = 577;
},
{
associatedMasterId = "1F3E6E29-04CF-4B88-BFE7-02FED6A7184C";
layerId = "E1020819-25DF-4F6F-A18B-92EA18A4A9D7";
name = "Oct 6 18, 18:54";
paths = (
{
closed = 1;
nodes = (
"101 0 LINE",
"176 0 LINE",
"176 700 LINE",
"101 700 LINE"
);
},
{
closed = 1;
nodes = (
"143 656 LINE",
"143 700 LINE",
"6 700 LINE",
"6 685 LINE",
"68 675 LINE",
"101 656 LINE"
);
},
{
closed = 1;
nodes = (
"68 25 LINE",
"15 15 LINE",
"15 0 LINE",
"146 0 LINE",
"146 45 LINE",
"101 45 LINE"
);
},
{
closed = 1;
nodes = (
"259 676 LINE",
"277 678 OFFCURVE",
"301 678 OFFCURVE",
"319 676 CURVE SMOOTH",
"401 667 OFFCURVE",
"460 590 OFFCURVE",
"460 505 CURVE SMOOTH",
"460 446 OFFCURVE",
"426 380 OFFCURVE",
"351 381 CURVE",
"176 393 LINE",
"177 653 LINE"
);
},
{
closed = 1;
nodes = (
"327 352 LINE",
"441 325 OFFCURVE",
"486 267 OFFCURVE",
"486 166 CURVE SMOOTH",
"486 101 OFFCURVE",
"434 40 OFFCURVE",
"366 29 CURVE SMOOTH",
"306 19 OFFCURVE",
"257 20 OFFCURVE",
"176 44 CURVE",
"177 364 LINE"
);
},
{
closed = 1;
nodes = (
"326 0 LINE SMOOTH",
"464 0 OFFCURVE",
"557 82 OFFCURVE",
"557 198 CURVE SMOOTH",
"557 281 OFFCURVE",
"479 346 OFFCURVE",
"395 364 CURVE SMOOTH",
"449 379 OFFCURVE",
"529 430 OFFCURVE",
"529 537 CURVE SMOOTH",
"529 632 OFFCURVE",
"422 700 OFFCURVE",
"329 700 CURVE SMOOTH",
"143 700 LINE",
"142 0 LINE"
);
}
);
width = 577;
},
{
associatedMasterId = "4EF47A43-EA9F-416F-884D-AC541148DC09";
layerId = "0E00D370-DBB3-4BBA-ACDE-E3C1B5620412";
name = "Oct 6 18, 18:25";
paths = (
{
closed = 1;
nodes = (
"125 0 LINE",
"200 0 LINE",
"200 700 LINE",
"125 700 LINE"
);
},
{
closed = 1;
nodes = (
"167 656 LINE",
"167 700 LINE",
"30 700 LINE",
"30 685 LINE",
"92 675 LINE",
"125 656 LINE"
);
},
{
closed = 1;
nodes = (
"92 25 LINE",
"39 15 LINE",
"39 0 LINE",
"170 0 LINE",
"170 45 LINE",
"125 45 LINE"
);
},
{
closed = 1;
nodes = (
"248 666 OFFCURVE",
"297 674 OFFCURVE",
"322 673 CURVE SMOOTH",
"402 670 OFFCURVE",
"457 592 OFFCURVE",
"457 506 CURVE SMOOTH",
"457 445 OFFCURVE",
"429 373 OFFCURVE",
"351 375 CURVE",
"200 387 LINE",
"201 633 LINE",
"224 661 LINE"
);
},
{
closed = 1;
nodes = (
"327 346 LINE",
"456 316 OFFCURVE",
"486 261 OFFCURVE",
"486 177 CURVE SMOOTH",
"486 91 OFFCURVE",
"437 33 OFFCURVE",
"366 27 CURVE SMOOTH",
"332 24 OFFCURVE",
"223 33 OFFCURVE",
"223 39 CURVE",
"200 67 LINE",
"201 358 LINE"
);
},
{
closed = 1;
nodes = (
"335 0 LINE SMOOTH",
"468 0 OFFCURVE",
"557 80 OFFCURVE",
"557 198 CURVE SMOOTH",
"557 268 OFFCURVE",
"497 329 OFFCURVE",
"395 358 CURVE",
"449 373 OFFCURVE",
"529 430 OFFCURVE",
"529 537 CURVE SMOOTH",
"529 628 OFFCURVE",
"427 700 OFFCURVE",
"336 700 CURVE SMOOTH",
"167 700 LINE",
"166 0 LINE"
);
}
);
width = 577;
},
{
associatedMasterId = "4EF47A43-EA9F-416F-884D-AC541148DC09";
layerId = "6E491830-AA34-4521-8F77-BFEA2AFA2558";
name = "Oct 6 18, 18:54";
paths = (
{
closed = 1;
nodes = (
"101 0 LINE",
"176 0 LINE",
"176 700 LINE",
"101 700 LINE"
);
},
{
closed = 1;
nodes = (
"143 656 LINE",
"143 700 LINE",
"6 700 LINE",
"6 685 LINE",
"68 675 LINE",
"101 656 LINE"
);
},
{
closed = 1;
nodes = (
"68 25 LINE",
"15 15 LINE",
"15 0 LINE",
"146 0 LINE",
"146 45 LINE",
"101 45 LINE"
);
},
{
closed = 1;
nodes = (
"259 676 LINE",
"277 678 OFFCURVE",
"301 678 OFFCURVE",
"319 676 CURVE SMOOTH",
"401 667 OFFCURVE",
"460 590 OFFCURVE",
"460 505 CURVE SMOOTH",
"460 446 OFFCURVE",
"426 380 OFFCURVE",
"351 381 CURVE",
"176 393 LINE",
"177 653 LINE"
);
},
{
closed = 1;
nodes = (
"327 352 LINE",
"441 325 OFFCURVE",
"486 267 OFFCURVE",
"486 166 CURVE SMOOTH",
"486 101 OFFCURVE",
"434 40 OFFCURVE",
"366 29 CURVE SMOOTH",
"306 19 OFFCURVE",
"257 20 OFFCURVE",
"176 44 CURVE",
"177 364 LINE"
);
},
{
closed = 1;
nodes = (
"326 0 LINE SMOOTH",
"464 0 OFFCURVE",
"557 82 OFFCURVE",
"557 198 CURVE SMOOTH",
"557 281 OFFCURVE",
"479 346 OFFCURVE",
"395 364 CURVE SMOOTH",
"449 379 OFFCURVE",
"529 430 OFFCURVE",
"529 537 CURVE SMOOTH",
"529 632 OFFCURVE",
"422 700 OFFCURVE",
"329 700 CURVE SMOOTH",
"143 700 LINE",
"142 0 LINE"
);
}
);
width = 577;
}
);
unicode = 0042;
},
{
glyphname = C;
lastChange = "2019-01-09 10:42:06 +0000";
layers = (
{
anchors = (
{
name = bottom;
position = "{354, 0}";
},
{
name = top;
position = "{354, 700}";
}
);
background = {
paths = (
{
closed = 1;
nodes = (
"618 221 LINE",
"533 35 LINE",
"505 29 OFFCURVE",
"476 26 OFFCURVE",
"447 26 CURVE SMOOTH",
"351 26 OFFCURVE",
"275 60 OFFCURVE",
"219 128 CURVE SMOOTH",
"167 192 OFFCURVE",
"141 273 OFFCURVE",
"141 371 CURVE SMOOTH",
"141 459 OFFCURVE",
"161 534 OFFCURVE",
"201 596 CURVE SMOOTH",
"248 669 OFFCURVE",
"312 705 OFFCURVE",
"395 705 CURVE SMOOTH",
"437 705 OFFCURVE",
"482 694 OFFCURVE",
"531 671 CURVE",
"590 544 LINE",
"606 544 LINE",
"601 707 LINE",
"540 725 OFFCURVE",
"485 734 OFFCURVE",
"435 734 CURVE SMOOTH",
"319 734 OFFCURVE",
"226 697 OFFCURVE",
"157 623 CURVE SMOOTH",
"87 549 OFFCURVE",
"52 454 OFFCURVE",
"52 337 CURVE SMOOTH",
"52 230 OFFCURVE",
"83 145 OFFCURVE",
"146 82 CURVE SMOOTH",
"208 19 OFFCURVE",
"292 -13 OFFCURVE",
"398 -13 CURVE SMOOTH",
"454 -13 OFFCURVE",
"525 2 OFFCURVE",
"610 31 CURVE",
"634 221 LINE"
);
}
);
};
layerId = "4EF47A43-EA9F-416F-884D-AC541148DC09";
leftMetricsKey = "=O";
rightMetricsKey = "=O-2";
paths = (
{
closed = 1;
nodes = (
"641 467 LINE",
"616 467 LINE",
"539 612 LINE",
"344 658 LINE",
"227 582 LINE",
"205 353 LINE",
"273 156 LINE",
"396 63 LINE",
"560 67 LINE",
"654 243 LINE",
"679 243 LINE",
"658 58 LINE",
"529 -4 LINE",
"289 -14 LINE",
"79 139 LINE",
"30 423 LINE",
"189 661 LINE",
"446 713 LINE",
"642 654 LINE"
);
}
);
width = 707;
},
{
anchors = (
{
name = bottom;
position = "{324, 0}";
},
{
name = top;
position = "{324, 700}";
}
);
background = {
paths = (
{
closed = 1;
nodes = (
"604 248 LINE",
"592 151 OFFCURVE",
"530 16 OFFCURVE",
"368 16 CURVE SMOOTH",
"252 16 OFFCURVE",
"135 103 OFFCURVE",
"135 323 CURVE SMOOTH",
"135 478 OFFCURVE",
"189 650 OFFCURVE",
"363 650 CURVE SMOOTH",
"448 650 OFFCURVE",
"575 607 OFFCURVE",
"604 411 CURVE",
"624 411 LINE",
"619 662 LINE",
"597 662 LINE",
"595 642 OFFCURVE",
"589 611 OFFCURVE",
"572 576 CURVE",
"548 606 OFFCURVE",
"471 674 OFFCURVE",
"347 674 CURVE SMOOTH",
"121 674 OFFCURVE",
"23 488 OFFCURVE",
"23 319 CURVE SMOOTH",
"23 116 OFFCURVE",
"162 -12 OFFCURVE",
"349 -12 CURVE SMOOTH",
"416 -12 OFFCURVE",
"501 4 OFFCURVE",
"572 87 CURVE",
"588 66 OFFCURVE",
"598 42 OFFCURVE",
"604 17 CURVE",
"624 17 LINE",
"624 248 LINE"
);
}
);
};
layerId = "1F3E6E29-04CF-4B88-BFE7-02FED6A7184C";
paths = (
{
closed = 1;
nodes = (
"611 477 LINE",
"598 477 LINE",
"562 583 OFFCURVE",
"516 685 OFFCURVE",
"346 685 CURVE SMOOTH",
"179 685 OFFCURVE",
"120 490 OFFCURVE",
"120 348 CURVE SMOOTH",
"120 188 OFFCURVE",
"235 33 OFFCURVE",
"376 33 CURVE SMOOTH",
"529 33 OFFCURVE",
"561 82 OFFCURVE",
"612 230 CURVE",
"629 230 LINE",
"604 52 LINE",
"489 -7 OFFCURVE",
"435 -12 OFFCURVE",
"342 -12 CURVE SMOOTH",
"179 -12 OFFCURVE",
"40 143 OFFCURVE",
"40 311 CURVE SMOOTH",
"40 532 OFFCURVE",
"158 713 OFFCURVE",
"373 713 CURVE SMOOTH",
"444 713 OFFCURVE",
"528 685 OFFCURVE",
"602 647 CURVE"
);
}
);
width = 667;
},
{
associatedMasterId = "1F3E6E29-04CF-4B88-BFE7-02FED6A7184C";
layerId = "D5A60874-D3F0-45BE-A30B-0A5D4030C91E";
name = "Oct 1 18, 21:53";
paths = (
{
closed = 1;
nodes = (
"564 421 LINE",
"562 421 LINE",
"547 585 OFFCURVE",
"453 692 OFFCURVE",
"304 663 CURVE SMOOTH",
"170 636 OFFCURVE",
"126 493 OFFCURVE",
"126 342 CURVE SMOOTH",
"126 186 OFFCURVE",
"234 56 OFFCURVE",
"385 56 CURVE SMOOTH",
"483 56 OFFCURVE",
"544 76 OFFCURVE",
"627 129 CURVE",
"642 118 LINE",
"567 30 OFFCURVE",
"473 -13 OFFCURVE",
"360 -13 CURVE SMOOTH",
"166 -13 OFFCURVE",
"37 123 OFFCURVE",
"37 329 CURVE SMOOTH",
"37 525 OFFCURVE",
"155 700 OFFCURVE",
"349 700 CURVE SMOOTH",
"486 700 OFFCURVE",
"605 638 OFFCURVE",
"654 524 CURVE"
);
}
);
width = 654;
},
{
associatedMasterId = "4EF47A43-EA9F-416F-884D-AC541148DC09";
layerId = "BE06E7EB-5A6E-447B-80FC-F4E174E5E65F";
name = "Oct 1 18, 22:15";
paths = (
{
closed = 1;
nodes = (
"618 411 LINE",
"593 411 LINE",
"552 542 LINE",
"478 631 LINE",
"348 655 LINE",
"225 580 LINE",
"203 353 LINE",
"293 143 LINE",
"473 78 LINE",
"681 169 LINE",
"698 154 LINE",
"564 5 LINE",
"306 -14 LINE",
"97 115 LINE",
"30 418 LINE",
"178 649 LINE",
"453 700 LINE",
"623 648 LINE",
"685 535 LINE"
);
}
);
width = 718;
},
{
associatedMasterId = "1F3E6E29-04CF-4B88-BFE7-02FED6A7184C";
background = {
paths = (
{
closed = 1;
nodes = (
"626 248 LINE",
"614 151 OFFCURVE",
"552 16 OFFCURVE",
"390 16 CURVE SMOOTH",
"274 16 OFFCURVE",
"157 103 OFFCURVE",
"157 323 CURVE SMOOTH",
"157 478 OFFCURVE",
"211 650 OFFCURVE",
"385 650 CURVE SMOOTH",
"470 650 OFFCURVE",
"597 607 OFFCURVE",
"626 411 CURVE",
"646 411 LINE",
"641 662 LINE",
"619 662 LINE",
"617 642 OFFCURVE",
"611 611 OFFCURVE",
"594 576 CURVE",
"570 606 OFFCURVE",
"493 674 OFFCURVE",
"369 674 CURVE SMOOTH",
"143 674 OFFCURVE",
"45 488 OFFCURVE",
"45 319 CURVE SMOOTH",
"45 116 OFFCURVE",
"184 -12 OFFCURVE",
"371 -12 CURVE SMOOTH",
"438 -12 OFFCURVE",
"523 4 OFFCURVE",
"594 87 CURVE",
"610 66 OFFCURVE",
"620 42 OFFCURVE",
"626 17 CURVE",
"646 17 LINE",
"646 248 LINE"
);
}
);
};
layerId = "FD9A230C-FEE9-4D93-B514-79FC70D65758";
name = "Oct 6 18, 20:21";
paths = (
{
closed = 1;
nodes = (
"623 487 LINE",
"610 487 LINE",
"532 630 LINE",
"463 678 OFFCURVE",
"399 697 OFFCURVE",
"330 681 CURVE SMOOTH",
"192 650 OFFCURVE",
"132 500 OFFCURVE",
"132 348 CURVE SMOOTH",
"132 188 OFFCURVE",
"247 42 OFFCURVE",
"388 33 CURVE SMOOTH",
"439 30 OFFCURVE",
"483 39 OFFCURVE",
"529 53 CURVE",
"624 220 LINE",
"641 220 LINE",
"616 52 LINE",
"501 -7 OFFCURVE",
"447 -12 OFFCURVE",
"354 -12 CURVE SMOOTH",
"191 -12 OFFCURVE",
"52 143 OFFCURVE",
"52 311 CURVE SMOOTH",
"52 532 OFFCURVE",
"170 713 OFFCURVE",
"368 713 CURVE SMOOTH",
"456 713 OFFCURVE",
"540 685 OFFCURVE",
"614 647 CURVE"
);
}
);
width = 645;
},
{
associatedMasterId = "1F3E6E29-04CF-4B88-BFE7-02FED6A7184C";
background = {
paths = (
{
closed = 1;
nodes = (
"614 248 LINE",
"602 151 OFFCURVE",
"540 16 OFFCURVE",
"378 16 CURVE SMOOTH",
"262 16 OFFCURVE",
"145 103 OFFCURVE",
"145 323 CURVE SMOOTH",
"145 478 OFFCURVE",
"199 650 OFFCURVE",
"373 650 CURVE SMOOTH",
"458 650 OFFCURVE",
"585 607 OFFCURVE",
"614 411 CURVE",
"634 411 LINE",
"629 662 LINE",
"607 662 LINE",
"605 642 OFFCURVE",
"599 611 OFFCURVE",
"582 576 CURVE",
"558 606 OFFCURVE",
"481 674 OFFCURVE",
"357 674 CURVE SMOOTH",
"131 674 OFFCURVE",
"33 488 OFFCURVE",
"33 319 CURVE SMOOTH",
"33 116 OFFCURVE",
"172 -12 OFFCURVE",
"359 -12 CURVE SMOOTH",
"426 -12 OFFCURVE",
"511 4 OFFCURVE",
"582 87 CURVE",
"598 66 OFFCURVE",
"608 42 OFFCURVE",
"614 17 CURVE",
"634 17 LINE",
"634 248 LINE"
);
}
);
};
layerId = "67B651F5-689E-4FDE-B03B-F0F796803CB6";
name = "Nov 7 18, 23:29";
paths = (
{
closed = 1;
nodes = (
"611 487 LINE",
"598 487 LINE",
"546 591 OFFCURVE",
"516 685 OFFCURVE",
"346 685 CURVE SMOOTH",
"179 685 OFFCURVE",
"120 490 OFFCURVE",
"120 348 CURVE SMOOTH",
"120 188 OFFCURVE",
"235 34 OFFCURVE",
"376 34 CURVE SMOOTH",
"477 34 OFFCURVE",
"560 60 OFFCURVE",
"612 220 CURVE",
"629 220 LINE",
"604 52 LINE",
"489 -7 OFFCURVE",
"435 -12 OFFCURVE",
"342 -12 CURVE SMOOTH",
"179 -12 OFFCURVE",
"40 143 OFFCURVE",
"40 311 CURVE SMOOTH",
"40 532 OFFCURVE",
"158 713 OFFCURVE",
"373 713 CURVE SMOOTH",
"444 713 OFFCURVE",
"528 685 OFFCURVE",
"602 647 CURVE"
);
}
);
width = 667;
},
{
associatedMasterId = "4EF47A43-EA9F-416F-884D-AC541148DC09";
layerId = "96C6A23D-481C-4BA5-9114-FE72A4E38370";
name = "Oct 1 18, 22:15";
paths = (
{
closed = 1;
nodes = (
"618 411 LINE",
"593 411 LINE",
"552 542 LINE",
"478 631 LINE",
"348 655 LINE",
"225 580 LINE",
"203 353 LINE",
"293 143 LINE",
"473 78 LINE",
"681 169 LINE",
"698 154 LINE",
"564 5 LINE",
"306 -14 LINE",
"97 115 LINE",
"30 418 LINE",
"178 649 LINE",
"453 700 LINE",
"623 648 LINE",
"685 535 LINE"
);
}
);
width = 718;
},
{
associatedMasterId = "4EF47A43-EA9F-416F-884D-AC541148DC09";
layerId = "F710ADE8-241E-4434-B023-7D55DDA8041C";
name = "Oct 1 18, 21:53";
paths = (
{
closed = 1;
nodes = (
"564 421 LINE",
"562 421 LINE",
"547 585 OFFCURVE",
"453 692 OFFCURVE",
"304 663 CURVE SMOOTH",
"170 636 OFFCURVE",
"126 493 OFFCURVE",
"126 342 CURVE SMOOTH",
"126 186 OFFCURVE",
"234 56 OFFCURVE",
"385 56 CURVE SMOOTH",
"483 56 OFFCURVE",
"544 76 OFFCURVE",
"627 129 CURVE",
"642 118 LINE",
"567 30 OFFCURVE",
"473 -13 OFFCURVE",
"360 -13 CURVE SMOOTH",
"166 -13 OFFCURVE",
"37 123 OFFCURVE",
"37 329 CURVE SMOOTH",
"37 525 OFFCURVE",
"155 700 OFFCURVE",
"349 700 CURVE SMOOTH",
"486 700 OFFCURVE",
"605 638 OFFCURVE",
"654 524 CURVE"
);
}
);
width = 654;
},
{
associatedMasterId = "4EF47A43-EA9F-416F-884D-AC541148DC09";
background = {
paths = (
{
closed = 1;
nodes = (
"626 248 LINE",
"614 151 OFFCURVE",
"552 16 OFFCURVE",
"390 16 CURVE SMOOTH",
"274 16 OFFCURVE",
"157 103 OFFCURVE",
"157 323 CURVE SMOOTH",
"157 478 OFFCURVE",
"211 650 OFFCURVE",
"385 650 CURVE SMOOTH",
"470 650 OFFCURVE",
"597 607 OFFCURVE",
"626 411 CURVE",
"646 411 LINE",
"641 662 LINE",
"619 662 LINE",
"617 642 OFFCURVE",
"611 611 OFFCURVE",
"594 576 CURVE",
"570 606 OFFCURVE",
"493 674 OFFCURVE",
"369 674 CURVE SMOOTH",
"143 674 OFFCURVE",
"45 488 OFFCURVE",
"45 319 CURVE SMOOTH",
"45 116 OFFCURVE",
"184 -12 OFFCURVE",
"371 -12 CURVE SMOOTH",
"438 -12 OFFCURVE",
"523 4 OFFCURVE",
"594 87 CURVE",
"610 66 OFFCURVE",
"620 42 OFFCURVE",
"626 17 CURVE",
"646 17 LINE",
"646 248 LINE"
);
}
);
};
layerId = "0257FCDB-6664-4067-873F-F12DB01D05C8";
name = "Oct 6 18, 20:21";
paths = (
{
closed = 1;
nodes = (
"623 487 LINE",
"610 487 LINE",
"532 630 LINE",
"463 678 OFFCURVE",
"399 697 OFFCURVE",
"330 681 CURVE SMOOTH",
"192 650 OFFCURVE",
"132 500 OFFCURVE",
"132 348 CURVE SMOOTH",
"132 188 OFFCURVE",
"247 42 OFFCURVE",
"388 33 CURVE SMOOTH",
"439 30 OFFCURVE",
"483 39 OFFCURVE",
"529 53 CURVE",
"624 220 LINE",
"641 220 LINE",
"616 52 LINE",
"501 -7 OFFCURVE",
"447 -12 OFFCURVE",
"354 -12 CURVE SMOOTH",
"191 -12 OFFCURVE",
"52 143 OFFCURVE",
"52 311 CURVE SMOOTH",
"52 532 OFFCURVE",
"170 713 OFFCURVE",
"368 713 CURVE SMOOTH",
"456 713 OFFCURVE",
"540 685 OFFCURVE",
"614 647 CURVE"
);
}
);
width = 645;
},
{
associatedMasterId = "4EF47A43-EA9F-416F-884D-AC541148DC09";
background = {
paths = (
{
closed = 1;
nodes = (
"614 248 LINE",
"602 151 OFFCURVE",
"540 16 OFFCURVE",
"378 16 CURVE SMOOTH",
"262 16 OFFCURVE",
"145 103 OFFCURVE",
"145 323 CURVE SMOOTH",
"145 478 OFFCURVE",
"199 650 OFFCURVE",
"373 650 CURVE SMOOTH",
"458 650 OFFCURVE",
"585 607 OFFCURVE",
"614 411 CURVE",
"634 411 LINE",
"629 662 LINE",
"607 662 LINE",
"605 642 OFFCURVE",
"599 611 OFFCURVE",
"582 576 CURVE",
"558 606 OFFCURVE",
"481 674 OFFCURVE",
"357 674 CURVE SMOOTH",
"131 674 OFFCURVE",
"33 488 OFFCURVE",
"33 319 CURVE SMOOTH",
"33 116 OFFCURVE",
"172 -12 OFFCURVE",
"359 -12 CURVE SMOOTH",
"426 -12 OFFCURVE",
"511 4 OFFCURVE",
"582 87 CURVE",
"598 66 OFFCURVE",
"608 42 OFFCURVE",
"614 17 CURVE",
"634 17 LINE",
"634 248 LINE"
);
}
);
};
layerId = "97FA91B9-C7B2-4B76-8CE3-AD3903FDE8B4";
name = "Nov 7 18, 23:29";
paths = (
{
closed = 1;
nodes = (
"611 487 LINE",
"598 487 LINE",
"546 591 OFFCURVE",
"516 685 OFFCURVE",
"346 685 CURVE SMOOTH",
"179 685 OFFCURVE",
"120 490 OFFCURVE",
"120 348 CURVE SMOOTH",
"120 188 OFFCURVE",
"235 34 OFFCURVE",
"376 34 CURVE SMOOTH",
"477 34 OFFCURVE",
"560 60 OFFCURVE",
"612 220 CURVE",
"629 220 LINE",
"604 52 LINE",
"489 -7 OFFCURVE",
"435 -12 OFFCURVE",
"342 -12 CURVE SMOOTH",
"179 -12 OFFCURVE",
"40 143 OFFCURVE",
"40 311 CURVE SMOOTH",
"40 532 OFFCURVE",
"158 713 OFFCURVE",
"373 713 CURVE SMOOTH",
"444 713 OFFCURVE",
"528 685 OFFCURVE",
"602 647 CURVE"
);
}
);
width = 667;
},
{
anchors = (
{
name = bottom;
position = "{324, 0}";
},
{
name = top;
position = "{324, 700}";
}
);
associatedMasterId = "1F3E6E29-04CF-4B88-BFE7-02FED6A7184C";
background = {
paths = (
{
closed = 1;
nodes = (
"604 248 LINE",
"592 151 OFFCURVE",
"530 16 OFFCURVE",
"368 16 CURVE SMOOTH",
"252 16 OFFCURVE",
"135 103 OFFCURVE",
"135 323 CURVE SMOOTH",
"135 478 OFFCURVE",
"189 650 OFFCURVE",
"363 650 CURVE SMOOTH",
"448 650 OFFCURVE",
"575 607 OFFCURVE",
"604 411 CURVE",
"624 411 LINE",
"619 662 LINE",
"597 662 LINE",
"595 642 OFFCURVE",
"589 611 OFFCURVE",
"572 576 CURVE",
"548 606 OFFCURVE",
"471 674 OFFCURVE",
"347 674 CURVE SMOOTH",
"121 674 OFFCURVE",
"23 488 OFFCURVE",
"23 319 CURVE SMOOTH",
"23 116 OFFCURVE",
"162 -12 OFFCURVE",
"349 -12 CURVE SMOOTH",
"416 -12 OFFCURVE",
"501 4 OFFCURVE",
"572 87 CURVE",
"588 66 OFFCURVE",
"598 42 OFFCURVE",
"604 17 CURVE",
"624 17 LINE",
"624 248 LINE"
);
}
);
};
layerId = "F69498D1-2061-4CEE-89A4-75DD380A2D16";
name = "Jan 6 19, 17:08";
paths = (
{
closed = 1;
nodes = (
"601 487 LINE",
"588 487 LINE",
"510 630 LINE",
"441 678 OFFCURVE",
"377 685 OFFCURVE",
"336 685 CURVE SMOOTH",
"169 685 OFFCURVE",
"110 490 OFFCURVE",
"110 348 CURVE SMOOTH",
"110 185 OFFCURVE",
"225 42 OFFCURVE",
"366 33 CURVE SMOOTH",
"417 30 OFFCURVE",
"461 39 OFFCURVE",
"507 53 CURVE",
"602 220 LINE",
"619 220 LINE",
"594 52 LINE",
"479 -7 OFFCURVE",
"425 -12 OFFCURVE",
"332 -12 CURVE SMOOTH",
"169 -12 OFFCURVE",
"30 143 OFFCURVE",
"30 311 CURVE SMOOTH",
"30 532 OFFCURVE",
"148 713 OFFCURVE",
"363 713 CURVE SMOOTH",
"434 713 OFFCURVE",
"518 685 OFFCURVE",
"592 647 CURVE"
);
}
);
width = 647;
}
);
unicode = 0043;
},
{
glyphname = D;
lastChange = "2019-01-09 15:31:00 +0000";
layers = (
{
background = {
paths = (
{
closed = 1;
nodes = (
"715 476 OFFCURVE",
"689 553 OFFCURVE",
"637 616 CURVE SMOOTH",
"579 685 OFFCURVE",
"500 720 OFFCURVE",
"400 720 CURVE SMOOTH",
"51 720 LINE",
"51 705 LINE",
"153 672 LINE",
"153 48 LINE",
"51 15 LINE",
"51 0 LINE",
"343 0 LINE SMOOTH",
"460 0 OFFCURVE",
"553 40 OFFCURVE",
"622 121 CURVE SMOOTH",
"684 193 OFFCURVE",
"715 280 OFFCURVE",
"715 383 CURVE SMOOTH"
);
},
{
closed = 1;
nodes = (
"632 259 OFFCURVE",
"607 182 OFFCURVE",
"558 122 CURVE SMOOTH",
"509 62 OFFCURVE",
"444 32 OFFCURVE",
"365 32 CURVE SMOOTH",
"325 32 OFFCURVE",
"283 40 OFFCURVE",
"240 57 CURVE",
"240 694 LINE",
"338 686 LINE SMOOTH",
"434 678 OFFCURVE",
"509 640 OFFCURVE",
"562 572 CURVE SMOOTH",
"609 511 OFFCURVE",
"632 438 OFFCURVE",
"632 352 CURVE SMOOTH"
);
}
);
};
components = (
{
name = Grazie_maiusc;
transform = "{1, 0, 0, 1, -132, 0}";
},
{
name = Grazie_maiusc;
transform = "{1, 0, 0, -1, -132, 700}";
}
);
layerId = "4EF47A43-EA9F-416F-884D-AC541148DC09";
paths = (
{
closed = 1;
nodes = (
"97 0 LINE",
"247 0 LINE",
"247 700 LINE",
"97 700 LINE"
);
},
{
closed = 1;
nodes = (
"190 0 LINE",
"413 0 LINE",
"598 117 LINE",
"668 360 LINE",
"607 564 LINE",
"435 700 LINE",
"193 700 LINE"
);
},
{
closed = 1;
nodes = (
"368 653 LINE",
"472 482 LINE",
"497 214 LINE",
"453 74 LINE",
"336 56 LINE",
"247 76 LINE",
"247 635 LINE",
"278 668 LINE"
);
}
);
width = 703;
},
{
background = {
paths = (
{
closed = 1;
nodes = (
"24 634 LINE",
"43 634 LINE SMOOTH",
"131 634 OFFCURVE",
"133 626 OFFCURVE",
"133 492 CURVE SMOOTH",
"133 172 LINE SMOOTH",
"133 44 OFFCURVE",
"133 22 OFFCURVE",
"48 22 CURVE SMOOTH",
"21 22 LINE",
"21 0 LINE",
"315 0 LINE SMOOTH",
"413 0 OFFCURVE",
"521 -1 OFFCURVE",
"608 73 CURVE SMOOTH",
"698 149 OFFCURVE",
"710 269 OFFCURVE",
"710 325 CURVE SMOOTH",
"710 399 OFFCURVE",
"693 509 OFFCURVE",
"602 586 CURVE SMOOTH",
"541 638 OFFCURVE",
"461 669 OFFCURVE",
"316 669 CURVE SMOOTH",
"202 669 OFFCURVE",
"115 663 OFFCURVE",
"24 657 CURVE"
);
},
{
closed = 1;
nodes = (
"229 643 LINE",
"251 644 OFFCURVE",
"276 645 OFFCURVE",
"310 645 CURVE SMOOTH",
"362 645 OFFCURVE",
"472 646 OFFCURVE",
"541 548 CURVE SMOOTH",
"593 474 OFFCURVE",
"603 381 OFFCURVE",
"603 318 CURVE SMOOTH",
"603 239 OFFCURVE",
"588 130 OFFCURVE",
"508 68 CURVE SMOOTH",
"453 25 OFFCURVE",
"380 23 OFFCURVE",
"333 23 CURVE SMOOTH",
"228 23 OFFCURVE",
"229 27 OFFCURVE",
"229 201 CURVE SMOOTH"
);
}
);
};
layerId = "1F3E6E29-04CF-4B88-BFE7-02FED6A7184C";
paths = (
{
closed = 1;
nodes = (
"289 673 LINE",
"455 659 OFFCURVE",
"553 556 OFFCURVE",
"553 355 CURVE SMOOTH",
"553 194 OFFCURVE",
"517 37 OFFCURVE",
"308 44 CURVE SMOOTH",
"280 45 OFFCURVE",
"226 54 OFFCURVE",
"199 59 CURVE",
"199 0 LINE",
"257 0 LINE",
"535 -5 OFFCURVE",
"632 195 OFFCURVE",
"632 396 CURVE SMOOTH",
"632 580 OFFCURVE",
"504 701 OFFCURVE",
"306 701 CURVE",
"194 700 LINE",
"194 677 LINE"
);
},
{
closed = 1;
nodes = (
"131 0 LINE",
"206 0 LINE",
"206 700 LINE",
"131 700 LINE"
);
},
{
closed = 1;
nodes = (
"194 700 LINE",
"33 700 LINE",
"33 686 LINE",
"108 683 OFFCURVE",
"131 688 OFFCURVE",
"131 645 CURVE"
);
},
{
closed = 1;
nodes = (
"131 12 OFFCURVE",
"108 17 OFFCURVE",
"33 14 CURVE",
"33 0 LINE",
"194 0 LINE",
"131 55 LINE"
);
}
);
width = 662;
},
{
associatedMasterId = "4EF47A43-EA9F-416F-884D-AC541148DC09";
layerId = "F7CA15AB-5F71-4B82-8E83-A714408731A3";
name = "Aug 26 18, 15:20";
paths = (
{
closed = 1;
nodes = (
"86 0 LINE",
"236 0 LINE",
"236 700 LINE",
"86 700 LINE"
);
},
{
closed = 1;
nodes = (
"179 0 LINE",
"420 0 LINE",
"554 85 LINE",
"631 373 LINE",
"585 545 LINE",
"413 700 LINE",
"182 700 LINE"
);
},
{
closed = 1;
nodes = (
"53 25 LINE",
"25 22 LINE",
"25 0 LINE",
"114 0 LINE",
"116 55 LINE",
"86 55 LINE"
);
},
{
closed = 1;
nodes = (
"126 645 LINE",
"126 700 LINE",
"25 700 LINE",
"25 678 LINE",
"53 675 LINE",
"86 645 LINE"
);
},
{
closed = 1;
nodes = (
"354 651 LINE",
"469 460 LINE",
"497 179 LINE",
"468 62 LINE",
"339 34 LINE",
"236 65 LINE",
"236 635 LINE",
"267 665 LINE"
);
}
);
width = 600;
},
{
associatedMasterId = "4EF47A43-EA9F-416F-884D-AC541148DC09";
layerId = "CAD34993-9893-48FE-A5F1-9E462C4A9785";
name = "Aug 26 18, 15:20";
paths = (
{
closed = 1;
nodes = (
"86 0 LINE",
"236 0 LINE",
"236 700 LINE",
"86 700 LINE"
);
},
{
closed = 1;
nodes = (
"179 0 LINE",
"420 0 LINE",
"554 85 LINE",
"631 373 LINE",
"585 545 LINE",
"413 700 LINE",
"182 700 LINE"
);
},
{
closed = 1;
nodes = (
"53 25 LINE",
"25 22 LINE",
"25 0 LINE",
"114 0 LINE",
"116 55 LINE",
"86 55 LINE"
);
},
{
closed = 1;
nodes = (
"126 645 LINE",
"126 700 LINE",
"25 700 LINE",
"25 678 LINE",
"53 675 LINE",
"86 645 LINE"
);
},
{
closed = 1;
nodes = (
"354 651 LINE",
"469 460 LINE",
"497 179 LINE",
"468 62 LINE",
"339 34 LINE",
"236 65 LINE",
"236 635 LINE",
"267 665 LINE"
);
}
);
width = 600;
}
);
unicode = 0044;
},
{
glyphname = E;
lastChange = "2019-01-09 14:03:00 +0000";
layers = (
{
anchors = (
{
name = bottom;
position = "{320, 0}";
},
{
name = ogonek;
position = "{575, 10}";
},
{
name = top;
position = "{320, 700}";
},
{
name = topleft;
position = "{21, 700}";
}
);
background = {
paths = (
{
closed = 1;
nodes = (
"585 207 LINE",
"510 46 LINE",
"232 25 LINE",
"232 371 LINE",
"417 361 LINE",
"453 249 LINE",
"469 249 LINE",
"469 517 LINE",
"453 517 LINE",
"417 405 LINE",
"232 395 LINE",
"232 694 LINE",
"492 673 LINE",
"543 547 LINE",
"559 546 LINE",
"549 720 LINE",
"43 720 LINE",
"43 705 LINE",
"145 672 LINE",
"145 48 LINE",
"43 15 LINE",
"43 0 LINE",
"576 0 LINE",
"601 207 LINE"
);
}
);
};
layerId = "4EF47A43-EA9F-416F-884D-AC541148DC09";
paths = (
{
closed = 1;
nodes = (
"97 0 LINE",
"247 0 LINE",
"247 700 LINE",
"97 700 LINE"
);
},
{
closed = 1;
nodes = (
"247 337 LINE",
"496 335 LINE",
"496 390 LINE",
"247 388 LINE"
);
},
{
closed = 1;
nodes = (
"455 304 LINE",
"474 260 LINE",
"497 260 LINE",
"497 465 LINE",
"474 465 LINE",
"455 421 LINE",
"410 390 LINE",
"410 337 LINE"
);
},
{
closed = 1;
nodes = (
"64 25 LINE",
"20 22 LINE",
"20 0 LINE",
"324 0 LINE",
"324 22 LINE",
"300 25 LINE",
"247 90 LINE",
"97 70 LINE"
);
},
{
closed = 1;
nodes = (
"247 610 LINE",
"300 675 LINE",
"324 678 LINE",
"324 700 LINE",
"20 700 LINE",
"20 678 LINE",
"64 675 LINE",
"97 630 LINE"
);
},
{
closed = 1;
nodes = (
"247 0 LINE",
"546 0 LINE",
"546 60 LINE",
"247 45 LINE"
);
},
{
closed = 1;
nodes = (
"371 700 LINE",
"371 680 LINE",
"491 615 LINE",
"553 531 LINE",
"578 531 LINE",
"557 700 LINE"
);
},
{
closed = 1;
nodes = (
"546 640 LINE",
"545 700 LINE",
"247 700 LINE",
"247 655 LINE"
);
},
{
closed = 1;
nodes = (
"587 169 LINE",
"562 169 LINE",
"493 85 LINE",
"373 20 LINE",
"373 0 LINE",
"559 0 LINE"
);
}
);
width = 617;
},
{
anchors = (
{
name = bottom;
position = "{319, 0}";
},
{
name = ogonek;
position = "{574, 10}";
},
{
name = top;
position = "{319, 700}";
},
{
name = topleft;
position = "{20, 700}";
}
);
background = {
paths = (
{
closed = 1;
nodes = (
"581 206 LINE",
"537 22 OFFCURVE",
"439 22 OFFCURVE",
"383 22 CURVE SMOOTH",
"334 22 LINE SMOOTH",
"243 22 OFFCURVE",
"237 30 OFFCURVE",
"237 182 CURVE SMOOTH",
"237 339 LINE",
"309 339 LINE SMOOTH",
"385 339 OFFCURVE",
"407 334 OFFCURVE",
"407 234 CURVE",
"430 234 LINE",
"430 461 LINE",
"407 461 LINE",
"407 384 OFFCURVE",
"401 361 OFFCURVE",
"308 361 CURVE SMOOTH",
"237 361 LINE",
"237 640 LINE",
"329 640 LINE SMOOTH",
"441 640 OFFCURVE",
"489 638 OFFCURVE",
"521 497 CURVE",
"544 497 LINE",
"529 662 LINE",
"55 662 LINE",
"55 640 LINE",
"140 640 OFFCURVE",
"141 628 OFFCURVE",
"141 497 CURVE SMOOTH",
"141 172 LINE SMOOTH",
"141 44 OFFCURVE",
"141 22 OFFCURVE",
"55 22 CURVE SMOOTH",
"42 22 LINE",
"42 0 LINE",
"590 0 LINE",
"604 206 LINE"
);
}
);
};
layerId = "1F3E6E29-04CF-4B88-BFE7-02FED6A7184C";
paths = (
{
closed = 1;
nodes = (
"132 0 LINE",
"208 0 LINE",
"208 700 LINE",
"132 700 LINE"
);
},
{
closed = 1;
nodes = (
"208 675 LINE",
"587 655 LINE",
"587 700 LINE",
"208 700 LINE"
);
},
{
closed = 1;
nodes = (
"207 0 LINE",
"592 0 LINE",
"593 45 LINE",
"207 25 LINE"
);
},
{
closed = 1;
nodes = (
"208 349 LINE",
"521 339 LINE",
"521 384 LINE",
"208 374 LINE"
);
},
{
closed = 1;
nodes = (
"422 664 LINE",
"493 661 OFFCURVE",
"571 656 OFFCURVE",
"590 538 CURVE",
"609 538 LINE",
"586 700 LINE",
"422 700 LINE"
);
},
{
closed = 1;
nodes = (
"593 0 LINE",
"616 162 LINE",
"597 162 LINE",
"578 48 OFFCURVE",
"493 39 OFFCURVE",
"429 36 CURVE",
"429 0 LINE"
);
},
{
closed = 1;
nodes = (
"484 342 OFFCURVE",
"505 310 OFFCURVE",
"507 255 CURVE",
"521 255 LINE",
"521 466 LINE",
"507 466 LINE",
"505 411 OFFCURVE",
"484 381 OFFCURVE",
"436 381 CURVE",
"436 342 LINE"
);
},
{
closed = 1;
nodes = (
"195 700 LINE",
"34 700 LINE",
"34 686 LINE",
"109 683 OFFCURVE",
"132 688 OFFCURVE",
"132 645 CURVE"
);
},
{
closed = 1;
nodes = (
"132 12 OFFCURVE",
"109 17 OFFCURVE",
"34 14 CURVE",
"34 0 LINE",
"195 0 LINE",
"132 55 LINE"
);
}
);
width = 646;
}
);
unicode = 0045;
},
{
glyphname = Ecircumflex;
lastChange = "2019-01-09 17:20:36 +0000";
layers = (
{
components = (
{
name = E;
},
{
name = circumflexcomb.case;
transform = "{1, 0, 0, 1, 34, 143}";
}
);
layerId = "4EF47A43-EA9F-416F-884D-AC541148DC09";
width = 617;
},
{
anchors = (
{
name = bottom;
position = "{319, 0}";
},
{
name = ogonek;
position = "{574, 10}";
},
{
name = top;
position = "{318.5, 945}";
},
{
name = topleft;
position = "{20, 700}";
}
);
layerId = "1F3E6E29-04CF-4B88-BFE7-02FED6A7184C";
paths = (
{
closed = 1;
nodes = (
"126 0 LINE",
"202 0 LINE",
"202 700 LINE",
"126 700 LINE"
);
},
{
closed = 1;
nodes = (
"202 675 LINE",
"581 655 LINE",
"581 700 LINE",
"202 700 LINE"
);
},
{
closed = 1;
nodes = (
"201 0 LINE",
"586 0 LINE",
"587 45 LINE",
"201 25 LINE"
);
},
{
closed = 1;
nodes = (
"202 349 LINE",
"515 339 LINE",
"515 384 LINE",
"202 374 LINE"
);
},
{
closed = 1;
nodes = (
"606 159 LINE",
"591 159 LINE",
"530 58 LINE",
"396 0 LINE",
"586 0 LINE"
);
},
{
closed = 1;
nodes = (
"391 700 LINE",
"525 642 LINE",
"576 541 LINE",
"591 541 LINE",
"581 700 LINE"
);
},
{
closed = 1;
nodes = (
"93 25 LINE",
"40 15 LINE",
"40 0 LINE",
"171 0 LINE",
"171 45 LINE",
"126 45 LINE"
);
},
{
closed = 1;
nodes = (
"485 306 LINE",
"500 253 LINE",
"515 253 LINE",
"515 463 LINE",
"500 463 LINE",
"485 410 LINE",
"460 379 LINE",
"460 339 LINE"
);
},
{
closed = 1;
nodes = (
"171 655 LINE",
"171 700 LINE",
"40 700 LINE",
"40 685 LINE",
"93 675 LINE",
"126 655 LINE"
);
},
{
closed = 1;
nodes = (
"329 945 LINE",
"351 945 LINE",
"490 787 LINE",
"479 778 LINE",
"340 886 LINE",
"201 778 LINE",
"191 787 LINE"
);
}
);
width = 638;
}
);
unicode = 00CA;
},
{
glyphname = F;
lastChange = "2019-01-09 14:04:10 +0000";
layers = (
{
background = {
paths = (
{
closed = 1;
nodes = (
"550 720 LINE",
"43 720 LINE",
"43 705 LINE",
"145 672 LINE",
"145 48 LINE",
"43 15 LINE",
"43 0 LINE",
"334 0 LINE",
"334 15 LINE",
"232 48 LINE",
"232 371 LINE",
"417 361 LINE",
"453 249 LINE",
"469 249 LINE",
"469 517 LINE",
"453 517 LINE",
"417 405 LINE",
"232 395 LINE",
"232 694 LINE",
"492 673 LINE",
"543 547 LINE",
"559 546 LINE"
);
}
);
};
layerId = "4EF47A43-EA9F-416F-884D-AC541148DC09";
paths = (
{
closed = 1;
nodes = (
"97 0 LINE",
"247 0 LINE",
"247 700 LINE",
"97 700 LINE"
);
},
{
closed = 1;
nodes = (
"247 338 LINE",
"496 335 LINE",
"496 390 LINE",
"247 387 LINE"
);
},
{
closed = 1;
nodes = (
"452 304 LINE",
"474 260 LINE",
"496 260 LINE",
"496 465 LINE",
"474 465 LINE",
"452 421 LINE",
"407 389 LINE",
"407 337 LINE"
);
},
{
closed = 1;
nodes = (
"64 25 LINE",
"20 22 LINE",
"20 0 LINE",
"344 0 LINE",
"344 22 LINE",
"290 25 LINE",
"247 70 LINE",
"97 70 LINE"
);
},
{
closed = 1;
nodes = (
"247 610 LINE",
"300 675 LINE",
"324 678 LINE",
"324 700 LINE",
"20 700 LINE",
"20 678 LINE",
"64 675 LINE",
"97 630 LINE"
);
},
{
closed = 1;
nodes = (
"546 640 LINE",
"545 700 LINE",
"247 700 LINE",
"247 655 LINE"
);
},
{
closed = 1;
nodes = (
"376 700 LINE",
"376 680 LINE",
"496 615 LINE",
"558 531 LINE",
"583 531 LINE",
"562 700 LINE"
);
}
);
width = 593;
},
{
background = {
paths = (
{
closed = 1;
nodes = (
"552 662 LINE",
"42 662 LINE",
"42 640 LINE",
"131 640 OFFCURVE",
"142 637 OFFCURVE",
"142 534 CURVE SMOOTH",
"142 172 LINE SMOOTH",
"142 45 OFFCURVE",
"142 22 OFFCURVE",
"58 22 CURVE SMOOTH",
"38 22 LINE",
"38 0 LINE",
"345 0 LINE",
"345 22 LINE",
"323 22 LINE SMOOTH",
"238 22 OFFCURVE",
"238 44 OFFCURVE",
"238 172 CURVE SMOOTH",
"238 337 LINE",
"300 337 LINE SMOOTH",
"360 337 OFFCURVE",
"400 337 OFFCURVE",
"400 227 CURVE",
"424 227 LINE",
"424 460 LINE",
"400 460 LINE",
"400 367 OFFCURVE",
"368 359 OFFCURVE",
"300 359 CURVE SMOOTH",
"238 359 LINE",
"238 640 LINE",
"367 640 LINE SMOOTH",
"444 640 OFFCURVE",
"515 637 OFFCURVE",
"535 497 CURVE",
"558 497 LINE"
);
}
);
};
layerId = "1F3E6E29-04CF-4B88-BFE7-02FED6A7184C";
paths = (
{
closed = 1;
nodes = (
"132 0 LINE",
"207 0 LINE",
"208 700 LINE",
"132 700 LINE"
);
},
{
closed = 1;
nodes = (
"202 675 LINE",
"587 655 LINE",
"587 700 LINE",
"202 700 LINE"
);
},
{
closed = 1;
nodes = (
"207 349 LINE",
"521 339 LINE",
"521 384 LINE",
"207 374 LINE"
);
},
{
closed = 1;
nodes = (
"423 664 LINE",
"487 661 OFFCURVE",
"572 652 OFFCURVE",
"591 538 CURVE",
"610 538 LINE",
"587 700 LINE",
"423 700 LINE"
);
},
{
closed = 1;
nodes = (
"132 37 OFFCURVE",
"100 16 OFFCURVE",
"45 14 CURVE",
"45 0 LINE",
"322 0 LINE",
"322 14 LINE",
"227 16 OFFCURVE",
"207 37 OFFCURVE",
"207 85 CURVE",
"132 85 LINE"
);
},
{
closed = 1;
nodes = (
"484 342 OFFCURVE",
"505 310 OFFCURVE",
"507 255 CURVE",
"521 255 LINE",
"521 466 LINE",
"507 466 LINE",
"505 411 OFFCURVE",
"484 381 OFFCURVE",
"436 381 CURVE",
"436 342 LINE"
);
},
{
closed = 1;
nodes = (
"195 700 LINE",
"34 700 LINE",
"34 686 LINE",
"109 683 OFFCURVE",
"132 688 OFFCURVE",
"132 645 CURVE"
);
}
);
width = 618;
},
{
associatedMasterId = "1F3E6E29-04CF-4B88-BFE7-02FED6A7184C";
background = {
paths = (
{
closed = 1;
nodes = (
"552 662 LINE",
"42 662 LINE",
"42 640 LINE",
"131 640 OFFCURVE",
"142 637 OFFCURVE",
"142 534 CURVE SMOOTH",
"142 172 LINE SMOOTH",
"142 45 OFFCURVE",
"142 22 OFFCURVE",
"58 22 CURVE SMOOTH",
"38 22 LINE",
"38 0 LINE",
"345 0 LINE",
"345 22 LINE",
"323 22 LINE SMOOTH",
"238 22 OFFCURVE",
"238 44 OFFCURVE",
"238 172 CURVE SMOOTH",
"238 337 LINE",
"300 337 LINE SMOOTH",
"360 337 OFFCURVE",
"400 337 OFFCURVE",
"400 227 CURVE",
"424 227 LINE",
"424 460 LINE",
"400 460 LINE",
"400 367 OFFCURVE",
"368 359 OFFCURVE",
"300 359 CURVE SMOOTH",
"238 359 LINE",
"238 640 LINE",
"367 640 LINE SMOOTH",
"444 640 OFFCURVE",
"515 637 OFFCURVE",
"535 497 CURVE",
"558 497 LINE"
);
}
);
};
layerId = "A4EDB6C0-061A-4C6C-9645-328C04BA8CF6";
name = "Jan 6 19, 17:08";
paths = (
{
closed = 1;
nodes = (
"126 0 LINE",
"202 0 LINE",
"202 700 LINE",
"126 700 LINE"
);
},
{
closed = 1;
nodes = (
"196 675 LINE",
"581 655 LINE",
"581 700 LINE",
"196 700 LINE"
);
},
{
closed = 1;
nodes = (
"391 700 LINE",
"515 642 LINE",
"576 541 LINE",
"591 541 LINE",
"581 700 LINE"
);
},
{
closed = 1;
nodes = (
"171 655 LINE",
"171 700 LINE",
"40 700 LINE",
"40 685 LINE",
"93 675 LINE",
"126 655 LINE"
);
},
{
closed = 1;
nodes = (
"93 25 LINE",
"40 15 LINE",
"40 0 LINE",
"306 0 LINE",
"306 15 LINE",
"243 25 LINE",
"202 45 LINE",
"126 45 LINE"
);
},
{
closed = 1;
nodes = (
"201 349 LINE",
"515 339 LINE",
"515 384 LINE",
"201 374 LINE"
);
},
{
closed = 1;
nodes = (
"485 308 LINE",
"500 255 LINE",
"515 255 LINE",
"515 466 LINE",
"500 466 LINE",
"485 413 LINE",
"460 382 LINE",
"460 341 LINE"
);
}
);
width = 613;
}
);
unicode = 0046;
},
{
glyphname = G;
lastChange = "2019-01-09 15:42:40 +0000";
layers = (
{
background = {
paths = (
{
closed = 1;
nodes = (
"718 357 LINE",
"400 357 LINE",
"400 342 LINE",
"528 310 LINE",
"528 34 LINE",
"500 28 OFFCURVE",
"473 25 OFFCURVE",
"447 25 CURVE SMOOTH",
"355 25 OFFCURVE",
"281 57 OFFCURVE",
"225 121 CURVE SMOOTH",
"169 185 OFFCURVE",
"141 268 OFFCURVE",
"141 371 CURVE SMOOTH",
"141 468 OFFCURVE",
"164 548 OFFCURVE",
"211 611 CURVE SMOOTH",
"257 674 OFFCURVE",
"318 705 OFFCURVE",
"395 705 CURVE SMOOTH",
"438 705 OFFCURVE",
"483 694 OFFCURVE",
"531 671 CURVE",
"590 544 LINE",
"606 544 LINE",
"601 707 LINE",
"575 715 LINE SMOOTH",
"534 728 OFFCURVE",
"487 734 OFFCURVE",
"435 734 CURVE SMOOTH",
"325 734 OFFCURVE",
"235 699 OFFCURVE",
"164 630 CURVE SMOOTH",
"89 557 OFFCURVE",
"52 460 OFFCURVE",
"52 337 CURVE SMOOTH",
"52 224 OFFCURVE",
"86 136 OFFCURVE",
"154 73 CURVE SMOOTH",
"217 15 OFFCURVE",
"298 -14 OFFCURVE",
"397 -14 CURVE SMOOTH",
"452 -14 OFFCURVE",
"506 -5 OFFCURVE",
"560 14 CURVE SMOOTH",
"615 33 LINE",
"615 310 LINE",
"718 342 LINE"
);
}
);
};
layerId = "4EF47A43-EA9F-416F-884D-AC541148DC09";
paths = (
{
closed = 1;
nodes = (
"641 467 LINE",
"617 467 LINE",
"539 612 LINE",
"344 658 LINE",
"225 582 LINE",
"204 353 LINE",
"274 159 LINE",
"394 65 LINE",
"540 56 LINE",
"540 243 LINE",
"664 243 LINE",
"664 73 LINE",
"536 -4 LINE",
"289 -14 LINE",
"79 139 LINE",
"30 423 LINE",
"189 661 LINE",
"446 713 LINE",
"642 654 LINE"
);
},
{
closed = 1;
nodes = (
"511 288 LINE",
"467 291 LINE",
"467 313 LINE",
"740 313 LINE",
"740 291 LINE",
"696 288 LINE",
"663 243 LINE",
"540 243 LINE"
);
}
);
width = 740;
},
{
background = {
paths = (
{
closed = 1;
nodes = (
"477 283 LINE",
"477 259 LINE",
"511 259 LINE SMOOTH",
"553 259 OFFCURVE",
"575 245 OFFCURVE",
"575 180 CURVE SMOOTH",
"575 144 LINE SMOOTH",
"575 69 OFFCURVE",
"512 12 OFFCURVE",
"412 12 CURVE SMOOTH",
"284 12 OFFCURVE",
"179 96 OFFCURVE",
"179 335 CURVE SMOOTH",
"179 564 OFFCURVE",
"275 650 OFFCURVE",
"412 650 CURVE SMOOTH",
"518 650 OFFCURVE",
"620 580 OFFCURVE",
"641 429 CURVE",
"665 429 LINE",
"665 651 LINE",
"641 651 LINE",
"639 622 OFFCURVE",
"629 593 OFFCURVE",
"621 577 CURVE",
"540 667 OFFCURVE",
"452 674 OFFCURVE",
"401 674 CURVE SMOOTH",
"196 674 OFFCURVE",
"67 514 OFFCURVE",
"67 318 CURVE SMOOTH",
"67 126 OFFCURVE",
"208 -12 OFFCURVE",
"398 -12 CURVE SMOOTH",
"524 -12 OFFCURVE",
"568 42 OFFCURVE",
"650 42 CURVE SMOOTH",
"659 42 OFFCURVE",
"665 41 OFFCURVE",
"671 40 CURVE",
"671 150 LINE SMOOTH",
"671 224 OFFCURVE",
"678 259 OFFCURVE",
"739 259 CURVE SMOOTH",
"763 259 LINE",
"763 283 LINE"
);
}
);
};
layerId = "1F3E6E29-04CF-4B88-BFE7-02FED6A7184C";
paths = (
{
closed = 1;
nodes = (
"601 460 LINE",
"587 460 LINE",
"569 606 OFFCURVE",
"455 721 OFFCURVE",
"290 676 CURVE SMOOTH",
"171 644 OFFCURVE",
"119 502 OFFCURVE",
"119 342 CURVE SMOOTH",
"119 184 OFFCURVE",
"232 41 OFFCURVE",
"384 32 CURVE SMOOTH",
"473 27 OFFCURVE",
"496 46 OFFCURVE",
"597 85 CURVE",
"597 70 LINE",
"519 23 OFFCURVE",
"459 -12 OFFCURVE",
"346 -12 CURVE SMOOTH",
"180 -12 OFFCURVE",
"35 134 OFFCURVE",
"35 329 CURVE SMOOTH",
"35 529 OFFCURVE",
"149 704 OFFCURVE",
"351 713 CURVE SMOOTH",
"439 717 OFFCURVE",
"540 692 OFFCURVE",
"597 648 CURVE"
);
},
{
closed = 1;
nodes = (
"579 261 OFFCURVE",
"526 272 OFFCURVE",
"411 284 CURVE",
"411 298 LINE",
"626 298 LINE",
"632 -12 LINE",
"618 -12 LINE",
"606 39 OFFCURVE",
"572 48 OFFCURVE",
"518 26 CURVE",
"504 48 LINE",
"596 80 OFFCURVE",
"601 137 OFFCURVE",
"591 193 CURVE SMOOTH"
);
}
);
width = 672;
},
{
associatedMasterId = "4EF47A43-EA9F-416F-884D-AC541148DC09";
layerId = "A91237C6-D241-4AFD-80C0-94CF1B0C6F96";
name = "Sep 4 18, 14:42";
paths = (
{
closed = 1;
nodes = (
"615 411 LINE",
"593 411 LINE",
"552 542 LINE",
"478 631 LINE",
"348 655 LINE",
"225 580 LINE",
"203 353 LINE",
"293 143 LINE",
"473 78 LINE",
"566 154 LINE",
"698 154 LINE",
"564 5 LINE",
"306 -14 LINE",
"97 115 LINE",
"30 418 LINE",
"178 649 LINE",
"453 700 LINE",
"625 648 LINE",
"682 539 LINE"
);
},
{
closed = 1;
nodes = (
"698 272 LINE",
"698 154 LINE",
"566 154 LINE",
"566 272 LINE"
);
},
{
closed = 1;
nodes = (
"742 312 LINE",
"742 272 LINE",
"482 272 LINE",
"482 312 LINE"
);
}
);
width = 600;
},
{
associatedMasterId = "4EF47A43-EA9F-416F-884D-AC541148DC09";
layerId = "07E22414-1563-43AC-9D57-9DC54AD94C72";
name = "Sep 4 18, 15:08";
paths = (
{
closed = 1;
nodes = (
"615 411 LINE",
"593 411 LINE",
"552 542 LINE",
"478 631 LINE",
"348 655 LINE",
"225 580 LINE",
"203 353 LINE",
"298 133 LINE",
"478 73 LINE",
"557 143 LINE",
"689 143 LINE",
"564 5 LINE",
"306 -14 LINE",
"97 115 LINE",
"30 418 LINE",
"178 649 LINE",
"453 700 LINE",
"625 648 LINE",
"682 539 LINE"
);
},
{
closed = 1;
nodes = (
"689 272 LINE",
"689 143 LINE",
"557 143 LINE",
"557 272 LINE"
);
},
{
closed = 1;
nodes = (
"733 312 LINE",
"733 272 LINE",
"482 272 LINE",
"482 312 LINE"
);
}
);
width = 742;
},
{
associatedMasterId = "4EF47A43-EA9F-416F-884D-AC541148DC09";
layerId = "894370A2-5732-41DA-A08A-82CE0F3441F0";
name = "Sep 4 18, 14:42";
paths = (
{
closed = 1;
nodes = (
"615 411 LINE",
"593 411 LINE",
"552 542 LINE",
"478 631 LINE",
"348 655 LINE",
"225 580 LINE",
"203 353 LINE",
"293 143 LINE",
"473 78 LINE",
"566 154 LINE",
"698 154 LINE",
"564 5 LINE",
"306 -14 LINE",
"97 115 LINE",
"30 418 LINE",
"178 649 LINE",
"453 700 LINE",
"625 648 LINE",
"682 539 LINE"
);
},
{
closed = 1;
nodes = (
"698 272 LINE",
"698 154 LINE",
"566 154 LINE",
"566 272 LINE"
);
},
{
closed = 1;
nodes = (
"742 312 LINE",
"742 272 LINE",
"482 272 LINE",
"482 312 LINE"
);
}
);
width = 600;
},
{
associatedMasterId = "4EF47A43-EA9F-416F-884D-AC541148DC09";
layerId = "7C251150-9F69-43D0-9A1A-2708365FCCCB";
name = "Sep 4 18, 15:08";
paths = (
{
closed = 1;
nodes = (
"615 411 LINE",
"593 411 LINE",
"552 542 LINE",
"478 631 LINE",
"348 655 LINE",
"225 580 LINE",
"203 353 LINE",
"298 133 LINE",
"478 73 LINE",
"557 143 LINE",
"689 143 LINE",
"564 5 LINE",
"306 -14 LINE",
"97 115 LINE",
"30 418 LINE",
"178 649 LINE",
"453 700 LINE",
"625 648 LINE",
"682 539 LINE"
);
},
{
closed = 1;
nodes = (
"689 272 LINE",
"689 143 LINE",
"557 143 LINE",
"557 272 LINE"
);
},
{
closed = 1;
nodes = (
"733 312 LINE",
"733 272 LINE",
"482 272 LINE",
"482 312 LINE"
);
}
);
width = 742;
},
{
associatedMasterId = "1F3E6E29-04CF-4B88-BFE7-02FED6A7184C";
background = {
paths = (
{
closed = 1;
nodes = (
"482 283 LINE",
"482 259 LINE",
"516 259 LINE SMOOTH",
"558 259 OFFCURVE",
"580 245 OFFCURVE",
"580 180 CURVE SMOOTH",
"580 144 LINE SMOOTH",
"580 69 OFFCURVE",
"517 12 OFFCURVE",
"417 12 CURVE SMOOTH",
"289 12 OFFCURVE",
"184 96 OFFCURVE",
"184 335 CURVE SMOOTH",
"184 564 OFFCURVE",
"280 650 OFFCURVE",
"417 650 CURVE SMOOTH",
"523 650 OFFCURVE",
"625 580 OFFCURVE",
"646 429 CURVE",
"670 429 LINE",
"670 651 LINE",
"646 651 LINE",
"644 622 OFFCURVE",
"634 593 OFFCURVE",
"626 577 CURVE",
"545 667 OFFCURVE",
"457 674 OFFCURVE",
"406 674 CURVE SMOOTH",
"201 674 OFFCURVE",
"72 514 OFFCURVE",
"72 318 CURVE SMOOTH",
"72 126 OFFCURVE",
"213 -12 OFFCURVE",
"403 -12 CURVE SMOOTH",
"529 -12 OFFCURVE",
"573 42 OFFCURVE",
"655 42 CURVE SMOOTH",
"664 42 OFFCURVE",
"670 41 OFFCURVE",
"676 40 CURVE",
"676 150 LINE SMOOTH",
"676 224 OFFCURVE",
"683 259 OFFCURVE",
"744 259 CURVE SMOOTH",
"768 259 LINE",
"768 283 LINE"
);
}
);
};
layerId = "0BA68BEB-49D9-4C62-B420-16CC57DA0530";
name = "Jan 6 19, 17:08";
paths = (
{
closed = 1;
nodes = (
"605 491 LINE",
"592 491 LINE",
"514 635 LINE",
"445 684 OFFCURVE",
"389 699 OFFCURVE",
"305 676 CURVE SMOOTH",
"186 644 OFFCURVE",
"136 502 OFFCURVE",
"136 342 CURVE SMOOTH",
"136 184 OFFCURVE",
"242 44 OFFCURVE",
"390 35 CURVE SMOOTH",
"463 31 OFFCURVE",
"488 32 OFFCURVE",
"537 51 CURVE",
"537 244 LINE",
"612 244 LINE",
"612 52 LINE",
"497 -7 OFFCURVE",
"445 -12 OFFCURVE",
"352 -12 CURVE SMOOTH",
"186 -12 OFFCURVE",
"50 134 OFFCURVE",
"50 329 CURVE SMOOTH",
"50 529 OFFCURVE",
"164 704 OFFCURVE",
"366 713 CURVE SMOOTH",
"454 717 OFFCURVE",
"545 692 OFFCURVE",
"602 648 CURVE"
);
},
{
closed = 1;
nodes = (
"643 264 LINE",
"703 273 LINE",
"703 289 LINE",
"451 289 LINE",
"451 274 LINE",
"504 264 LINE",
"537 244 LINE",
"612 244 LINE"
);
}
);
width = 723;
},
{
associatedMasterId = "1F3E6E29-04CF-4B88-BFE7-02FED6A7184C";
background = {
paths = (
{
closed = 1;
nodes = (
"483 283 LINE",
"483 259 LINE",
"517 259 LINE SMOOTH",
"559 259 OFFCURVE",
"581 245 OFFCURVE",
"581 180 CURVE SMOOTH",
"581 144 LINE SMOOTH",
"581 69 OFFCURVE",
"518 12 OFFCURVE",
"418 12 CURVE SMOOTH",
"290 12 OFFCURVE",
"185 96 OFFCURVE",
"185 335 CURVE SMOOTH",
"185 564 OFFCURVE",
"281 650 OFFCURVE",
"418 650 CURVE SMOOTH",
"524 650 OFFCURVE",
"626 580 OFFCURVE",
"647 429 CURVE",
"671 429 LINE",
"671 651 LINE",
"647 651 LINE",
"645 622 OFFCURVE",
"635 593 OFFCURVE",
"627 577 CURVE",
"546 667 OFFCURVE",
"458 674 OFFCURVE",
"407 674 CURVE SMOOTH",
"202 674 OFFCURVE",
"73 514 OFFCURVE",
"73 318 CURVE SMOOTH",
"73 126 OFFCURVE",
"214 -12 OFFCURVE",
"404 -12 CURVE SMOOTH",
"530 -12 OFFCURVE",
"574 42 OFFCURVE",
"656 42 CURVE SMOOTH",
"665 42 OFFCURVE",
"671 41 OFFCURVE",
"677 40 CURVE",
"677 150 LINE SMOOTH",
"677 224 OFFCURVE",
"684 259 OFFCURVE",
"745 259 CURVE SMOOTH",
"769 259 LINE",
"769 283 LINE"
);
}
);
};
layerId = "C5E17D02-20DF-4E09-96B4-5E5EB6B1310F";
name = "Jan 9 19, 15:46";
paths = (
{
closed = 1;
nodes = (
"597 480 LINE",
"583 480 LINE",
"557 612 OFFCURVE",
"461 721 OFFCURVE",
"296 676 CURVE SMOOTH",
"177 644 OFFCURVE",
"125 502 OFFCURVE",
"125 342 CURVE SMOOTH",
"125 184 OFFCURVE",
"236 41 OFFCURVE",
"381 32 CURVE SMOOTH",
"454 27 OFFCURVE",
"479 32 OFFCURVE",
"528 51 CURVE",
"528 244 LINE",
"603 244 LINE",
"603 52 LINE",
"488 -7 OFFCURVE",
"436 -12 OFFCURVE",
"343 -12 CURVE SMOOTH",
"177 -12 OFFCURVE",
"41 134 OFFCURVE",
"41 329 CURVE SMOOTH",
"41 529 OFFCURVE",
"155 704 OFFCURVE",
"357 713 CURVE SMOOTH",
"445 717 OFFCURVE",
"536 692 OFFCURVE",
"593 648 CURVE"
);
},
{
closed = 1;
nodes = (
"528 251 OFFCURVE",
"496 272 OFFCURVE",
"441 274 CURVE",
"441 288 LINE",
"688 288 LINE",
"688 274 LINE",
"633 272 OFFCURVE",
"603 251 OFFCURVE",
"603 203 CURVE",
"528 203 LINE"
);
}
);
width = 695;
}
);
unicode = 0047;
},
{
glyphname = H;
lastChange = "2019-01-09 10:35:43 +0000";
layers = (
{
background = {
paths = (
{
closed = 1;
nodes = (
"754 15 LINE",
"652 48 LINE",
"652 672 LINE",
"754 705 LINE",
"754 720 LINE",
"467 720 LINE",
"467 705 LINE",
"569 672 LINE",
"569 394 LINE",
"233 381 LINE",
"233 672 LINE",
"335 705 LINE",
"335 720 LINE",
"49 720 LINE",
"49 705 LINE",
"151 672 LINE",
"151 48 LINE",
"49 15 LINE",
"49 0 LINE",
"336 0 LINE",
"336 15 LINE",
"233 48 LINE",
"233 356 LINE",
"569 350 LINE",
"569 48 LINE",
"467 15 LINE",
"467 0 LINE",
"754 0 LINE"
);
}
);
};
layerId = "4EF47A43-EA9F-416F-884D-AC541148DC09";
paths = (
{
closed = 1;
nodes = (
"97 0 LINE",
"247 0 LINE",
"247 700 LINE",
"97 700 LINE"
);
},
{
closed = 1;
nodes = (
"555 0 LINE",
"705 0 LINE",
"705 700 LINE",
"555 700 LINE"
);
},
{
closed = 1;
nodes = (
"222 339 LINE",
"602 339 LINE",
"602 394 LINE",
"222 394 LINE"
);
},
{
closed = 1;
nodes = (
"64 25 LINE",
"20 22 LINE",
"20 0 LINE",
"324 0 LINE",
"324 22 LINE",
"280 25 LINE",
"247 70 LINE",
"97 70 LINE"
);
},
{
closed = 1;
nodes = (
"247 630 LINE",
"280 675 LINE",
"324 678 LINE",
"324 700 LINE",
"20 700 LINE",
"20 678 LINE",
"64 675 LINE",
"97 630 LINE"
);
},
{
closed = 1;
nodes = (
"522 25 LINE",
"478 22 LINE",
"478 0 LINE",
"782 0 LINE",
"782 22 LINE",
"738 25 LINE",
"705 70 LINE",
"555 70 LINE"
);
},
{
closed = 1;
nodes = (
"705 630 LINE",
"738 675 LINE",
"782 678 LINE",
"782 700 LINE",
"478 700 LINE",
"478 678 LINE",
"522 675 LINE",
"555 630 LINE"
);
}
);
width = 802;
},
{
background = {
paths = (
{
closed = 1;
nodes = (
"579 332 LINE",
"579 172 LINE SMOOTH",
"579 44 OFFCURVE",
"580 22 OFFCURVE",
"496 22 CURVE SMOOTH",
"473 22 LINE",
"473 0 LINE",
"774 0 LINE",
"774 22 LINE",
"759 22 LINE SMOOTH",
"675 22 OFFCURVE",
"675 44 OFFCURVE",
"675 172 CURVE SMOOTH",
"675 497 LINE SMOOTH",
"675 638 OFFCURVE",
"678 640 OFFCURVE",
"774 640 CURVE",
"774 662 LINE",
"473 662 LINE",
"473 640 LINE",
"491 640 LINE SMOOTH",
"578 640 OFFCURVE",
"579 631 OFFCURVE",
"579 497 CURVE SMOOTH",
"579 366 LINE",
"234 366 LINE",
"234 497 LINE SMOOTH",
"234 640 OFFCURVE",
"237 640 OFFCURVE",
"335 640 CURVE",
"335 662 LINE",
"37 662 LINE",
"37 640 LINE",
"136 640 OFFCURVE",
"138 640 OFFCURVE",
"138 497 CURVE SMOOTH",
"138 172 LINE SMOOTH",
"138 44 OFFCURVE",
"138 22 OFFCURVE",
"54 22 CURVE SMOOTH",
"37 22 LINE",
"37 0 LINE",
"335 0 LINE",
"335 22 LINE",
"318 22 LINE SMOOTH",
"234 22 OFFCURVE",
"234 44 OFFCURVE",
"234 172 CURVE SMOOTH",
"234 332 LINE"
);
}
);
};
layerId = "1F3E6E29-04CF-4B88-BFE7-02FED6A7184C";
paths = (
{
closed = 1;
nodes = (
"200 700 LINE",
"200 0 LINE",
"125 0 LINE",
"125 700 LINE"
);
},
{
closed = 1;
nodes = (
"685 700 LINE",
"685 0 LINE",
"610 0 LINE",
"610 700 LINE"
);
},
{
closed = 1;
nodes = (
"627 386 LINE",
"627 356 LINE",
"181 356 LINE",
"181 386 LINE"
);
},
{
closed = 1;
nodes = (
"200 85 LINE",
"200 27 OFFCURVE",
"230 16 OFFCURVE",
"285 14 CURVE",
"285 0 LINE",
"38 0 LINE",
"38 14 LINE",
"93 16 OFFCURVE",
"125 27 OFFCURVE",
"125 85 CURVE"
);
},
{
closed = 1;
nodes = (
"125 673 OFFCURVE",
"93 684 OFFCURVE",
"38 686 CURVE",
"38 700 LINE",
"285 700 LINE",
"285 686 LINE",
"230 684 OFFCURVE",
"200 673 OFFCURVE",
"200 615 CURVE",
"125 615 LINE"
);
},
{
closed = 1;
nodes = (
"685 85 LINE",
"685 27 OFFCURVE",
"715 16 OFFCURVE",
"770 14 CURVE",
"770 0 LINE",
"523 0 LINE",
"523 14 LINE",
"578 16 OFFCURVE",
"610 27 OFFCURVE",
"610 85 CURVE"
);
},
{
closed = 1;
nodes = (
"610 673 OFFCURVE",
"578 684 OFFCURVE",
"523 686 CURVE",
"523 700 LINE",
"770 700 LINE",
"770 686 LINE",
"715 684 OFFCURVE",
"685 673 OFFCURVE",
"685 615 CURVE",
"610 615 LINE"
);
}
);
width = 808;
}
);
unicode = 0048;
},
{
glyphname = I;
lastChange = "2019-01-09 15:37:09 +0000";
layers = (
{
anchors = (
{
name = bottom;
position = "{165, 0}";
},
{
name = ogonek;
position = "{308, 10}";
},
{
name = top;
position = "{165, 700}";
},
{
name = topleft;
position = "{6, 700}";
}
);
background = {
paths = (
{
closed = 1;
nodes = (
"322 15 LINE",
"220 48 LINE",
"220 672 LINE",
"322 705 LINE",
"322 720 LINE",
"31 720 LINE",
"31 705 LINE",
"133 672 LINE",
"133 48 LINE",
"31 15 LINE",
"31 0 LINE",
"322 0 LINE"
);
}
);
};
layerId = "4EF47A43-EA9F-416F-884D-AC541148DC09";
leftMetricsKey = "=H";
rightMetricsKey = "=H";
paths = (
{
closed = 1;
nodes = (
"97 700 LINE",
"97 0 LINE",
"247 0 LINE",
"247 700 LINE"
);
},
{
closed = 1;
nodes = (
"64 25 LINE",
"20 22 LINE",
"20 0 LINE",
"324 0 LINE",
"324 22 LINE",
"280 25 LINE",
"247 70 LINE",
"97 70 LINE"
);
},
{
closed = 1;
nodes = (
"247 630 LINE",
"280 675 LINE",
"324 678 LINE",
"324 700 LINE",
"20 700 LINE",
"20 678 LINE",
"64 675 LINE",
"97 630 LINE"
);
}
);
width = 344;
},
{
anchors = (
{
name = bottom;
position = "{167, 0}";
},
{
name = ogonek;
position = "{300, 10}";
},
{
name = top;
position = "{167, 700}";
},
{
name = topleft;
position = "{20, 700}";
}
);
background = {
paths = (
{
closed = 1;
nodes = (
"36 640 LINE",
"50 640 LINE SMOOTH",
"137 640 OFFCURVE",
"139 631 OFFCURVE",
"139 497 CURVE SMOOTH",
"139 172 LINE SMOOTH",
"139 44 OFFCURVE",
"139 22 OFFCURVE",
"55 22 CURVE SMOOTH",
"36 22 LINE",
"36 0 LINE",
"338 0 LINE",
"338 22 LINE",
"319 22 LINE SMOOTH",
"235 22 OFFCURVE",
"235 44 OFFCURVE",
"235 172 CURVE SMOOTH",
"235 497 LINE SMOOTH",
"235 632 OFFCURVE",
"237 640 OFFCURVE",
"324 640 CURVE SMOOTH",
"338 640 LINE",
"338 662 LINE",
"36 662 LINE"
);
}
);
};
layerId = "1F3E6E29-04CF-4B88-BFE7-02FED6A7184C";
paths = (
{
closed = 1;
nodes = (
"127 700 LINE",
"127 0 LINE",
"202 0 LINE",
"202 700 LINE"
);
},
{
closed = 1;
nodes = (
"127 37 OFFCURVE",
"95 16 OFFCURVE",
"40 14 CURVE",
"40 0 LINE",
"287 0 LINE",
"287 14 LINE",
"232 16 OFFCURVE",
"202 37 OFFCURVE",
"202 85 CURVE",
"127 85 LINE"
);
},
{
closed = 1;
nodes = (
"202 615 LINE",
"202 663 OFFCURVE",
"232 684 OFFCURVE",
"287 686 CURVE",
"287 700 LINE",
"40 700 LINE",
"40 686 LINE",
"95 684 OFFCURVE",
"127 663 OFFCURVE",
"127 615 CURVE"
);
}
);
width = 327;
}
);
unicode = 0049;
},
{
glyphname = J;
lastChange = "2019-01-09 15:36:24 +0000";
layers = (
{
background = {
paths = (
{
closed = 1;
nodes = (
"248 720 LINE",
"-62 720 LINE",
"-62 705 LINE",
"59 673 LINE",
"59 -36 LINE SMOOTH",
"59 -54 OFFCURVE",
"53 -71 OFFCURVE",
"41 -87 CURVE",
"32 -98 OFFCURVE",
"23 -106 OFFCURVE",
"14 -110 CURVE",
"-59 -80 LINE SMOOTH",
"-77 -73 OFFCURVE",
"-92 -69 OFFCURVE",
"-104 -69 CURVE SMOOTH",
"-125 -69 OFFCURVE",
"-135 -79 OFFCURVE",
"-135 -99 CURVE SMOOTH",
"-135 -129 OFFCURVE",
"-107 -144 OFFCURVE",
"-51 -144 CURVE SMOOTH",
"-2 -144 OFFCURVE",
"41 -130 OFFCURVE",
"78 -103 CURVE SMOOTH",
"123 -70 OFFCURVE",
"146 -24 OFFCURVE",
"146 35 CURVE SMOOTH",
"146 672 LINE",
"248 705 LINE"
);
}
);
};
layerId = "4EF47A43-EA9F-416F-884D-AC541148DC09";
paths = (
{
closed = 1;
nodes = (
"112 -66 LINE",
"-40 -61 LINE",
"-40 -190 LINE",
"95 -177 LINE",
"276 143 LINE",
"276 645 LINE",
"126 645 LINE",
"126 90 LINE"
);
},
{
closed = 1;
nodes = (
"309 675 LINE",
"353 678 LINE",
"353 700 LINE",
"18 700 LINE",
"18 678 LINE",
"93 675 LINE",
"126 630 LINE",
"276 630 LINE"
);
}
);
width = 368;
},
{
background = {
paths = (
{
closed = 1;
nodes = (
"-13 662 LINE",
"-13 640 LINE",
"3 640 LINE SMOOTH",
"91 640 OFFCURVE",
"93 631 OFFCURVE",
"93 497 CURVE SMOOTH",
"93 64 LINE SMOOTH",
"93 -27 OFFCURVE",
"93 -79 OFFCURVE",
"77 -119 CURVE SMOOTH",
"48 -194 OFFCURVE",
"-11 -212 OFFCURVE",
"-55 -212 CURVE SMOOTH",
"-83 -212 OFFCURVE",
"-120 -205 OFFCURVE",
"-120 -180 CURVE SMOOTH",
"-120 -165 OFFCURVE",
"-108 -160 OFFCURVE",
"-108 -137 CURVE SMOOTH",
"-108 -111 OFFCURVE",
"-129 -89 OFFCURVE",
"-159 -89 CURVE SMOOTH",
"-187 -89 OFFCURVE",
"-208 -112 OFFCURVE",
"-208 -142 CURVE SMOOTH",
"-208 -179 OFFCURVE",
"-173 -236 OFFCURVE",
"-52 -236 CURVE SMOOTH",
"12 -236 OFFCURVE",
"97 -220 OFFCURVE",
"148 -147 CURVE SMOOTH",
"189 -88 OFFCURVE",
"189 -28 OFFCURVE",
"189 65 CURVE SMOOTH",
"189 497 LINE SMOOTH",
"189 632 OFFCURVE",
"192 640 OFFCURVE",
"279 640 CURVE SMOOTH",
"295 640 LINE",
"295 662 LINE"
);
}
);
};
layerId = "1F3E6E29-04CF-4B88-BFE7-02FED6A7184C";
paths = (
{
closed = 1;
nodes = (
"236 655 LINE",
"161 655 LINE",
"161 132 LINE SMOOTH",
"161 54 OFFCURVE",
"139 -87 OFFCURVE",
"81 -87 CURVE SMOOTH",
"42 -87 OFFCURVE",
"20 -73 OFFCURVE",
"5 27 CURVE",
"-5 27 LINE",
"-5 -88 OFFCURVE",
"-12 -148 OFFCURVE",
"34 -148 CURVE SMOOTH",
"107 -148 OFFCURVE",
"236 -38 OFFCURVE",
"236 169 CURVE SMOOTH"
);
},
{
closed = 1;
nodes = (
"236 615 LINE",
"236 663 OFFCURVE",
"266 684 OFFCURVE",
"321 686 CURVE",
"321 700 LINE",
"74 700 LINE",
"74 686 LINE",
"129 684 OFFCURVE",
"161 663 OFFCURVE",
"161 615 CURVE"
);
}
);
width = 366;
},
{
associatedMasterId = "4EF47A43-EA9F-416F-884D-AC541148DC09";
layerId = "66A041CA-59E2-4FA7-8788-44346284EAC0";
name = "Sep 4 18, 23:22";
paths = (
{
closed = 1;
nodes = (
"233 -19 LINE",
"233 -53 LINE",
"172 -108 LINE",
"31 -53 LINE",
"31 -168 LINE",
"186 -161 LINE",
"253 -157 LINE",
"308 -106 LINE",
"380 -19 LINE",
"380 700 LINE",
"233 700 LINE"
);
},
{
closed = 1;
nodes = (
"412 675 LINE",
"441 678 LINE",
"441 700 LINE",
"172 700 LINE",
"172 678 LINE",
"201 675 LINE",
"233 645 LINE",
"380 645 LINE"
);
}
);
width = 600;
},
{
associatedMasterId = "4EF47A43-EA9F-416F-884D-AC541148DC09";
layerId = "902BAFA5-DD3C-45E9-8CC2-A3709383CEB7";
name = "Sep 4 18, 23:22";
paths = (
{
closed = 1;
nodes = (
"233 -19 LINE",
"233 -53 LINE",
"172 -108 LINE",
"31 -53 LINE",
"31 -168 LINE",
"186 -161 LINE",
"253 -157 LINE",
"308 -106 LINE",
"380 -19 LINE",
"380 700 LINE",
"233 700 LINE"
);
},
{
closed = 1;
nodes = (
"412 675 LINE",
"441 678 LINE",
"441 700 LINE",
"172 700 LINE",
"172 678 LINE",
"201 675 LINE",
"233 645 LINE",
"380 645 LINE"
);
}
);
width = 600;
}
);
unicode = 004A;
},
{
color = 0;
glyphname = K;
lastChange = "2019-01-11 17:02:07 +0000";
layers = (
{
background = {
paths = (
{
closed = 1;
nodes = (
"714 15 LINE",
"600 48 LINE",
"344 410 LINE",
"572 672 LINE",
"674 705 LINE",
"674 720 LINE",
"406 720 LINE",
"406 705 LINE",
"507 672 LINE",
"277 371 LINE",
"382 218 LINE",
"486 48 LINE",
"391 15 LINE",
"391 0 LINE",
"714 0 LINE"
);
},
{
closed = 1;
nodes = (
"316 15 LINE",
"224 48 LINE",
"224 672 LINE",
"316 705 LINE",
"316 720 LINE",
"35 720 LINE",
"35 705 LINE",
"137 672 LINE",
"137 48 LINE",
"35 15 LINE",
"35 0 LINE",
"316 0 LINE"
);
}
);
};
layerId = "4EF47A43-EA9F-416F-884D-AC541148DC09";
paths = (
{
closed = 1;
nodes = (
"98 0 LINE",
"248 0 LINE",
"248 700 LINE",
"98 700 LINE"
);
},
{
closed = 1;
nodes = (
"64 25 LINE",
"20 22 LINE",
"20 0 LINE",
"325 0 LINE",
"325 22 LINE",
"281 25 LINE",
"248 70 LINE",
"98 70 LINE"
);
},
{
closed = 1;
nodes = (
"248 630 LINE",
"281 675 LINE",
"325 678 LINE",
"325 700 LINE",
"20 700 LINE",
"20 678 LINE",
"64 675 LINE",
"97 630 LINE"
);
},
{
closed = 1;
nodes = (
"261 370 LINE",
"453 37 LINE",
"572 0 LINE",
"740 0 LINE",
"740 22 LINE",
"696 25 LINE",
"645 70 LINE",
"396 370 LINE"
);
},
{
closed = 1;
nodes = (
"261 370 LINE",
"289 334 LINE",
"621 648 LINE",
"573 689 LINE"
);
},
{
closed = 1;
nodes = (
"614 642 LINE",
"662 675 LINE",
"706 678 LINE",
"706 700 LINE",
"409 700 LINE",
"409 678 LINE",
"453 675 LINE",
"453 566 LINE"
);
}
);
width = 730;
},
{
associatedMasterId = "4EF47A43-EA9F-416F-884D-AC541148DC09";
layerId = "460BEE0E-37A0-4CBA-ABE1-D8CDF445D387";
name = "Sep 3 18, 22:25";
paths = (
{
closed = 1;
nodes = (
"108 0 LINE",
"258 0 LINE",
"258 700 LINE",
"108 700 LINE"
);
},
{
closed = 1;
nodes = (
"74 25 LINE",
"30 22 LINE",
"30 0 LINE",
"335 0 LINE",
"335 22 LINE",
"291 25 LINE",
"258 70 LINE",
"107 70 LINE"
);
},
{
closed = 1;
nodes = (
"258 630 LINE",
"291 675 LINE",
"335 678 LINE",
"335 700 LINE",
"30 700 LINE",
"30 678 LINE",
"74 675 LINE",
"107 630 LINE"
);
},
{
closed = 1;
nodes = (
"292 353 LINE",
"463 1 LINE",
"700 0 LINE",
"700 22 LINE",
"656 25 LINE",
"605 70 LINE",
"442 340 LINE"
);
},
{
closed = 1;
nodes = (
"292 391 LINE",
"292 352 LINE",
"586 645 LINE",
"545 683 LINE"
);
},
{
closed = 1;
nodes = (
"585 642 LINE",
"633 675 LINE",
"677 678 LINE",
"677 700 LINE",
"434 700 LINE",
"434 678 LINE",
"478 675 LINE",
"478 566 LINE"
);
}
);
width = 695;
},
{
associatedMasterId = "4EF47A43-EA9F-416F-884D-AC541148DC09";
layerId = "C3301C36-B476-4EE0-8FC5-20884AF3C54D";
name = "Sep 3 18, 22:25";
paths = (
{
closed = 1;
nodes = (
"108 0 LINE",
"258 0 LINE",
"258 700 LINE",
"108 700 LINE"
);
},
{
closed = 1;
nodes = (
"74 25 LINE",
"30 22 LINE",
"30 0 LINE",
"335 0 LINE",
"335 22 LINE",
"291 25 LINE",
"258 70 LINE",
"107 70 LINE"
);
},
{
closed = 1;
nodes = (
"258 630 LINE",
"291 675 LINE",
"335 678 LINE",
"335 700 LINE",
"30 700 LINE",
"30 678 LINE",
"74 675 LINE",
"107 630 LINE"
);
},
{
closed = 1;
nodes = (
"292 353 LINE",
"463 1 LINE",
"700 0 LINE",
"700 22 LINE",
"656 25 LINE",
"605 70 LINE",
"442 340 LINE"
);
},
{
closed = 1;
nodes = (
"292 391 LINE",
"292 352 LINE",
"586 645 LINE",
"545 683 LINE"
);
},
{
closed = 1;
nodes = (
"585 642 LINE",
"633 675 LINE",
"677 678 LINE",
"677 700 LINE",
"434 700 LINE",
"434 678 LINE",
"478 675 LINE",
"478 566 LINE"
);
}
);
width = 695;
},
{
associatedMasterId = "4EF47A43-EA9F-416F-884D-AC541148DC09";
background = {
paths = (
{
closed = 1;
nodes = (
"714 15 LINE",
"600 48 LINE",
"344 410 LINE",
"572 672 LINE",
"674 705 LINE",
"674 720 LINE",
"406 720 LINE",
"406 705 LINE",
"507 672 LINE",
"277 371 LINE",
"382 218 LINE",
"486 48 LINE",
"391 15 LINE",
"391 0 LINE",
"714 0 LINE"
);
},
{
closed = 1;
nodes = (
"316 15 LINE",
"224 48 LINE",
"224 672 LINE",
"316 705 LINE",
"316 720 LINE",
"35 720 LINE",
"35 705 LINE",
"137 672 LINE",
"137 48 LINE",
"35 15 LINE",
"35 0 LINE",
"316 0 LINE"
);
}
);
};
layerId = "202192BE-E8FD-48AB-A42D-A7B299841006";
name = "Jan 4 19, 11:11";
paths = (
{
closed = 1;
nodes = (
"98 0 LINE",
"248 0 LINE",
"248 700 LINE",
"98 700 LINE"
);
},
{
closed = 1;
nodes = (
"64 25 LINE",
"20 22 LINE",
"20 0 LINE",
"325 0 LINE",
"325 22 LINE",
"281 25 LINE",
"248 70 LINE",
"98 70 LINE"
);
},
{
closed = 1;
nodes = (
"248 630 LINE",
"281 675 LINE",
"325 678 LINE",
"325 700 LINE",
"20 700 LINE",
"20 678 LINE",
"64 675 LINE",
"97 630 LINE"
);
},
{
closed = 1;
nodes = (
"261 370 LINE",
"425 73 LINE",
"576 0 LINE",
"734 0 LINE",
"734 22 LINE",
"690 25 LINE",
"639 70 LINE",
"414 370 LINE"
);
},
{
closed = 1;
nodes = (
"261 370 LINE",
"289 334 LINE",
"626 648 LINE",
"578 689 LINE"
);
},
{
closed = 1;
nodes = (
"619 642 LINE",
"667 675 LINE",
"711 678 LINE",
"711 700 LINE",
"414 700 LINE",
"414 678 LINE",
"458 675 LINE",
"458 566 LINE"
);
}
);
width = 744;
},
{
associatedMasterId = "4EF47A43-EA9F-416F-884D-AC541148DC09";
background = {
paths = (
{
closed = 1;
nodes = (
"714 15 LINE",
"600 48 LINE",
"344 410 LINE",
"572 672 LINE",
"674 705 LINE",
"674 720 LINE",
"406 720 LINE",
"406 705 LINE",
"507 672 LINE",
"277 371 LINE",
"382 218 LINE",
"486 48 LINE",
"391 15 LINE",
"391 0 LINE",
"714 0 LINE"
);
},
{
closed = 1;
nodes = (
"316 15 LINE",
"224 48 LINE",
"224 672 LINE",
"316 705 LINE",
"316 720 LINE",
"35 720 LINE",
"35 705 LINE",
"137 672 LINE",
"137 48 LINE",
"35 15 LINE",
"35 0 LINE",
"316 0 LINE"
);
}
);
};
layerId = "AEB8FE9D-D3D5-40A7-9B82-ED3D040C1238";
name = "Jan 4 19, 11:12";
paths = (
{
closed = 1;
nodes = (
"98 0 LINE",
"248 0 LINE",
"248 700 LINE",
"98 700 LINE"
);
},
{
closed = 1;
nodes = (
"64 25 LINE",
"20 22 LINE",
"20 0 LINE",
"325 0 LINE",
"325 22 LINE",
"281 25 LINE",
"248 70 LINE",
"98 70 LINE"
);
},
{
closed = 1;
nodes = (
"248 630 LINE",
"281 675 LINE",
"325 678 LINE",
"325 700 LINE",
"20 700 LINE",
"20 678 LINE",
"64 675 LINE",
"97 630 LINE"
);
},
{
closed = 1;
nodes = (
"261 370 LINE",
"453 37 LINE",
"572 0 LINE",
"740 0 LINE",
"740 22 LINE",
"696 25 LINE",
"645 70 LINE",
"396 370 LINE"
);
},
{
closed = 1;
nodes = (
"261 370 LINE",
"289 334 LINE",
"621 648 LINE",
"573 689 LINE"
);
},
{
closed = 1;
nodes = (
"614 642 LINE",
"662 675 LINE",
"706 678 LINE",
"706 700 LINE",
"409 700 LINE",
"409 678 LINE",
"453 675 LINE",
"453 566 LINE"
);
},
{
closed = 1;
nodes = (
"233 334 LINE",
"303 334 LINE",
"303 370 LINE",
"233 370 LINE"
);
}
);
width = 744;
},
{
associatedMasterId = "1F3E6E29-04CF-4B88-BFE7-02FED6A7184C";
background = {
paths = (
{
closed = 1;
nodes = (
"238 325 LINE",
"238 497 LINE SMOOTH",
"238 640 OFFCURVE",
"241 640 OFFCURVE",
"340 640 CURVE",
"340 662 LINE",
"47 662 LINE",
"47 640 LINE",
"140 640 OFFCURVE",
"142 636 OFFCURVE",
"142 497 CURVE SMOOTH",
"142 172 LINE SMOOTH",
"142 44 OFFCURVE",
"143 22 OFFCURVE",
"59 22 CURVE SMOOTH",
"38 22 LINE",
"38 0 LINE",
"336 0 LINE",
"336 22 LINE",
"238 22 OFFCURVE",
"238 36 OFFCURVE",
"238 172 CURVE SMOOTH",
"238 293 LINE",
"286 335 LINE",
"475 144 LINE SMOOTH",
"499 120 OFFCURVE",
"543 75 OFFCURVE",
"543 55 CURVE SMOOTH",
"543 22 OFFCURVE",
"499 22 OFFCURVE",
"447 22 CURVE",
"447 0 LINE",
"791 0 LINE",
"791 22 LINE",
"725 22 OFFCURVE",
"692 55 OFFCURVE",
"650 97 CURVE SMOOTH",
"354 396 LINE",
"528 556 LINE SMOOTH",
"621 642 OFFCURVE",
"664 639 OFFCURVE",
"690 640 CURVE",
"690 662 LINE",
"441 662 LINE",
"441 640 LINE",
"462 639 OFFCURVE",
"511 638 OFFCURVE",
"511 597 CURVE SMOOTH",
"511 570 OFFCURVE",
"474 537 OFFCURVE",
"445 511 CURVE SMOOTH"
);
}
);
};
layerId = "1DD13091-D713-4FF0-918F-10A5DAFA0A07";
name = "Jan 6 19, 18:22";
paths = (
{
closed = 1;
nodes = (
"126 0 LINE",
"201 0 LINE",
"201 700 LINE",
"126 700 LINE"
);
},
{
closed = 1;
nodes = (
"214 368 LINE",
"238 341 LINE",
"586 655 LINE",
"546 689 LINE"
);
},
{
closed = 1;
nodes = (
"578 0 LINE",
"716 0 LINE",
"716 16 LINE",
"656 25 LINE",
"602 60 LINE",
"578 60 LINE"
);
},
{
closed = 1;
nodes = (
"586 655 LINE",
"617 675 LINE",
"677 684 LINE",
"677 700 LINE",
"425 700 LINE",
"425 685 LINE",
"478 675 LINE",
"478 621 LINE"
);
},
{
closed = 1;
nodes = (
"245 398 LINE",
"214 368 LINE",
"501 45 LINE",
"575 0 LINE",
"665 0 LINE"
);
},
{
closed = 1;
nodes = (
"126 37 OFFCURVE",
"94 16 OFFCURVE",
"39 14 CURVE",
"39 0 LINE",
"286 0 LINE",
"286 14 LINE",
"231 16 OFFCURVE",
"201 37 OFFCURVE",
"201 85 CURVE",
"126 85 LINE"
);
},
{
closed = 1;
nodes = (
"201 615 LINE",
"201 663 OFFCURVE",
"231 684 OFFCURVE",
"286 686 CURVE",
"286 700 LINE",
"39 700 LINE",
"39 686 LINE",
"94 684 OFFCURVE",
"126 663 OFFCURVE",
"126 615 CURVE"
);
}
);
width = 726;
},
{
associatedMasterId = "1F3E6E29-04CF-4B88-BFE7-02FED6A7184C";
background = {
paths = (
{
closed = 1;
nodes = (
"238 325 LINE",
"238 497 LINE SMOOTH",
"238 640 OFFCURVE",
"241 640 OFFCURVE",
"340 640 CURVE",
"340 662 LINE",
"47 662 LINE",
"47 640 LINE",
"140 640 OFFCURVE",
"142 636 OFFCURVE",
"142 497 CURVE SMOOTH",
"142 172 LINE SMOOTH",
"142 44 OFFCURVE",
"143 22 OFFCURVE",
"59 22 CURVE SMOOTH",
"38 22 LINE",
"38 0 LINE",
"336 0 LINE",
"336 22 LINE",
"238 22 OFFCURVE",
"238 36 OFFCURVE",
"238 172 CURVE SMOOTH",
"238 293 LINE",
"286 335 LINE",
"475 144 LINE SMOOTH",
"499 120 OFFCURVE",
"543 75 OFFCURVE",
"543 55 CURVE SMOOTH",
"543 22 OFFCURVE",
"499 22 OFFCURVE",
"447 22 CURVE",
"447 0 LINE",
"791 0 LINE",
"791 22 LINE",
"725 22 OFFCURVE",
"692 55 OFFCURVE",
"650 97 CURVE SMOOTH",
"354 396 LINE",
"528 556 LINE SMOOTH",
"621 642 OFFCURVE",
"664 639 OFFCURVE",
"690 640 CURVE",
"690 662 LINE",
"441 662 LINE",
"441 640 LINE",
"462 639 OFFCURVE",
"511 638 OFFCURVE",
"511 597 CURVE SMOOTH",
"511 570 OFFCURVE",
"474 537 OFFCURVE",
"445 511 CURVE SMOOTH"
);
}
);
};
layerId = "3FE95B5A-437B-4BBE-8073-8B0213E73463";
name = "Jan 6 19, 18:24";
paths = (
{
closed = 1;
nodes = (
"126 0 LINE",
"201 0 LINE",
"201 700 LINE",
"126 700 LINE"
);
},
{
closed = 1;
nodes = (
"177 314 LINE",
"201 287 LINE",
"586 655 LINE",
"546 689 LINE"
);
},
{
closed = 1;
nodes = (
"586 655 LINE",
"617 675 LINE",
"677 684 LINE",
"677 700 LINE",
"425 700 LINE",
"425 685 LINE",
"478 675 LINE",
"478 621 LINE"
);
},
{
closed = 1;
nodes = (
"126 37 OFFCURVE",
"94 16 OFFCURVE",
"39 14 CURVE",
"39 0 LINE",
"286 0 LINE",
"286 14 LINE",
"231 16 OFFCURVE",
"201 37 OFFCURVE",
"201 85 CURVE",
"126 85 LINE"
);
},
{
closed = 1;
nodes = (
"201 615 LINE",
"201 663 OFFCURVE",
"231 684 OFFCURVE",
"286 686 CURVE",
"286 700 LINE",
"39 700 LINE",
"39 686 LINE",
"94 684 OFFCURVE",
"126 663 OFFCURVE",
"126 615 CURVE"
);
},
{
closed = 1;
nodes = (
"427 251 OFFCURVE",
"375 341 OFFCURVE",
"358 341 CURVE SMOOTH",
"309 341 OFFCURVE",
"246 351 OFFCURVE",
"233 371 CURVE",
"202 338 LINE",
"207 332 OFFCURVE",
"204 358 OFFCURVE",
"286 341 CURVE SMOOTH",
"375 323 OFFCURVE",
"393 131 OFFCURVE",
"472 41 CURVE SMOOTH",
"509 0 OFFCURVE",
"561 0 OFFCURVE",
"674 0 CURVE",
"674 16 LINE",
"625 17 OFFCURVE",
"571 32 OFFCURVE",
"517 114 CURVE SMOOTH"
);
}
);
width = 726;
},
{
associatedMasterId = "1F3E6E29-04CF-4B88-BFE7-02FED6A7184C";
background = {
paths = (
{
closed = 1;
nodes = (
"238 325 LINE",
"238 497 LINE SMOOTH",
"238 640 OFFCURVE",
"241 640 OFFCURVE",
"340 640 CURVE",
"340 662 LINE",
"47 662 LINE",
"47 640 LINE",
"140 640 OFFCURVE",
"142 636 OFFCURVE",
"142 497 CURVE SMOOTH",
"142 172 LINE SMOOTH",
"142 44 OFFCURVE",
"143 22 OFFCURVE",
"59 22 CURVE SMOOTH",
"38 22 LINE",
"38 0 LINE",
"336 0 LINE",
"336 22 LINE",
"238 22 OFFCURVE",
"238 36 OFFCURVE",
"238 172 CURVE SMOOTH",
"238 293 LINE",
"286 335 LINE",
"475 144 LINE SMOOTH",
"499 120 OFFCURVE",
"543 75 OFFCURVE",
"543 55 CURVE SMOOTH",
"543 22 OFFCURVE",
"499 22 OFFCURVE",
"447 22 CURVE",
"447 0 LINE",
"791 0 LINE",
"791 22 LINE",
"725 22 OFFCURVE",
"692 55 OFFCURVE",
"650 97 CURVE SMOOTH",
"354 396 LINE",
"528 556 LINE SMOOTH",
"621 642 OFFCURVE",
"664 639 OFFCURVE",
"690 640 CURVE",
"690 662 LINE",
"441 662 LINE",
"441 640 LINE",
"462 639 OFFCURVE",
"511 638 OFFCURVE",
"511 597 CURVE SMOOTH",
"511 570 OFFCURVE",
"474 537 OFFCURVE",
"445 511 CURVE SMOOTH"
);
}
);
};
layerId = "8A4B31F0-060E-4F30-94A6-AF9A827A4E84";
name = "Jan 6 19, 18:27";
paths = (
{
closed = 1;
nodes = (
"126 0 LINE",
"201 0 LINE",
"201 700 LINE",
"126 700 LINE"
);
},
{
closed = 1;
nodes = (
"173 304 LINE",
"201 287 LINE",
"586 655 LINE",
"586 689 LINE"
);
},
{
closed = 1;
nodes = (
"126 37 OFFCURVE",
"94 16 OFFCURVE",
"39 14 CURVE",
"39 0 LINE",
"286 0 LINE",
"286 14 LINE",
"231 16 OFFCURVE",
"201 37 OFFCURVE",
"201 85 CURVE",
"126 85 LINE"
);
},
{
closed = 1;
nodes = (
"201 615 LINE",
"201 663 OFFCURVE",
"231 684 OFFCURVE",
"286 686 CURVE",
"286 700 LINE",
"39 700 LINE",
"39 686 LINE",
"94 684 OFFCURVE",
"126 663 OFFCURVE",
"126 615 CURVE"
);
},
{
closed = 1;
nodes = (
"447 251 OFFCURVE",
"403 390 OFFCURVE",
"338 390 CURVE SMOOTH",
"290 390 OFFCURVE",
"278 377 OFFCURVE",
"234 357 CURVE",
"249 338 LINE",
"254 332 OFFCURVE",
"223 371 OFFCURVE",
"306 371 CURVE SMOOTH",
"395 371 OFFCURVE",
"414 132 OFFCURVE",
"492 41 CURVE SMOOTH",
"528 -1 OFFCURVE",
"581 0 OFFCURVE",
"694 0 CURVE",
"694 16 LINE",
"645 17 OFFCURVE",
"591 32 OFFCURVE",
"537 114 CURVE SMOOTH"
);
},
{
closed = 1;
nodes = (
"498 571 LINE",
"530 594 OFFCURVE",
"609 685 OFFCURVE",
"680 686 CURVE",
"680 700 LINE",
"463 700 LINE",
"463 686 LINE",
"529 684 OFFCURVE",
"538 640 OFFCURVE",
"478 589 CURVE"
);
}
);
width = 736;
},
{
associatedMasterId = "1F3E6E29-04CF-4B88-BFE7-02FED6A7184C";
background = {
paths = (
{
closed = 1;
nodes = (
"238 325 LINE",
"238 497 LINE SMOOTH",
"238 640 OFFCURVE",
"241 640 OFFCURVE",
"340 640 CURVE",
"340 662 LINE",
"47 662 LINE",
"47 640 LINE",
"140 640 OFFCURVE",
"142 636 OFFCURVE",
"142 497 CURVE SMOOTH",
"142 172 LINE SMOOTH",
"142 44 OFFCURVE",
"143 22 OFFCURVE",
"59 22 CURVE SMOOTH",
"38 22 LINE",
"38 0 LINE",
"336 0 LINE",
"336 22 LINE",
"238 22 OFFCURVE",
"238 36 OFFCURVE",
"238 172 CURVE SMOOTH",
"238 293 LINE",
"286 335 LINE",
"475 144 LINE SMOOTH",
"499 120 OFFCURVE",
"543 75 OFFCURVE",
"543 55 CURVE SMOOTH",
"543 22 OFFCURVE",
"499 22 OFFCURVE",
"447 22 CURVE",
"447 0 LINE",
"791 0 LINE",
"791 22 LINE",
"725 22 OFFCURVE",
"692 55 OFFCURVE",
"650 97 CURVE SMOOTH",
"354 396 LINE",
"528 556 LINE SMOOTH",
"621 642 OFFCURVE",
"664 639 OFFCURVE",
"690 640 CURVE",
"690 662 LINE",
"441 662 LINE",
"441 640 LINE",
"462 639 OFFCURVE",
"511 638 OFFCURVE",
"511 597 CURVE SMOOTH",
"511 570 OFFCURVE",
"474 537 OFFCURVE",
"445 511 CURVE SMOOTH"
);
}
);
};
layerId = "E18E224A-259A-4715-BF39-965F95C4DA45";
name = "Jan 9 19, 15:23";
paths = (
{
closed = 1;
nodes = (
"126 0 LINE",
"201 0 LINE",
"201 700 LINE",
"126 700 LINE"
);
},
{
closed = 1;
nodes = (
"178 304 LINE",
"201 287 LINE",
"579 655 LINE",
"572 689 LINE"
);
},
{
closed = 1;
nodes = (
"126 37 OFFCURVE",
"94 16 OFFCURVE",
"39 14 CURVE",
"39 0 LINE",
"286 0 LINE",
"286 14 LINE",
"231 16 OFFCURVE",
"201 37 OFFCURVE",
"201 85 CURVE",
"126 85 LINE"
);
},
{
closed = 1;
nodes = (
"201 615 LINE",
"201 663 OFFCURVE",
"231 684 OFFCURVE",
"286 686 CURVE",
"286 700 LINE",
"39 700 LINE",
"39 686 LINE",
"94 684 OFFCURVE",
"126 663 OFFCURVE",
"126 615 CURVE"
);
},
{
closed = 1;
nodes = (
"491 571 LINE",
"523 594 OFFCURVE",
"602 685 OFFCURVE",
"673 686 CURVE",
"673 700 LINE",
"449 700 LINE",
"449 686 LINE",
"525 684 OFFCURVE",
"522 640 OFFCURVE",
"469 589 CURVE"
);
},
{
closed = 1;
nodes = (
"383 338 OFFCURVE",
"368 338 CURVE SMOOTH",
"325 338 OFFCURVE",
"307 369 OFFCURVE",
"295 387 CURVE",
"273 378 LINE",
"325 317 OFFCURVE",
"419 124 OFFCURVE",
"496 36 CURVE SMOOTH",
"528 0 OFFCURVE",
"574 0 OFFCURVE",
"674 0 CURVE",
"674 14 LINE",
"631 15 OFFCURVE",
"583 28 OFFCURVE",
"535 101 CURVE SMOOTH",
"456 222 OFFCURVE"
);
}
);
width = 736;
},
{
associatedMasterId = "1F3E6E29-04CF-4B88-BFE7-02FED6A7184C";
background = {
paths = (
{
closed = 1;
nodes = (
"238 325 LINE",
"238 497 LINE SMOOTH",
"238 640 OFFCURVE",
"241 640 OFFCURVE",
"340 640 CURVE",
"340 662 LINE",
"47 662 LINE",
"47 640 LINE",
"140 640 OFFCURVE",
"142 636 OFFCURVE",
"142 497 CURVE SMOOTH",
"142 172 LINE SMOOTH",
"142 44 OFFCURVE",
"143 22 OFFCURVE",
"59 22 CURVE SMOOTH",
"38 22 LINE",
"38 0 LINE",
"336 0 LINE",
"336 22 LINE",
"238 22 OFFCURVE",
"238 36 OFFCURVE",
"238 172 CURVE SMOOTH",
"238 293 LINE",
"286 335 LINE",
"475 144 LINE SMOOTH",
"499 120 OFFCURVE",
"543 75 OFFCURVE",
"543 55 CURVE SMOOTH",
"543 22 OFFCURVE",
"499 22 OFFCURVE",
"447 22 CURVE",
"447 0 LINE",
"791 0 LINE",
"791 22 LINE",
"725 22 OFFCURVE",
"692 55 OFFCURVE",
"650 97 CURVE SMOOTH",
"354 396 LINE",
"528 556 LINE SMOOTH",
"621 642 OFFCURVE",
"664 639 OFFCURVE",
"690 640 CURVE",
"690 662 LINE",
"441 662 LINE",
"441 640 LINE",
"462 639 OFFCURVE",
"511 638 OFFCURVE",
"511 597 CURVE SMOOTH",
"511 570 OFFCURVE",
"474 537 OFFCURVE",
"445 511 CURVE SMOOTH"
);
}
);
};
layerId = "CEF3D607-8617-4AE9-BA35-B1CBAC1EF92F";
name = "Jan 9 19, 15:24";
paths = (
{
closed = 1;
nodes = (
"126 0 LINE",
"201 0 LINE",
"201 700 LINE",
"126 700 LINE"
);
},
{
closed = 1;
nodes = (
"178 304 LINE",
"201 287 LINE",
"579 655 LINE",
"572 689 LINE"
);
},
{
closed = 1;
nodes = (
"126 37 OFFCURVE",
"94 16 OFFCURVE",
"39 14 CURVE",
"39 0 LINE",
"286 0 LINE",
"286 14 LINE",
"231 16 OFFCURVE",
"201 37 OFFCURVE",
"201 85 CURVE",
"126 85 LINE"
);
},
{
closed = 1;
nodes = (
"201 615 LINE",
"201 663 OFFCURVE",
"231 684 OFFCURVE",
"286 686 CURVE",
"286 700 LINE",
"39 700 LINE",
"39 686 LINE",
"94 684 OFFCURVE",
"126 663 OFFCURVE",
"126 615 CURVE"
);
},
{
closed = 1;
nodes = (
"491 571 LINE",
"523 594 OFFCURVE",
"602 685 OFFCURVE",
"673 686 CURVE",
"673 700 LINE",
"449 700 LINE",
"449 686 LINE",
"525 684 OFFCURVE",
"522 640 OFFCURVE",
"469 589 CURVE"
);
},
{
closed = 1;
nodes = (
"383 338 OFFCURVE",
"368 338 CURVE SMOOTH",
"325 338 OFFCURVE",
"307 369 OFFCURVE",
"295 387 CURVE",
"273 378 LINE",
"325 317 OFFCURVE",
"419 124 OFFCURVE",
"496 36 CURVE SMOOTH",
"528 0 OFFCURVE",
"574 0 OFFCURVE",
"674 0 CURVE",
"674 14 LINE",
"631 15 OFFCURVE",
"583 28 OFFCURVE",
"535 101 CURVE SMOOTH",
"456 222 OFFCURVE"
);
}
);
width = 736;
},
{
background = {
paths = (
{
closed = 1;
nodes = (
"237 325 LINE",
"237 497 LINE SMOOTH",
"237 640 OFFCURVE",
"240 640 OFFCURVE",
"339 640 CURVE",
"339 662 LINE",
"46 662 LINE",
"46 640 LINE",
"139 640 OFFCURVE",
"141 636 OFFCURVE",
"141 497 CURVE SMOOTH",
"141 172 LINE SMOOTH",
"141 44 OFFCURVE",
"142 22 OFFCURVE",
"58 22 CURVE SMOOTH",
"37 22 LINE",
"37 0 LINE",
"335 0 LINE",
"335 22 LINE",
"237 22 OFFCURVE",
"237 36 OFFCURVE",
"237 172 CURVE SMOOTH",
"237 293 LINE",
"285 335 LINE",
"474 144 LINE SMOOTH",
"498 120 OFFCURVE",
"542 75 OFFCURVE",
"542 55 CURVE SMOOTH",
"542 22 OFFCURVE",
"498 22 OFFCURVE",
"446 22 CURVE",
"446 0 LINE",
"790 0 LINE",
"790 22 LINE",
"724 22 OFFCURVE",
"691 55 OFFCURVE",
"649 97 CURVE SMOOTH",
"353 396 LINE",
"527 556 LINE SMOOTH",
"620 642 OFFCURVE",
"663 639 OFFCURVE",
"689 640 CURVE",
"689 662 LINE",
"440 662 LINE",
"440 640 LINE",
"461 639 OFFCURVE",
"510 638 OFFCURVE",
"510 597 CURVE SMOOTH",
"510 570 OFFCURVE",
"473 537 OFFCURVE",
"444 511 CURVE SMOOTH"
);
}
);
};
layerId = "1F3E6E29-04CF-4B88-BFE7-02FED6A7184C";
paths = (
{
closed = 1;
nodes = (
"125 0 LINE",
"200 0 LINE",
"200 700 LINE",
"125 700 LINE"
);
},
{
closed = 1;
nodes = (
"181 295 LINE",
"200 285 LINE",
"574 655 LINE",
"567 689 LINE"
);
},
{
closed = 1;
nodes = (
"125 37 OFFCURVE",
"93 16 OFFCURVE",
"38 14 CURVE",
"38 0 LINE",
"285 0 LINE",
"285 14 LINE",
"230 16 OFFCURVE",
"200 37 OFFCURVE",
"200 85 CURVE",
"125 85 LINE"
);
},
{
closed = 1;
nodes = (
"200 615 LINE",
"200 663 OFFCURVE",
"230 684 OFFCURVE",
"285 686 CURVE",
"285 700 LINE",
"38 700 LINE",
"38 686 LINE",
"93 684 OFFCURVE",
"125 663 OFFCURVE",
"125 615 CURVE"
);
},
{
closed = 1;
nodes = (
"488 571 LINE",
"520 594 OFFCURVE",
"600 685 OFFCURVE",
"671 686 CURVE",
"671 700 LINE",
"447 700 LINE",
"447 686 LINE",
"523 684 OFFCURVE",
"520 638 OFFCURVE",
"467 587 CURVE"
);
},
{
closed = 1;
nodes = (
"360 446 CURVE",
"315 403 LINE",
"385 392 OFFCURVE",
"420 296 OFFCURVE",
"475 171 CURVE SMOOTH",
"520 69 OFFCURVE",
"527 0 OFFCURVE",
"594 0 CURVE SMOOTH",
"609 0 OFFCURVE",
"631 0 OFFCURVE",
"666 0 CURVE SMOOTH",
"700 0 LINE",
"702 14 LINE",
"690 14 LINE SMOOTH",
"610 14 OFFCURVE",
"602 68 OFFCURVE",
"522 237 CURVE SMOOTH",
"474 338 OFFCURVE",
"426 437 OFFCURVE"
);
}
);
width = 692;
}
);
unicode = 004B;
},
{
glyphname = L;
lastChange = "2019-01-09 15:00:38 +0000";
layers = (
{
background = {
paths = (
{
closed = 1;
nodes = (
"601 207 LINE",
"527 46 LINE",
"235 25 LINE",
"235 672 LINE",
"337 705 LINE",
"337 720 LINE",
"46 720 LINE",
"46 705 LINE",
"148 672 LINE",
"148 48 LINE",
"46 15 LINE",
"46 0 LINE",
"592 0 LINE",
"617 207 LINE"
);
}
);
};
layerId = "4EF47A43-EA9F-416F-884D-AC541148DC09";
paths = (
{
closed = 1;
nodes = (
"97 0 LINE",
"247 0 LINE",
"247 700 LINE",
"97 700 LINE"
);
},
{
closed = 1;
nodes = (
"64 25 LINE",
"20 22 LINE",
"20 0 LINE",
"324 0 LINE",
"324 22 LINE",
"300 25 LINE",
"247 90 LINE",
"97 70 LINE"
);
},
{
closed = 1;
nodes = (
"247 630 LINE",
"280 675 LINE",
"324 678 LINE",
"324 700 LINE",
"20 700 LINE",
"20 678 LINE",
"64 675 LINE",
"97 630 LINE"
);
},
{
closed = 1;
nodes = (
"247 0 LINE",
"546 0 LINE",
"546 60 LINE",
"247 45 LINE"
);
},
{
closed = 1;
nodes = (
"587 169 LINE",
"562 169 LINE",
"493 85 LINE",
"373 20 LINE",
"373 0 LINE",
"559 0 LINE"
);
}
);
width = 597;
},
{
background = {
paths = (
{
closed = 1;
nodes = (
"597 195 LINE",
"575 195 LINE",
"529 44 OFFCURVE",
"494 22 OFFCURVE",
"379 22 CURVE SMOOTH",
"329 22 LINE SMOOTH",
"230 22 OFFCURVE",
"230 36 OFFCURVE",
"230 151 CURVE SMOOTH",
"230 497 LINE SMOOTH",
"230 632 OFFCURVE",
"232 640 OFFCURVE",
"319 640 CURVE SMOOTH",
"348 640 LINE",
"348 662 LINE",
"30 662 LINE",
"30 640 LINE",
"45 640 LINE SMOOTH",
"132 640 OFFCURVE",
"134 631 OFFCURVE",
"134 497 CURVE SMOOTH",
"134 172 LINE SMOOTH",
"134 44 OFFCURVE",
"134 22 OFFCURVE",
"50 22 CURVE SMOOTH",
"30 22 LINE",
"30 0 LINE",
"593 0 LINE"
);
}
);
};
layerId = "1F3E6E29-04CF-4B88-BFE7-02FED6A7184C";
paths = (
{
closed = 1;
nodes = (
"125 0 LINE",
"200 0 LINE",
"200 700 LINE",
"125 700 LINE"
);
},
{
closed = 1;
nodes = (
"589 0 LINE",
"589 44 LINE",
"200 25 LINE",
"200 0 LINE"
);
},
{
closed = 1;
nodes = (
"91 25 LINE",
"38 15 LINE",
"38 0 LINE",
"160 0 LINE",
"159 45 LINE",
"124 45 LINE"
);
},
{
closed = 1;
nodes = (
"589 0 LINE",
"612 162 LINE",
"593 162 LINE",
"574 48 OFFCURVE",
"489 39 OFFCURVE",
"425 36 CURVE",
"425 0 LINE"
);
},
{
closed = 1;
nodes = (
"200 615 LINE",
"200 663 OFFCURVE",
"230 684 OFFCURVE",
"285 686 CURVE",
"285 700 LINE",
"38 700 LINE",
"38 686 LINE",
"93 684 OFFCURVE",
"125 663 OFFCURVE",
"125 615 CURVE"
);
}
);
width = 616;
},
{
associatedMasterId = "1F3E6E29-04CF-4B88-BFE7-02FED6A7184C";
background = {
paths = (
{
closed = 1;
nodes = (
"605 195 LINE",
"583 195 LINE",
"537 44 OFFCURVE",
"502 22 OFFCURVE",
"387 22 CURVE SMOOTH",
"337 22 LINE SMOOTH",
"238 22 OFFCURVE",
"238 36 OFFCURVE",
"238 151 CURVE SMOOTH",
"238 497 LINE SMOOTH",
"238 632 OFFCURVE",
"240 640 OFFCURVE",
"327 640 CURVE SMOOTH",
"356 640 LINE",
"356 662 LINE",
"38 662 LINE",
"38 640 LINE",
"53 640 LINE SMOOTH",
"140 640 OFFCURVE",
"142 631 OFFCURVE",
"142 497 CURVE SMOOTH",
"142 172 LINE SMOOTH",
"142 44 OFFCURVE",
"142 22 OFFCURVE",
"58 22 CURVE SMOOTH",
"38 22 LINE",
"38 0 LINE",
"601 0 LINE"
);
}
);
};
layerId = "BC9B1A77-96E2-4C3E-9531-E0DCAEC4771E";
name = "Jan 6 19, 17:09";
paths = (
{
closed = 1;
nodes = (
"126 0 LINE",
"202 0 LINE",
"202 700 LINE",
"126 700 LINE"
);
},
{
closed = 1;
nodes = (
"591 0 LINE",
"591 40 LINE",
"202 25 LINE",
"202 0 LINE"
);
},
{
closed = 1;
nodes = (
"601 149 LINE",
"586 149 LINE",
"525 58 LINE",
"401 0 LINE",
"591 0 LINE"
);
},
{
closed = 1;
nodes = (
"93 25 LINE",
"40 15 LINE",
"40 0 LINE",
"162 0 LINE",
"161 45 LINE",
"126 45 LINE"
);
},
{
closed = 1;
nodes = (
"202 655 LINE",
"233 675 LINE",
"286 685 LINE",
"286 700 LINE",
"40 700 LINE",
"40 685 LINE",
"93 675 LINE",
"126 655 LINE"
);
}
);
width = 601;
}
);
unicode = 004C;
},
{
glyphname = M;
lastChange = "2019-01-09 15:02:11 +0000";
layers = (
{
background = {
paths = (
{
closed = 1;
nodes = (
"924 15 LINE",
"822 48 LINE",
"822 672 LINE",
"924 705 LINE",
"924 720 LINE",
"725 720 LINE",
"617 415 LINE",
"493 99 LINE",
"247 720 LINE",
"57 720 LINE",
"57 705 LINE",
"159 672 LINE",
"159 226 LINE",
"152 48 LINE",
"53 15 LINE",
"53 0 LINE",
"321 0 LINE",
"321 15 LINE",
"202 48 LINE",
"196 226 LINE",
"196 494 LINE",
"187 631 LINE",
"331 302 LINE",
"451 0 LINE",
"494 0 LINE",
"646 413 LINE",
"749 646 LINE",
"739 494 LINE",
"739 48 LINE",
"637 15 LINE",
"637 0 LINE",
"924 0 LINE"
);
}
);
};
layerId = "4EF47A43-EA9F-416F-884D-AC541148DC09";
leftMetricsKey = "=H";
rightMetricsKey = "=H";
paths = (
{
closed = 1;
nodes = (
"646 0 LINE",
"796 0 LINE",
"796 700 LINE",
"646 700 LINE"
);
},
{
closed = 1;
nodes = (
"111 700 LINE",
"374 0 LINE",
"423 0 LINE",
"700 700 LINE",
"636 700 LINE",
"450 242 LINE",
"275 700 LINE"
);
},
{
closed = 1;
nodes = (
"99 0 LINE",
"164 0 LINE",
"162 655 LINE",
"97 655 LINE"
);
},
{
closed = 0;
nodes = (
"109 0 LINE"
);
},
{
closed = 1;
nodes = (
"66 25 LINE",
"22 22 LINE",
"22 0 LINE",
"239 0 LINE",
"239 22 LINE",
"195 25 LINE",
"164 90 LINE",
"99 90 LINE"
);
},
{
closed = 1;
nodes = (
"613 25 LINE",
"569 22 LINE",
"569 0 LINE",
"873 0 LINE",
"873 22 LINE",
"829 25 LINE",
"796 70 LINE",
"646 70 LINE"
);
},
{
closed = 1;
nodes = (
"796 630 LINE",
"829 675 LINE",
"873 678 LINE",
"873 700 LINE",
"743 700 LINE",
"743 630 LINE"
);
},
{
closed = 1;
nodes = (
"160 700 LINE",
"20 700 LINE",
"20 678 LINE",
"64 675 LINE",
"97 630 LINE",
"160 630 LINE"
);
}
);
width = 893;
},
{
background = {
paths = (
{
closed = 1;
nodes = (
"499 114 LINE",
"256 662 LINE",
"55 662 LINE",
"55 640 LINE",
"73 640 LINE SMOOTH",
"160 640 OFFCURVE",
"161 631 OFFCURVE",
"161 497 CURVE SMOOTH",
"161 159 LINE SMOOTH",
"161 47 OFFCURVE",
"116 28 OFFCURVE",
"55 22 CURVE",
"55 0 LINE",
"291 0 LINE",
"291 22 LINE",
"217 29 OFFCURVE",
"185 62 OFFCURVE",
"185 153 CURVE SMOOTH",
"185 598 LINE",
"449 0 LINE",
"472 0 LINE",
"734 598 LINE",
"734 172 LINE SMOOTH",
"734 44 OFFCURVE",
"734 22 OFFCURVE",
"650 22 CURVE SMOOTH",
"627 22 LINE",
"627 0 LINE",
"944 0 LINE",
"944 22 LINE",
"914 22 LINE SMOOTH",
"830 22 OFFCURVE",
"830 44 OFFCURVE",
"830 172 CURVE SMOOTH",
"830 497 LINE SMOOTH",
"830 632 OFFCURVE",
"832 640 OFFCURVE",
"919 640 CURVE SMOOTH",
"944 640 LINE",
"944 662 LINE",
"740 662 LINE"
);
}
);
};
layerId = "1F3E6E29-04CF-4B88-BFE7-02FED6A7184C";
leftMetricsKey = "=H";
rightMetricsKey = "=H";
paths = (
{
closed = 1;
nodes = (
"697 0 LINE",
"772 0 LINE",
"772 700 LINE",
"697 700 LINE"
);
},
{
closed = 1;
nodes = (
"142 700 LINE",
"430 0 LINE",
"459 0 LINE",
"740 700 LINE",
"697 700 LINE",
"461 101 LINE",
"217 700 LINE"
);
},
{
closed = 1;
nodes = (
"137 0 LINE",
"182 0 LINE",
"182 550 LINE",
"173 634 LINE",
"181 655 LINE",
"136 655 LINE"
);
},
{
closed = 0;
nodes = (
"137 0 LINE"
);
},
{
closed = 1;
nodes = (
"697 37 OFFCURVE",
"665 16 OFFCURVE",
"610 14 CURVE",
"610 0 LINE",
"857 0 LINE",
"857 14 LINE",
"802 16 OFFCURVE",
"772 37 OFFCURVE",
"772 85 CURVE",
"697 85 LINE"
);
},
{
closed = 1;
nodes = (
"137 37 OFFCURVE",
"105 16 OFFCURVE",
"50 14 CURVE",
"50 0 LINE",
"267 0 LINE",
"267 14 LINE",
"212 16 OFFCURVE",
"182 37 OFFCURVE",
"182 85 CURVE",
"137 85 LINE"
);
},
{
closed = 1;
nodes = (
"165 645 LINE",
"199 700 LINE",
"38 700 LINE",
"38 686 LINE",
"113 683 OFFCURVE",
"136 688 OFFCURVE",
"136 645 CURVE"
);
},
{
closed = 1;
nodes = (
"772 688 OFFCURVE",
"795 683 OFFCURVE",
"870 686 CURVE",
"870 700 LINE",
"709 700 LINE",
"743 645 LINE",
"772 645 LINE"
);
}
);
width = 908;
}
);
leftMetricsKey = "=H";
rightMetricsKey = "=H";
unicode = 004D;
},
{
glyphname = N;
lastChange = "2019-01-09 15:02:03 +0000";
layers = (
{
anchors = (
{
name = bottom;
position = "{361, 0}";
},
{
name = top;
position = "{370, 700}";
}
);
background = {
paths = (
{
closed = 1;
nodes = (
"768 720 LINE",
"501 720 LINE",
"501 705 LINE",
"618 673 LINE",
"625 494 LINE",
"625 226 LINE",
"633 115 LINE",
"218 720 LINE",
"52 720 LINE",
"52 705 LINE",
"154 672 LINE",
"154 226 LINE",
"147 48 LINE",
"48 15 LINE",
"48 0 LINE",
"314 0 LINE",
"314 15 LINE",
"198 48 LINE",
"191 226 LINE",
"191 494 LINE",
"182 624 LINE",
"415 297 LINE",
"609 0 LINE",
"662 0 LINE",
"662 494 LINE",
"669 673 LINE",
"768 705 LINE"
);
}
);
};
guideLines = (
{
angle = 124.7164;
position = "{499, 350}";
}
);
layerId = "4EF47A43-EA9F-416F-884D-AC541148DC09";
leftMetricsKey = "=H";
rightMetricsKey = "=H";
paths = (
{
closed = 1;
nodes = (
"581 134 LINE",
"601 0 LINE",
"646 0 LINE",
"646 699 LINE",
"581 699 LINE"
);
},
{
closed = 1;
nodes = (
"98 0 LINE",
"163 0 LINE",
"162 655 LINE",
"97 655 LINE"
);
},
{
closed = 1;
nodes = (
"66 700 LINE",
"571 0 LINE",
"636 0 LINE",
"636 180 LINE",
"256 700 LINE"
);
},
{
closed = 0;
nodes = (
"98 0 LINE"
);
},
{
closed = 1;
nodes = (
"65 25 LINE",
"21 22 LINE",
"21 0 LINE",
"238 0 LINE",
"238 22 LINE",
"194 25 LINE",
"163 90 LINE",
"98 90 LINE"
);
},
{
closed = 1;
nodes = (
"645 610 LINE",
"676 675 LINE",
"720 678 LINE",
"720 700 LINE",
"504 700 LINE",
"504 678 LINE",
"548 675 LINE",
"581 610 LINE"
);
},
{
closed = 1;
nodes = (
"150 700 LINE",
"20 700 LINE",
"20 678 LINE",
"64 675 LINE",
"97 630 LINE",
"160 630 LINE"
);
}
);
width = 740;
},
{
anchors = (
{
name = bottom;
position = "{388, 0}";
},
{
name = top;
position = "{388, 700}";
}
);
background = {
paths = (
{
closed = 1;
nodes = (
"626 -15 LINE",
"647 -15 LINE",
"647 533 LINE SMOOTH",
"647 595 OFFCURVE",
"653 631 OFFCURVE",
"750 640 CURVE",
"750 662 LINE",
"510 662 LINE",
"510 640 LINE",
"616 639 OFFCURVE",
"623 596 OFFCURVE",
"623 540 CURVE SMOOTH",
"623 141 LINE",
"231 662 LINE",
"36 662 LINE",
"36 640 LINE",
"127 640 OFFCURVE",
"134 631 OFFCURVE",
"134 497 CURVE SMOOTH",
"134 134 LINE SMOOTH",
"134 75 OFFCURVE",
"140 30 OFFCURVE",
"27 22 CURVE",
"27 0 LINE",
"274 0 LINE",
"274 22 LINE",
"172 25 OFFCURVE",
"158 64 OFFCURVE",
"158 134 CURVE SMOOTH",
"158 608 LINE"
);
}
);
};
layerId = "1F3E6E29-04CF-4B88-BFE7-02FED6A7184C";
leftMetricsKey = "=H";
rightMetricsKey = "=H";
paths = (
{
closed = 1;
nodes = (
"609 124 LINE",
"629 0 LINE",
"654 0 LINE",
"654 699 LINE",
"609 699 LINE"
);
},
{
closed = 1;
nodes = (
"125 0 LINE",
"170 0 LINE",
"170 655 LINE",
"125 655 LINE"
);
},
{
closed = 1;
nodes = (
"145 703 OFFCURVE",
"123 700 OFFCURVE",
"91 700 CURVE",
"615 0 LINE",
"649 0 LINE",
"654 71 LINE",
"498 281 OFFCURVE",
"224 667 OFFCURVE",
"179 687 CURVE SMOOTH"
);
},
{
closed = 0;
nodes = (
"125 0 LINE"
);
},
{
closed = 1;
nodes = (
"170 655 LINE",
"91 700 LINE",
"39 700 LINE",
"39 685 LINE",
"71 683 OFFCURVE",
"102 684 OFFCURVE",
"125 655 CURVE"
);
},
{
closed = 1;
nodes = (
"654 615 LINE",
"654 663 OFFCURVE",
"684 684 OFFCURVE",
"739 686 CURVE",
"739 700 LINE",
"522 700 LINE",
"522 686 LINE",
"567 684 OFFCURVE",
"609 663 OFFCURVE",
"609 615 CURVE"
);
},
{
closed = 1;
nodes = (
"125 37 OFFCURVE",
"83 16 OFFCURVE",
"38 14 CURVE",
"38 0 LINE",
"255 0 LINE",
"255 14 LINE",
"200 16 OFFCURVE",
"170 37 OFFCURVE",
"170 85 CURVE",
"125 85 LINE"
);
}
);
width = 777;
}
);
leftMetricsKey = "=H";
rightMetricsKey = "=H";
unicode = 004E;
},
{
glyphname = O;
lastChange = "2019-01-21 15:08:39 +0000";
layers = (
{
anchors = (
{
name = bottom;
position = "{404, 0}";
},
{
name = center;
position = "{404, 350}";
},
{
name = ogonek;
position = "{727, 10}";
},
{
name = top;
position = "{404, 700}";
},
{
name = topleft;
position = "{20, 700}";
},
{
name = topright;
position = "{788, 700}";
}
);
background = {
paths = (
{
closed = 1;
nodes = (
"722 488 OFFCURVE",
"697 567 OFFCURVE",
"646 630 CURVE SMOOTH",
"589 699 OFFCURVE",
"511 734 OFFCURVE",
"410 734 CURVE SMOOTH",
"302 734 OFFCURVE",
"214 690 OFFCURVE",
"147 603 CURVE SMOOTH",
"85 524 OFFCURVE",
"54 430 OFFCURVE",
"54 323 CURVE SMOOTH",
"54 229 OFFCURVE",
"79 151 OFFCURVE",
"130 89 CURVE SMOOTH",
"187 20 OFFCURVE",
"266 -14 OFFCURVE",
"367 -14 CURVE SMOOTH",
"476 -14 OFFCURVE",
"564 29 OFFCURVE",
"631 115 CURVE SMOOTH",
"692 193 OFFCURVE",
"722 286 OFFCURVE",
"722 393 CURVE SMOOTH"
);
},
{
closed = 1;
nodes = (
"639 247 OFFCURVE",
"620 177 OFFCURVE",
"583 121 CURVE SMOOTH",
"541 59 OFFCURVE",
"483 28 OFFCURVE",
"410 28 CURVE SMOOTH",
"325 28 OFFCURVE",
"258 66 OFFCURVE",
"207 141 CURVE SMOOTH",
"161 209 OFFCURVE",
"138 291 OFFCURVE",
"138 386 CURVE SMOOTH",
"138 471 OFFCURVE",
"157 541 OFFCURVE",
"195 598 CURVE SMOOTH",
"237 661 OFFCURVE",
"294 692 OFFCURVE",
"367 692 CURVE SMOOTH",
"452 692 OFFCURVE",
"519 654 OFFCURVE",
"570 578 CURVE SMOOTH",
"616 509 OFFCURVE",
"639 427 OFFCURVE",
"639 332 CURVE SMOOTH"
);
}
);
};
layerId = "4EF47A43-EA9F-416F-884D-AC541148DC09";
paths = (
{
closed = 1;
nodes = (
"533 21 OFFCURVE",
"443 3 OFFCURVE",
"354 -13 CURVE",
"271 25 OFFCURVE",
"189 65 OFFCURVE",
"107 104 CURVE",
"81 206 OFFCURVE",
"55 307 OFFCURVE",
"30 409 CURVE",
"80 491 OFFCURVE",
"131 575 OFFCURVE",
"181 657 CURVE",
"271 674 OFFCURVE",
"359 696 OFFCURVE",
"448 713 CURVE",
"531 673 OFFCURVE",
"612 630 OFFCURVE",
"694 590 CURVE",
"722 498 OFFCURVE",
"752 404 OFFCURVE",
"778 312 CURVE",
"726 219 OFFCURVE",
"674 130 OFFCURVE",
"622 38 CURVE"
);
},
{
closed = 1;
nodes = (
"291 631 OFFCURVE",
"249 606 OFFCURVE",
"206 580 CURVE",
"207 488 OFFCURVE",
"209 395 OFFCURVE",
"210 303 CURVE",
"248 225 OFFCURVE",
"285 147 OFFCURVE",
"323 69 CURVE",
"375 63 OFFCURVE",
"426 56 OFFCURVE",
"478 50 CURVE",
"519 76 OFFCURVE",
"561 103 OFFCURVE",
"602 129 CURVE",
"599 218 OFFCURVE",
"595 308 OFFCURVE",
"592 397 CURVE",
"552 477 OFFCURVE",
"513 557 OFFCURVE",
"473 637 CURVE",
"427 644 OFFCURVE",
"380 650 OFFCURVE",
"334 657 CURVE"
);
}
);
width = 808;
},
{
anchors = (
{
name = bottom;
position = "{376, 0}";
},
{
name = center;
position = "{376, 350}";
},
{
name = ogonek;
position = "{673, 10}";
},
{
name = top;
position = "{376, 700}";
},
{
name = topleft;
position = "{25, 700}";
},
{
name = topright;
position = "{727, 700}";
}
);
background = {
paths = (
{
closed = 1;
nodes = (
"59 116 OFFCURVE",
"218 -12 OFFCURVE",
"419 -12 CURVE SMOOTH",
"639 -12 OFFCURVE",
"780 130 OFFCURVE",
"780 332 CURVE SMOOTH",
"780 569 OFFCURVE",
"596 674 OFFCURVE",
"416 674 CURVE SMOOTH",
"236 674 OFFCURVE",
"59 561 OFFCURVE",
"59 336 CURVE SMOOTH"
);
},
{
closed = 1;
nodes = (
"171 471 OFFCURVE",
"213 650 OFFCURVE",
"419 650 CURVE SMOOTH",
"648 650 OFFCURVE",
"668 427 OFFCURVE",
"668 331 CURVE SMOOTH",
"668 219 OFFCURVE",
"640 12 OFFCURVE",
"423 12 CURVE SMOOTH",
"249 12 OFFCURVE",
"171 126 OFFCURVE",
"171 332 CURVE SMOOTH"
);
}
);
};
layerId = "1F3E6E29-04CF-4B88-BFE7-02FED6A7184C";
paths = (
{
closed = 1;
nodes = (
"288 -13 OFFCURVE",
"213 16 OFFCURVE",
"157 65 CURVE SMOOTH",
"78 132 OFFCURVE",
"35 236 OFFCURVE",
"35 351 CURVE SMOOTH",
"35 457 OFFCURVE",
"67 547 OFFCURVE",
"125 611 CURVE SMOOTH",
"183 675 OFFCURVE",
"268 713 OFFCURVE",
"373 713 CURVE SMOOTH",
"460 713 OFFCURVE",
"534 687 OFFCURVE",
"591 641 CURVE SMOOTH",
"671 576 OFFCURVE",
"717 474 OFFCURVE",
"717 351 CURVE SMOOTH",
"717 260 OFFCURVE",
"693 181 OFFCURVE",
"650 120 CURVE SMOOTH",
"591 37 OFFCURVE",
"496 -13 OFFCURVE",
"379 -13 CURVE SMOOTH"
);
},
{
closed = 1;
nodes = (
"252 673 OFFCURVE",
"201 636 OFFCURVE",
"166 582 CURVE SMOOTH",
"121 511 OFFCURVE",
"102 411 OFFCURVE",
"116 306 CURVE SMOOTH",
"127 229 OFFCURVE",
"161 159 OFFCURVE",
"210 108 CURVE SMOOTH",
"268 48 OFFCURVE",
"346 14 OFFCURVE",
"430 22 CURVE SMOOTH",
"507 29 OFFCURVE",
"564 78 OFFCURVE",
"600 148 CURVE SMOOTH",
"637 221 OFFCURVE",
"650 316 OFFCURVE",
"635 409 CURVE SMOOTH",
"623 488 OFFCURVE",
"583 560 OFFCURVE",
"529 610 CURVE SMOOTH",
"471 665 OFFCURVE",
"395 694 OFFCURVE",
"316 683 CURVE SMOOTH"
);
}
);
width = 752;
}
);
unicode = 004F;
},
{
glyphname = Oslash;
lastChange = "2018-12-11 17:28:55 +0000";
layers = (
{
components = (
{
name = O;
}
);
layerId = "4EF47A43-EA9F-416F-884D-AC541148DC09";
paths = (
{
closed = 1;
nodes = (
"127 -14 LINE",
"612 713 LINE",
"656 713 LINE",
"175 -14 LINE"
);
}
);
width = 784;
},
{
layerId = "1F3E6E29-04CF-4B88-BFE7-02FED6A7184C";
paths = (
{
closed = 1;
nodes = (
"157 -13 OFFCURVE",
"30 154 OFFCURVE",
"30 351 CURVE SMOOTH",
"30 565 OFFCURVE",
"160 713 OFFCURVE",
"368 713 CURVE SMOOTH",
"577 713 OFFCURVE",
"712 561 OFFCURVE",
"712 351 CURVE SMOOTH",
"712 135 OFFCURVE",
"577 -13 OFFCURVE",
"374 -13 CURVE SMOOTH"
);
},
{
closed = 1;
nodes = (
"163 661 OFFCURVE",
"86 490 OFFCURVE",
"111 306 CURVE SMOOTH",
"134 138 OFFCURVE",
"270 7 OFFCURVE",
"425 22 CURVE SMOOTH",
"582 37 OFFCURVE",
"659 226 OFFCURVE",
"630 409 CURVE SMOOTH",
"604 574 OFFCURVE",
"462 705 OFFCURVE",
"311 683 CURVE SMOOTH"
);
},
{
closed = 1;
nodes = (
"103 -14 LINE",
"588 713 LINE",
"632 713 LINE",
"151 -14 LINE"
);
}
);
width = 742;
}
);
leftMetricsKey = "=O";
rightMetricsKey = "=O";
unicode = 00D8;
},
{
glyphname = OE;
lastChange = "2019-01-21 15:08:49 +0000";
layers = (
{
layerId = "4EF47A43-EA9F-416F-884D-AC541148DC09";
paths = (
{
closed = 1;
nodes = (
"438 0 LINE",
"588 0 LINE",
"588 700 LINE",
"438 700 LINE"
);
},
{
closed = 1;
nodes = (
"588 665 LINE",
"916 645 LINE",
"916 700 LINE",
"588 700 LINE"
);
},
{
closed = 1;
nodes = (
"588 0 LINE",
"916 0 LINE",
"917 55 LINE",
"588 35 LINE"
);
},
{
closed = 1;
nodes = (
"588 344 LINE",
"867 334 LINE",
"867 390 LINE",
"588 380 LINE"
);
},
{
closed = 1;
nodes = (
"822 304 LINE",
"845 260 LINE",
"867 260 LINE",
"867 456 LINE",
"845 456 LINE",
"822 412 LINE",
"777 381 LINE",
"777 337 LINE"
);
},
{
closed = 1;
nodes = (
"948 169 LINE",
"926 169 LINE",
"865 73 LINE",
"741 0 LINE",
"917 0 LINE"
);
},
{
closed = 1;
nodes = (
"736 700 LINE",
"856 628 LINE",
"916 531 LINE",
"938 531 LINE",
"917 700 LINE"
);
},
{
closed = 1;
nodes = (
"543 312 LINE",
"537 581 LINE",
"438 700 LINE",
"190 660 LINE",
"140 578 OFFCURVE",
"80 491 OFFCURVE",
"30 409 CURVE",
"55 307 OFFCURVE",
"81 206 OFFCURVE",
"107 104 CURVE",
"189 65 OFFCURVE",
"243 36 OFFCURVE",
"326 -2 CURVE",
"519 0 LINE"
);
},
{
closed = 1;
nodes = (
"454 648 LINE",
"488 397 LINE",
"487 103 LINE",
"483 45 LINE",
"441 50 OFFCURVE",
"382 54 OFFCURVE",
"340 59 CURVE",
"303 132 OFFCURVE",
"250 231 OFFCURVE",
"214 303 CURVE",
"216 388 OFFCURVE",
"214 517 OFFCURVE",
"217 601 CURVE",
"332 658 LINE"
);
}
);
width = 978;
},
{
layerId = "1F3E6E29-04CF-4B88-BFE7-02FED6A7184C";
paths = (
{
closed = 1;
nodes = (
"390 -3 OFFCURVE",
"416 -2 OFFCURVE",
"432 0 CURVE",
"415 700 LINE",
"368 700 LINE",
"160 700 OFFCURVE",
"30 565 OFFCURVE",
"30 351 CURVE SMOOTH",
"30 154 OFFCURVE",
"157 -3 OFFCURVE",
"374 -3 CURVE SMOOTH"
);
},
{
closed = 1;
nodes = (
"341 684 OFFCURVE",
"371 683 OFFCURVE",
"400 676 CURVE",
"412 22 LINE",
"257 7 OFFCURVE",
"134 138 OFFCURVE",
"111 306 CURVE SMOOTH",
"86 490 OFFCURVE",
"163 658 OFFCURVE",
"311 680 CURVE SMOOTH"
);
},
{
closed = 1;
nodes = (
"386 0 LINE",
"462 0 LINE",
"462 700 LINE",
"386 700 LINE"
);
},
{
closed = 1;
nodes = (
"462 675 LINE",
"841 655 LINE",
"841 700 LINE",
"462 700 LINE"
);
},
{
closed = 1;
nodes = (
"461 0 LINE",
"846 0 LINE",
"847 45 LINE",
"461 25 LINE"
);
},
{
closed = 1;
nodes = (
"462 349 LINE",
"775 339 LINE",
"775 384 LINE",
"462 374 LINE"
);
},
{
closed = 1;
nodes = (
"676 664 LINE",
"747 661 OFFCURVE",
"825 656 OFFCURVE",
"844 538 CURVE",
"863 538 LINE",
"840 700 LINE",
"676 700 LINE"
);
},
{
closed = 1;
nodes = (
"847 0 LINE",
"870 162 LINE",
"851 162 LINE",
"832 48 OFFCURVE",
"747 39 OFFCURVE",
"683 36 CURVE",
"683 0 LINE"
);
},
{
closed = 1;
nodes = (
"738 342 OFFCURVE",
"759 310 OFFCURVE",
"761 255 CURVE",
"775 255 LINE",
"775 466 LINE",
"761 466 LINE",
"759 411 OFFCURVE",
"738 381 OFFCURVE",
"690 381 CURVE",
"690 342 LINE"
);
}
);
width = 898;
}
);
leftMetricsKey = "=O";
rightMetricsKey = "=E";
unicode = 0152;
},
{
glyphname = P;
lastChange = "2019-01-21 15:13:58 +0000";
layers = (
{
background = {
paths = (
{
closed = 1;
nodes = (
"578 595 OFFCURVE",
"562 636 OFFCURVE",
"531 668 CURVE SMOOTH",
"496 703 OFFCURVE",
"446 720 OFFCURVE",
"381 720 CURVE SMOOTH",
"45 720 LINE",
"45 705 LINE",
"147 672 LINE",
"147 48 LINE",
"45 15 LINE",
"45 0 LINE",
"336 0 LINE",
"336 15 LINE",
"234 48 LINE",
"234 696 LINE",
"337 684 LINE SMOOTH",
"385 679 OFFCURVE",
"423 658 OFFCURVE",
"452 623 CURVE SMOOTH",
"479 590 OFFCURVE",
"492 552 OFFCURVE",
"492 508 CURVE SMOOTH",
"492 458 OFFCURVE",
"477 417 OFFCURVE",
"446 384 CURVE SMOOTH",
"410 346 OFFCURVE",
"358 327 OFFCURVE",
"291 327 CURVE SMOOTH",
"286 327 LINE",
"286 309 LINE",
"305 305 OFFCURVE",
"319 303 OFFCURVE",
"327 303 CURVE SMOOTH",
"401 303 OFFCURVE",
"462 329 OFFCURVE",
"511 381 CURVE SMOOTH",
"556 429 OFFCURVE",
"578 484 OFFCURVE",
"578 546 CURVE SMOOTH"
);
}
);
};
layerId = "4EF47A43-EA9F-416F-884D-AC541148DC09";
leftMetricsKey = "=H";
paths = (
{
closed = 1;
nodes = (
"98 0 LINE",
"248 0 LINE",
"248 700 LINE",
"98 700 LINE"
);
},
{
closed = 1;
nodes = (
"403 283 LINE",
"448 300 OFFCURVE",
"492 317 OFFCURVE",
"537 334 CURVE",
"561 381 OFFCURVE",
"585 427 OFFCURVE",
"609 474 CURVE",
"592 527 OFFCURVE",
"574 579 OFFCURVE",
"557 632 CURVE",
"522 655 OFFCURVE",
"486 677 OFFCURVE",
"451 700 CURVE",
"194 700 LINE",
"193 296 LINE"
);
},
{
closed = 1;
nodes = (
"248 635 LINE",
"258 645 OFFCURVE",
"269 655 OFFCURVE",
"279 665 CURVE",
"310 660 OFFCURVE",
"342 654 OFFCURVE",
"373 649 CURVE",
"394 614 OFFCURVE",
"416 578 OFFCURVE",
"437 543 CURVE",
"444 503 OFFCURVE",
"451 464 OFFCURVE",
"458 424 CURVE",
"444 396 OFFCURVE",
"429 369 OFFCURVE",
"415 341 CURVE",
"391 336 OFFCURVE",
"367 331 OFFCURVE",
"343 326 CURVE",
"311 344 OFFCURVE",
"280 361 OFFCURVE",
"248 379 CURVE"
);
},
{
closed = 1;
nodes = (
"86 55 OFFCURVE",
"75 40 OFFCURVE",
"64 25 CURVE",
"49 24 OFFCURVE",
"35 23 OFFCURVE",
"20 22 CURVE",
"20 0 LINE",
"345 0 LINE",
"345 22 LINE",
"327 23 OFFCURVE",
"309 24 OFFCURVE",
"291 25 CURVE",
"277 40 OFFCURVE",
"262 55 OFFCURVE",
"248 70 CURVE",
"97 70 LINE"
);
},
{
closed = 1;
nodes = (
"151 700 LINE",
"21 700 LINE",
"21 678 LINE",
"36 677 OFFCURVE",
"50 676 OFFCURVE",
"65 675 CURVE",
"76 660 OFFCURVE",
"87 645 OFFCURVE",
"98 630 CURVE",
"151 630 LINE"
);
}
);
width = 631;
},
{
background = {
paths = (
{
closed = 1;
nodes = (
"240 643 LINE",
"251 644 OFFCURVE",
"260 645 OFFCURVE",
"285 645 CURVE SMOOTH",
"345 645 OFFCURVE",
"462 645 OFFCURVE",
"462 486 CURVE SMOOTH",
"462 336 OFFCURVE",
"339 336 OFFCURVE",
"287 336 CURVE SMOOTH",
"240 336 LINE"
);
},
{
closed = 1;
nodes = (
"253 669 OFFCURVE",
"109 666 OFFCURVE",
"43 662 CURVE",
"43 640 LINE",
"141 640 OFFCURVE",
"144 640 OFFCURVE",
"144 497 CURVE SMOOTH",
"144 172 LINE SMOOTH",
"144 44 OFFCURVE",
"144 22 OFFCURVE",
"60 22 CURVE SMOOTH",
"43 22 LINE",
"43 0 LINE",
"346 0 LINE",
"346 22 LINE",
"324 22 LINE SMOOTH",
"240 22 OFFCURVE",
"240 44 OFFCURVE",
"240 172 CURVE SMOOTH",
"240 312 LINE",
"312 312 LINE SMOOTH",
"389 312 OFFCURVE",
"451 318 OFFCURVE",
"497 348 CURVE SMOOTH",
"531 370 OFFCURVE",
"565 423 OFFCURVE",
"565 490 CURVE SMOOTH",
"565 666 OFFCURVE",
"374 669 OFFCURVE",
"276 669 CURVE SMOOTH"
);
}
);
};
layerId = "1F3E6E29-04CF-4B88-BFE7-02FED6A7184C";
leftMetricsKey = "=H";
paths = (
{
closed = 1;
nodes = (
"136 0 LINE",
"211 0 LINE",
"211 700 LINE",
"136 700 LINE"
);
},
{
closed = 1;
nodes = (
"300 291 LINE",
"383 291 OFFCURVE",
"449 313 OFFCURVE",
"494 353 CURVE SMOOTH",
"538 392 OFFCURVE",
"561 449 OFFCURVE",
"561 521 CURVE SMOOTH",
"561 564 OFFCURVE",
"542 605 OFFCURVE",
"510 637 CURVE SMOOTH",
"471 675 OFFCURVE",
"412 700 OFFCURVE",
"341 700 CURVE",
"158 700 LINE",
"157 306 LINE"
);
},
{
closed = 1;
nodes = (
"211 623 LINE SMOOTH",
"211 658 OFFCURVE",
"254 683 OFFCURVE",
"327 680 CURVE SMOOTH",
"369 679 OFFCURVE",
"409 659 OFFCURVE",
"440 625 CURVE SMOOTH",
"472 589 OFFCURVE",
"493 538 OFFCURVE",
"493 476 CURVE SMOOTH",
"493 440 OFFCURVE",
"481 406 OFFCURVE",
"462 380 CURVE SMOOTH",
"437 347 OFFCURVE",
"401 325 OFFCURVE",
"366 324 CURVE SMOOTH",
"324 322 OFFCURVE",
"296 326 OFFCURVE",
"273 333 CURVE SMOOTH",
"251 339 OFFCURVE",
"233 348 OFFCURVE",
"211 359 CURVE"
);
},
{
closed = 1;
nodes = (
"136 63 OFFCURVE",
"129 46 OFFCURVE",
"116 34 CURVE SMOOTH",
"101 21 OFFCURVE",
"78 15 OFFCURVE",
"49 14 CURVE",
"49 0 LINE",
"326 0 LINE",
"326 14 LINE",
"272 15 OFFCURVE",
"242 23 OFFCURVE",
"226 38 CURVE SMOOTH",
"215 49 OFFCURVE",
"211 65 OFFCURVE",
"211 85 CURVE",
"136 85 LINE"
);
},
{
closed = 1;
nodes = (
"199 700 LINE",
"38 700 LINE",
"38 686 LINE",
"86 684 OFFCURVE",
"113 685 OFFCURVE",
"126 675 CURVE SMOOTH",
"133 670 OFFCURVE",
"136 660 OFFCURVE",
"136 645 CURVE",
"165 645 LINE"
);
}
);
width = 597;
},
{
associatedMasterId = "1F3E6E29-04CF-4B88-BFE7-02FED6A7184C";
layerId = "B28FEB7A-5FDE-48C0-AD56-7A73E1AA4CA1";
name = "Sep 30 18, 18:19";
paths = (
{
closed = 1;
nodes = (
"126 0 LINE",
"201 0 LINE",
"201 700 LINE",
"126 700 LINE"
);
},
{
closed = 1;
nodes = (
"147 306 LINE",
"290 291 LINE",
"454 291 OFFCURVE",
"551 372 OFFCURVE",
"551 521 CURVE SMOOTH",
"551 616 OFFCURVE",
"460 700 OFFCURVE",
"331 700 CURVE",
"148 700 LINE"
);
},
{
closed = 1;
nodes = (
"168 656 LINE",
"168 700 LINE",
"55 700 LINE",
"55 678 LINE",
"93 675 LINE",
"126 656 LINE"
);
},
{
closed = 1;
nodes = (
"249 665 OFFCURVE",
"292 672 OFFCURVE",
"317 671 CURVE SMOOTH",
"402 669 OFFCURVE",
"483 597 OFFCURVE",
"483 476 CURVE SMOOTH",
"483 386 OFFCURVE",
"423 325 OFFCURVE",
"359 324 CURVE SMOOTH",
"278 323 OFFCURVE",
"247 341 OFFCURVE",
"201 361 CURVE",
"202 633 LINE",
"225 661 LINE"
);
},
{
closed = 1;
nodes = (
"93 25 LINE",
"40 15 LINE",
"40 0 LINE",
"285 0 LINE",
"285 15 LINE",
"232 25 LINE",
"201 45 LINE",
"126 45 LINE"
);
}
);
width = 600;
},
{
associatedMasterId = "4EF47A43-EA9F-416F-884D-AC541148DC09";
layerId = "A7585249-4628-4C90-9EA7-4AC1592053D9";
name = "Sep 30 18, 18:19";
paths = (
{
closed = 1;
nodes = (
"126 0 LINE",
"201 0 LINE",
"201 700 LINE",
"126 700 LINE"
);
},
{
closed = 1;
nodes = (
"147 306 LINE",
"290 291 LINE",
"454 291 OFFCURVE",
"551 372 OFFCURVE",
"551 521 CURVE SMOOTH",
"551 616 OFFCURVE",
"460 700 OFFCURVE",
"331 700 CURVE",
"148 700 LINE"
);
},
{
closed = 1;
nodes = (
"168 656 LINE",
"168 700 LINE",
"55 700 LINE",
"55 678 LINE",
"93 675 LINE",
"126 656 LINE"
);
},
{
closed = 1;
nodes = (
"249 665 OFFCURVE",
"292 672 OFFCURVE",
"317 671 CURVE SMOOTH",
"402 669 OFFCURVE",
"483 597 OFFCURVE",
"483 476 CURVE SMOOTH",
"483 386 OFFCURVE",
"423 325 OFFCURVE",
"359 324 CURVE SMOOTH",
"278 323 OFFCURVE",
"247 341 OFFCURVE",
"201 361 CURVE",
"202 633 LINE",
"225 661 LINE"
);
},
{
closed = 1;
nodes = (
"93 25 LINE",
"40 15 LINE",
"40 0 LINE",
"285 0 LINE",
"285 15 LINE",
"232 25 LINE",
"201 45 LINE",
"126 45 LINE"
);
}
);
width = 600;
}
);
leftMetricsKey = "=H-5";
unicode = 0050;
},
{
glyphname = Q;
lastChange = "2019-01-09 15:21:05 +0000";
layers = (
{
background = {
paths = (
{
closed = 1;
nodes = (
"722 488 OFFCURVE",
"697 567 OFFCURVE",
"646 630 CURVE SMOOTH",
"589 699 OFFCURVE",
"511 734 OFFCURVE",
"410 734 CURVE SMOOTH",
"302 734 OFFCURVE",
"214 690 OFFCURVE",
"147 603 CURVE SMOOTH",
"85 524 OFFCURVE",
"54 430 OFFCURVE",
"54 323 CURVE SMOOTH",
"54 229 OFFCURVE",
"79 151 OFFCURVE",
"130 89 CURVE SMOOTH",
"187 20 OFFCURVE",
"266 -14 OFFCURVE",
"367 -14 CURVE SMOOTH",
"388 -14 OFFCURVE",
"407 -13 OFFCURVE",
"423 -10 CURVE",
"639 -153 LINE SMOOTH",
"649 -160 OFFCURVE",
"658 -163 OFFCURVE",
"666 -163 CURVE SMOOTH",
"691 -163 OFFCURVE",
"709 -144 OFFCURVE",
"709 -120 CURVE SMOOTH",
"709 -100 OFFCURVE",
"699 -86 OFFCURVE",
"678 -79 CURVE SMOOTH",
"454 -3 LINE",
"537 18 OFFCURVE",
"604 69 OFFCURVE",
"654 148 CURVE SMOOTH",
"699 221 OFFCURVE",
"722 302 OFFCURVE",
"722 393 CURVE SMOOTH"
);
},
{
closed = 1;
nodes = (
"639 247 OFFCURVE",
"620 177 OFFCURVE",
"583 121 CURVE SMOOTH",
"541 59 OFFCURVE",
"483 28 OFFCURVE",
"410 28 CURVE SMOOTH",
"325 28 OFFCURVE",
"258 66 OFFCURVE",
"207 141 CURVE SMOOTH",
"161 209 OFFCURVE",
"138 291 OFFCURVE",
"138 386 CURVE SMOOTH",
"138 471 OFFCURVE",
"157 541 OFFCURVE",
"195 598 CURVE SMOOTH",
"237 661 OFFCURVE",
"294 692 OFFCURVE",
"367 692 CURVE SMOOTH",
"452 692 OFFCURVE",
"519 654 OFFCURVE",
"570 578 CURVE SMOOTH",
"616 509 OFFCURVE",
"639 427 OFFCURVE",
"639 332 CURVE SMOOTH"
);
}
);
};
layerId = "4EF47A43-EA9F-416F-884D-AC541148DC09";
rightMetricsKey = "=O-65";
paths = (
{
closed = 1;
nodes = (
"354 -13 LINE",
"271 25 OFFCURVE",
"189 65 OFFCURVE",
"107 104 CURVE",
"81 206 OFFCURVE",
"55 307 OFFCURVE",
"30 409 CURVE",
"80 491 OFFCURVE",
"131 575 OFFCURVE",
"181 657 CURVE",
"271 674 OFFCURVE",
"359 696 OFFCURVE",
"448 713 CURVE",
"531 673 OFFCURVE",
"612 630 OFFCURVE",
"694 590 CURVE",
"722 498 OFFCURVE",
"752 404 OFFCURVE",
"778 312 CURVE",
"726 219 OFFCURVE",
"674 130 OFFCURVE",
"622 38 CURVE"
);
},
{
closed = 1;
nodes = (
"299 639 OFFCURVE",
"250 620 OFFCURVE",
"217 601 CURVE",
"214 517 OFFCURVE",
"216 388 OFFCURVE",
"214 303 CURVE",
"250 231 OFFCURVE",
"303 132 OFFCURVE",
"340 59 CURVE",
"382 54 OFFCURVE",
"441 50 OFFCURVE",
"483 45 CURVE",
"514 63 OFFCURVE",
"556 85 OFFCURVE",
"587 103 CURVE",
"589 185 OFFCURVE",
"587 315 OFFCURVE",
"588 397 CURVE",
"543 481 OFFCURVE",
"499 564 OFFCURVE",
"454 648 CURVE",
"417 652 OFFCURVE",
"369 654 OFFCURVE",
"332 658 CURVE"
);
},
{
closed = 1;
nodes = (
"740 -106 LINE",
"791 -151 LINE",
"835 -154 LINE",
"835 -176 LINE",
"644 -176 LINE",
"580 -138 LINE",
"377 36 LINE",
"580 -6 LINE"
);
}
);
width = 800;
},
{
background = {
paths = (
{
closed = 1;
nodes = (
"536 7 LINE",
"737 70 OFFCURVE",
"768 247 OFFCURVE",
"768 332 CURVE SMOOTH",
"768 569 OFFCURVE",
"583 674 OFFCURVE",
"403 674 CURVE SMOOTH",
"224 674 OFFCURVE",
"47 561 OFFCURVE",
"47 334 CURVE SMOOTH",
"47 125 OFFCURVE",
"196 -12 OFFCURVE",
"408 -12 CURVE SMOOTH",
"421 -12 OFFCURVE",
"433 -11 OFFCURVE",
"443 -11 CURVE",
"453 -10 OFFCURVE",
"461 -9 OFFCURVE",
"465 -8 CURVE",
"274 -111 LINE SMOOTH",
"252 -123 OFFCURVE",
"243 -126 OFFCURVE",
"243 -141 CURVE SMOOTH",
"243 -144 OFFCURVE",
"244 -157 OFFCURVE",
"260 -157 CURVE SMOOTH",
"271 -157 OFFCURVE",
"287 -144 OFFCURVE",
"301 -132 CURVE SMOOTH",
"323 -113 OFFCURVE",
"345 -95 OFFCURVE",
"393 -95 CURVE SMOOTH",
"469 -95 OFFCURVE",
"544 -143 OFFCURVE",
"587 -170 CURVE SMOOTH",
"656 -214 OFFCURVE",
"706 -243 OFFCURVE",
"784 -243 CURVE SMOOTH",
"875 -243 OFFCURVE",
"949 -194 OFFCURVE",
"963 -92 CURVE",
"943 -92 LINE",
"930 -144 OFFCURVE",
"888 -159 OFFCURVE",
"838 -159 CURVE SMOOTH",
"775 -159 OFFCURVE",
"701 -133 OFFCURVE",
"695 -131 CURVE SMOOTH",
"638 -111 LINE SMOOTH",
"593 -95 OFFCURVE",
"510 -72 OFFCURVE",
"417 -72 CURVE SMOOTH",
"407 -72 OFFCURVE",
"398 -72 OFFCURVE",
"389 -73 CURVE"
);
},
{
closed = 1;
nodes = (
"159 471 OFFCURVE",
"200 650 OFFCURVE",
"406 650 CURVE SMOOTH",
"635 650 OFFCURVE",
"656 427 OFFCURVE",
"656 331 CURVE SMOOTH",
"656 219 OFFCURVE",
"628 12 OFFCURVE",
"410 12 CURVE SMOOTH",
"236 12 OFFCURVE",
"159 126 OFFCURVE",
"159 332 CURVE SMOOTH"
);
}
);
};
layerId = "1F3E6E29-04CF-4B88-BFE7-02FED6A7184C";
paths = (
{
closed = 1;
nodes = (
"750 -119 OFFCURVE",
"700 -127 OFFCURVE",
"657 -120 CURVE SMOOTH",
"507 -97 OFFCURVE",
"450 -52 OFFCURVE",
"395 -6 CURVE",
"478 13 LINE",
"525 -28 OFFCURVE",
"593 -60 OFFCURVE",
"681 -87 CURVE SMOOTH",
"708 -95 OFFCURVE",
"750 -102 OFFCURVE",
"770 -102 CURVE",
"770 -119 LINE"
);
},
{
closed = 1;
nodes = (
"162 -13 OFFCURVE",
"35 154 OFFCURVE",
"35 351 CURVE SMOOTH",
"35 565 OFFCURVE",
"165 713 OFFCURVE",
"373 713 CURVE SMOOTH",
"582 713 OFFCURVE",
"717 561 OFFCURVE",
"717 351 CURVE SMOOTH",
"717 135 OFFCURVE",
"582 -13 OFFCURVE",
"379 -13 CURVE SMOOTH"
);
},
{
closed = 1;
nodes = (
"168 661 OFFCURVE",
"91 490 OFFCURVE",
"116 306 CURVE SMOOTH",
"139 138 OFFCURVE",
"275 7 OFFCURVE",
"430 22 CURVE SMOOTH",
"587 37 OFFCURVE",
"664 226 OFFCURVE",
"635 409 CURVE SMOOTH",
"609 574 OFFCURVE",
"467 705 OFFCURVE",
"316 683 CURVE SMOOTH"
);
}
);
width = 760;
},
{
associatedMasterId = "4EF47A43-EA9F-416F-884D-AC541148DC09";
layerId = "34B777F8-1562-4FFD-9704-DCC6200D96D1";
name = "Aug 26 18, 15:13";
paths = (
{
closed = 1;
nodes = (
"354 -13 LINE",
"271 25 OFFCURVE",
"189 65 OFFCURVE",
"107 104 CURVE",
"81 206 OFFCURVE",
"55 307 OFFCURVE",
"30 409 CURVE",
"80 491 OFFCURVE",
"131 575 OFFCURVE",
"181 657 CURVE",
"271 674 OFFCURVE",
"359 696 OFFCURVE",
"448 713 CURVE",
"531 673 OFFCURVE",
"612 630 OFFCURVE",
"694 590 CURVE",
"722 498 OFFCURVE",
"752 404 OFFCURVE",
"778 312 CURVE",
"726 219 OFFCURVE",
"674 130 OFFCURVE",
"622 38 CURVE"
);
},
{
closed = 1;
nodes = (
"299 639 OFFCURVE",
"250 620 OFFCURVE",
"217 601 CURVE",
"214 517 OFFCURVE",
"216 388 OFFCURVE",
"214 303 CURVE",
"250 231 OFFCURVE",
"303 132 OFFCURVE",
"340 59 CURVE",
"382 54 OFFCURVE",
"441 50 OFFCURVE",
"483 45 CURVE",
"514 63 OFFCURVE",
"556 85 OFFCURVE",
"587 103 CURVE",
"589 185 OFFCURVE",
"587 315 OFFCURVE",
"588 397 CURVE",
"543 481 OFFCURVE",
"499 564 OFFCURVE",
"454 648 CURVE",
"417 652 OFFCURVE",
"369 654 OFFCURVE",
"332 658 CURVE"
);
},
{
closed = 1;
nodes = (
"782 30 LINE",
"808 -124 LINE",
"354 -13 LINE",
"441 50 LINE"
);
}
);
width = 808;
},
{
associatedMasterId = "1F3E6E29-04CF-4B88-BFE7-02FED6A7184C";
layerId = "F553F71B-6984-4CCA-A0CE-F64A53C2134A";
name = "Oct 3 18, 19:28";
paths = (
{
closed = 1;
nodes = (
"169 -13 OFFCURVE",
"39 139 OFFCURVE",
"39 351 CURVE SMOOTH",
"39 565 OFFCURVE",
"172 713 OFFCURVE",
"382 713 CURVE SMOOTH",
"589 713 OFFCURVE",
"726 569 OFFCURVE",
"726 351 CURVE SMOOTH",
"726 137 OFFCURVE",
"589 -13 OFFCURVE",
"382 -13 CURVE SMOOTH"
);
},
{
closed = 1;
nodes = (
"180 656 OFFCURVE",
"99 495 OFFCURVE",
"125 321 CURVE SMOOTH",
"150 151 OFFCURVE",
"280 13 OFFCURVE",
"435 35 CURVE SMOOTH",
"590 55 OFFCURVE",
"666 226 OFFCURVE",
"638 403 CURVE SMOOTH",
"611 574 OFFCURVE",
"477 701 OFFCURVE",
"326 678 CURVE SMOOTH"
);
},
{
closed = 1;
nodes = (
"531 -56 OFFCURVE",
"645 -110 OFFCURVE",
"691 -89 CURVE SMOOTH",
"718 -77 OFFCURVE",
"741 -46 OFFCURVE",
"757 -8 CURVE",
"810 -111 LINE",
"791 -130 OFFCURVE",
"776 -141 OFFCURVE",
"754 -152 CURVE SMOOTH",
"664 -197 OFFCURVE",
"535 -103 OFFCURVE",
"410 4 CURVE",
"467 -8 LINE"
);
}
);
width = 600;
},
{
associatedMasterId = "4EF47A43-EA9F-416F-884D-AC541148DC09";
layerId = "80E88021-7791-4B94-92B2-F4CE935A0BCA";
name = "Aug 26 18, 15:13";
paths = (
{
closed = 1;
nodes = (
"354 -13 LINE",
"271 25 OFFCURVE",
"189 65 OFFCURVE",
"107 104 CURVE",
"81 206 OFFCURVE",
"55 307 OFFCURVE",
"30 409 CURVE",
"80 491 OFFCURVE",
"131 575 OFFCURVE",
"181 657 CURVE",
"271 674 OFFCURVE",
"359 696 OFFCURVE",
"448 713 CURVE",
"531 673 OFFCURVE",
"612 630 OFFCURVE",
"694 590 CURVE",
"722 498 OFFCURVE",
"752 404 OFFCURVE",
"778 312 CURVE",
"726 219 OFFCURVE",
"674 130 OFFCURVE",
"622 38 CURVE"
);
},
{
closed = 1;
nodes = (
"299 639 OFFCURVE",
"250 620 OFFCURVE",
"217 601 CURVE",
"214 517 OFFCURVE",
"216 388 OFFCURVE",
"214 303 CURVE",
"250 231 OFFCURVE",
"303 132 OFFCURVE",
"340 59 CURVE",
"382 54 OFFCURVE",
"441 50 OFFCURVE",
"483 45 CURVE",
"514 63 OFFCURVE",
"556 85 OFFCURVE",
"587 103 CURVE",
"589 185 OFFCURVE",
"587 315 OFFCURVE",
"588 397 CURVE",
"543 481 OFFCURVE",
"499 564 OFFCURVE",
"454 648 CURVE",
"417 652 OFFCURVE",
"369 654 OFFCURVE",
"332 658 CURVE"
);
},
{
closed = 1;
nodes = (
"782 30 LINE",
"808 -124 LINE",
"354 -13 LINE",
"441 50 LINE"
);
}
);
width = 808;
},
{
associatedMasterId = "4EF47A43-EA9F-416F-884D-AC541148DC09";
layerId = "B538E510-9E7C-4E1D-BFFB-A980DB214A0D";
name = "Oct 3 18, 19:28";
paths = (
{
closed = 1;
nodes = (
"169 -13 OFFCURVE",
"39 139 OFFCURVE",
"39 351 CURVE SMOOTH",
"39 565 OFFCURVE",
"172 713 OFFCURVE",
"382 713 CURVE SMOOTH",
"589 713 OFFCURVE",
"726 569 OFFCURVE",
"726 351 CURVE SMOOTH",
"726 137 OFFCURVE",
"589 -13 OFFCURVE",
"382 -13 CURVE SMOOTH"
);
},
{
closed = 1;
nodes = (
"180 656 OFFCURVE",
"99 495 OFFCURVE",
"125 321 CURVE SMOOTH",
"150 151 OFFCURVE",
"280 13 OFFCURVE",
"435 35 CURVE SMOOTH",
"590 55 OFFCURVE",
"666 226 OFFCURVE",
"638 403 CURVE SMOOTH",
"611 574 OFFCURVE",
"477 701 OFFCURVE",
"326 678 CURVE SMOOTH"
);
},
{
closed = 1;
nodes = (
"531 -56 OFFCURVE",
"645 -110 OFFCURVE",
"691 -89 CURVE SMOOTH",
"718 -77 OFFCURVE",
"741 -46 OFFCURVE",
"757 -8 CURVE",
"810 -111 LINE",
"791 -130 OFFCURVE",
"776 -141 OFFCURVE",
"754 -152 CURVE SMOOTH",
"664 -197 OFFCURVE",
"535 -103 OFFCURVE",
"410 4 CURVE",
"467 -8 LINE"
);
}
);
width = 600;
},
{
associatedMasterId = "1F3E6E29-04CF-4B88-BFE7-02FED6A7184C";
background = {
paths = (
{
closed = 1;
nodes = (
"536 7 LINE",
"737 70 OFFCURVE",
"768 247 OFFCURVE",
"768 332 CURVE SMOOTH",
"768 569 OFFCURVE",
"583 674 OFFCURVE",
"403 674 CURVE SMOOTH",
"224 674 OFFCURVE",
"47 561 OFFCURVE",
"47 334 CURVE SMOOTH",
"47 125 OFFCURVE",
"196 -12 OFFCURVE",
"408 -12 CURVE SMOOTH",
"421 -12 OFFCURVE",
"433 -11 OFFCURVE",
"443 -11 CURVE",
"453 -10 OFFCURVE",
"461 -9 OFFCURVE",
"465 -8 CURVE",
"274 -111 LINE SMOOTH",
"252 -123 OFFCURVE",
"243 -126 OFFCURVE",
"243 -141 CURVE SMOOTH",
"243 -144 OFFCURVE",
"244 -157 OFFCURVE",
"260 -157 CURVE SMOOTH",
"271 -157 OFFCURVE",
"287 -144 OFFCURVE",
"301 -132 CURVE SMOOTH",
"323 -113 OFFCURVE",
"345 -95 OFFCURVE",
"393 -95 CURVE SMOOTH",
"469 -95 OFFCURVE",
"544 -143 OFFCURVE",
"587 -170 CURVE SMOOTH",
"656 -214 OFFCURVE",
"706 -243 OFFCURVE",
"784 -243 CURVE SMOOTH",
"875 -243 OFFCURVE",
"949 -194 OFFCURVE",
"963 -92 CURVE",
"943 -92 LINE",
"930 -144 OFFCURVE",
"888 -159 OFFCURVE",
"838 -159 CURVE SMOOTH",
"775 -159 OFFCURVE",
"701 -133 OFFCURVE",
"695 -131 CURVE SMOOTH",
"638 -111 LINE SMOOTH",
"593 -95 OFFCURVE",
"510 -72 OFFCURVE",
"417 -72 CURVE SMOOTH",
"407 -72 OFFCURVE",
"398 -72 OFFCURVE",
"389 -73 CURVE"
);
},
{
closed = 1;
nodes = (
"159 471 OFFCURVE",
"200 650 OFFCURVE",
"406 650 CURVE SMOOTH",
"635 650 OFFCURVE",
"656 427 OFFCURVE",
"656 331 CURVE SMOOTH",
"656 219 OFFCURVE",
"628 12 OFFCURVE",
"410 12 CURVE SMOOTH",
"236 12 OFFCURVE",
"159 126 OFFCURVE",
"159 332 CURVE SMOOTH"
);
}
);
};
layerId = "165670EE-E260-4A64-9467-CC9476DEB91C";
name = "Jan 9 19, 16:12";
paths = (
{
closed = 1;
nodes = (
"165 -13 OFFCURVE",
"35 139 OFFCURVE",
"35 351 CURVE SMOOTH",
"35 565 OFFCURVE",
"168 713 OFFCURVE",
"378 713 CURVE SMOOTH",
"585 713 OFFCURVE",
"722 569 OFFCURVE",
"722 351 CURVE SMOOTH",
"722 137 OFFCURVE",
"585 -13 OFFCURVE",
"378 -13 CURVE SMOOTH"
);
},
{
closed = 1;
nodes = (
"176 656 OFFCURVE",
"88 495 OFFCURVE",
"114 321 CURVE SMOOTH",
"139 151 OFFCURVE",
"276 13 OFFCURVE",
"431 35 CURVE SMOOTH",
"586 55 OFFCURVE",
"668 226 OFFCURVE",
"640 403 CURVE SMOOTH",
"613 574 OFFCURVE",
"473 701 OFFCURVE",
"322 678 CURVE SMOOTH"
);
},
{
closed = 1;
nodes = (
"684 -110 LINE",
"638 -110 OFFCURVE",
"549 -131 OFFCURVE",
"464 -44 CURVE SMOOTH",
"380 41 OFFCURVE",
"332 95 OFFCURVE",
"278 95 CURVE SMOOTH",
"274 95 OFFCURVE",
"278 103 OFFCURVE",
"274 104 CURVE",
"352 112 OFFCURVE",
"427 76 OFFCURVE",
"488 8 CURVE SMOOTH",
"546 -56 OFFCURVE",
"641 -95 OFFCURVE",
"684 -96 CURVE"
);
}
);
width = 762;
}
);
unicode = 0051;
},
{
color = 0;
glyphname = R;
lastChange = "2019-01-11 17:19:38 +0000";
layers = (
{
background = {
paths = (
{
closed = 1;
nodes = (
"649 15 LINE",
"542 48 LINE",
"332 352 LINE",
"379 369 OFFCURVE",
"417 397 OFFCURVE",
"446 437 CURVE SMOOTH",
"473 475 OFFCURVE",
"487 515 OFFCURVE",
"487 557 CURVE SMOOTH",
"487 604 OFFCURVE",
"471 642 OFFCURVE",
"440 671 CURVE SMOOTH",
"405 704 OFFCURVE",
"355 720 OFFCURVE",
"291 720 CURVE SMOOTH",
"-36 720 LINE",
"-36 705 LINE",
"66 672 LINE",
"66 47 LINE",
"-36 15 LINE",
"-36 0 LINE",
"256 0 LINE",
"256 15 LINE",
"153 48 LINE",
"153 323 LINE",
"256 323 LINE",
"345 189 LINE",
"462 0 LINE",
"650 0 LINE"
);
},
{
closed = 1;
nodes = (
"402 476 OFFCURVE",
"385 435 OFFCURVE",
"350 402 CURVE SMOOTH",
"312 365 OFFCURVE",
"261 346 OFFCURVE",
"196 346 CURVE SMOOTH",
"153 346 LINE",
"153 697 LINE",
"247 686 LINE SMOOTH",
"298 680 OFFCURVE",
"337 661 OFFCURVE",
"365 629 CURVE SMOOTH",
"390 600 OFFCURVE",
"402 565 OFFCURVE",
"402 524 CURVE SMOOTH"
);
}
);
};
layerId = "4EF47A43-EA9F-416F-884D-AC541148DC09";
paths = (
{
closed = 1;
nodes = (
"97 0 LINE",
"247 0 LINE",
"247 700 LINE",
"97 700 LINE"
);
},
{
closed = 1;
nodes = (
"192 316 LINE",
"402 303 LINE",
"534 354 LINE",
"606 494 LINE",
"554 642 LINE",
"448 700 LINE",
"193 700 LINE"
);
},
{
closed = 1;
nodes = (
"370 649 LINE",
"443 553 LINE",
"464 444 LINE",
"422 366 LINE",
"342 351 LINE",
"247 399 LINE",
"247 635 LINE",
"278 665 LINE"
);
},
{
closed = 1;
nodes = (
"64 25 LINE",
"20 22 LINE",
"20 0 LINE",
"324 0 LINE",
"324 22 LINE",
"280 25 LINE",
"247 70 LINE",
"97 70 LINE"
);
},
{
closed = 1;
nodes = (
"312 340 LINE",
"451 38 LINE",
"495 0 LINE",
"705 0 LINE",
"705 22 LINE",
"661 25 LINE",
"610 70 LINE",
"475 291 LINE"
);
},
{
closed = 1;
nodes = (
"150 700 LINE",
"20 700 LINE",
"20 678 LINE",
"64 675 LINE",
"97 630 LINE",
"150 630 LINE"
);
}
);
width = 692;
},
{
associatedMasterId = "4EF47A43-EA9F-416F-884D-AC541148DC09";
layerId = "8599454B-35C1-4D62-B090-90D843A85D41";
name = "Aug 26 18, 17:25";
paths = (
{
closed = 1;
nodes = (
"178 0 LINE",
"328 0 LINE",
"328 700 LINE",
"178 700 LINE"
);
},
{
closed = 1;
nodes = (
"273 316 LINE",
"483 303 LINE",
"615 354 LINE",
"687 494 LINE",
"635 642 LINE",
"529 700 LINE",
"274 700 LINE"
);
},
{
closed = 1;
nodes = (
"218 645 LINE",
"218 700 LINE",
"117 700 LINE",
"117 678 LINE",
"145 675 LINE",
"178 645 LINE"
);
},
{
closed = 1;
nodes = (
"451 649 LINE",
"515 553 LINE",
"536 444 LINE",
"493 361 LINE",
"423 346 LINE",
"328 399 LINE",
"328 635 LINE",
"359 665 LINE"
);
},
{
closed = 1;
nodes = (
"144 25 LINE",
"100 22 LINE",
"100 0 LINE",
"405 0 LINE",
"405 22 LINE",
"361 25 LINE",
"328 70 LINE",
"177 70 LINE"
);
},
{
closed = 1;
nodes = (
"381 340 LINE",
"536 1 LINE",
"793 0 LINE",
"793 22 LINE",
"749 25 LINE",
"704 62 LINE",
"586 275 LINE"
);
}
);
width = 903;
},
{
associatedMasterId = "1F3E6E29-04CF-4B88-BFE7-02FED6A7184C";
guideLines = (
{
angle = 164.3205;
position = "{425, 316}";
}
);
layerId = "2CE008D2-1EF4-48E6-BE5C-34B8A8ADAFCC";
name = "Sep 12 18, 19:17";
paths = (
{
closed = 1;
nodes = (
"128 0 LINE",
"202 0 LINE",
"202 700 LINE",
"128 700 LINE"
);
},
{
closed = 1;
nodes = (
"168 645 LINE",
"168 700 LINE",
"67 700 LINE",
"67 678 LINE",
"95 675 LINE",
"128 645 LINE"
);
},
{
closed = 1;
nodes = (
"94 25 LINE",
"50 22 LINE",
"50 0 LINE",
"279 0 LINE",
"279 22 LINE",
"235 25 LINE",
"202 70 LINE",
"127 70 LINE"
);
},
{
closed = 1;
nodes = (
"301 333 LINE",
"468 38 LINE",
"512 0 LINE",
"643 0 LINE",
"643 22 LINE",
"599 25 LINE",
"548 70 LINE",
"398 306 LINE"
);
},
{
closed = 1;
nodes = (
"166 640 LINE",
"255 664 LINE",
"394 664 OFFCURVE",
"449 601 OFFCURVE",
"449 489 CURVE SMOOTH",
"449 394 OFFCURVE",
"436 337 OFFCURVE",
"203 337 CURVE",
"168 297 LINE",
"447 297 OFFCURVE",
"512 362 OFFCURVE",
"512 519 CURVE SMOOTH",
"512 630 OFFCURVE",
"423 700 OFFCURVE",
"278 700 CURVE SMOOTH",
"166 700 LINE"
);
}
);
width = 600;
},
{
associatedMasterId = "1F3E6E29-04CF-4B88-BFE7-02FED6A7184C";
guideLines = (
{
angle = 164.3205;
position = "{425, 316}";
}
);
layerId = "E84571BE-CFE1-4E07-8F58-B9114A089DCB";
name = "Light Sep 12 18, 19:17";
paths = (
{
closed = 1;
nodes = (
"128 0 LINE",
"202 0 LINE",
"202 700 LINE",
"128 700 LINE"
);
},
{
closed = 1;
nodes = (
"168 645 LINE",
"168 700 LINE",
"67 700 LINE",
"67 678 LINE",
"95 675 LINE",
"128 645 LINE"
);
},
{
closed = 1;
nodes = (
"94 25 LINE",
"50 22 LINE",
"50 0 LINE",
"279 0 LINE",
"279 22 LINE",
"235 25 LINE",
"202 70 LINE",
"127 70 LINE"
);
},
{
closed = 1;
nodes = (
"301 333 LINE",
"468 38 LINE",
"512 0 LINE",
"643 0 LINE",
"643 22 LINE",
"599 25 LINE",
"548 70 LINE",
"398 306 LINE"
);
},
{
closed = 1;
nodes = (
"166 640 LINE",
"255 664 LINE",
"394 664 OFFCURVE",
"449 601 OFFCURVE",
"449 489 CURVE SMOOTH",
"449 394 OFFCURVE",
"436 337 OFFCURVE",
"203 337 CURVE",
"168 297 LINE",
"447 297 OFFCURVE",
"512 362 OFFCURVE",
"512 519 CURVE SMOOTH",
"512 630 OFFCURVE",
"423 700 OFFCURVE",
"278 700 CURVE SMOOTH",
"166 700 LINE"
);
}
);
width = 600;
},
{
background = {
paths = (
{
closed = 1;
nodes = (
"232 645 LINE",
"245 646 OFFCURVE",
"255 647 OFFCURVE",
"273 647 CURVE SMOOTH",
"389 647 OFFCURVE",
"460 618 OFFCURVE",
"460 493 CURVE SMOOTH",
"460 391 OFFCURVE",
"408 343 OFFCURVE",
"287 343 CURVE SMOOTH",
"232 343 LINE"
);
},
{
closed = 1;
nodes = (
"215 671 OFFCURVE",
"106 667 OFFCURVE",
"35 662 CURVE",
"35 640 LINE",
"129 640 OFFCURVE",
"136 643 OFFCURVE",
"136 497 CURVE SMOOTH",
"136 172 LINE SMOOTH",
"136 44 OFFCURVE",
"136 22 OFFCURVE",
"51 22 CURVE SMOOTH",
"30 22 LINE",
"30 0 LINE",
"347 0 LINE",
"347 22 LINE",
"315 22 LINE SMOOTH",
"231 22 OFFCURVE",
"232 44 OFFCURVE",
"232 172 CURVE SMOOTH",
"232 319 LINE",
"246 319 LINE SMOOTH",
"283 319 OFFCURVE",
"303 319 OFFCURVE",
"362 238 CURVE SMOOTH",
"466 95 LINE SMOOTH",
"511 33 OFFCURVE",
"537 13 OFFCURVE",
"554 0 CURVE",
"732 0 LINE",
"732 22 LINE",
"653 22 OFFCURVE",
"598 76 OFFCURVE",
"556 131 CURVE SMOOTH",
"472 241 LINE SMOOTH",
"455 264 OFFCURVE",
"399 331 OFFCURVE",
"369 333 CURVE",
"490 343 OFFCURVE",
"567 406 OFFCURVE",
"567 500 CURVE SMOOTH",
"567 675 OFFCURVE",
"323 671 OFFCURVE",
"280 671 CURVE SMOOTH"
);
}
);
};
layerId = "1F3E6E29-04CF-4B88-BFE7-02FED6A7184C";
paths = (
{
closed = 1;
nodes = (
"131 0 LINE",
"206 0 LINE",
"206 700 LINE",
"131 700 LINE"
);
},
{
closed = 1;
nodes = (
"152 323 LINE",
"289 323 LINE",
"478 323 OFFCURVE",
"556 406 OFFCURVE",
"556 534 CURVE SMOOTH",
"556 625 OFFCURVE",
"465 700 OFFCURVE",
"336 700 CURVE",
"153 700 LINE"
);
},
{
closed = 1;
nodes = (
"206 682 OFFCURVE",
"238 683 OFFCURVE",
"322 681 CURVE SMOOTH",
"404 679 OFFCURVE",
"484 609 OFFCURVE",
"484 487 CURVE SMOOTH",
"484 419 OFFCURVE",
"428 356 OFFCURVE",
"364 353 CURVE SMOOTH",
"283 349 OFFCURVE",
"252 361 OFFCURVE",
"206 378 CURVE",
"206 633 LINE"
);
},
{
closed = 1;
nodes = (
"131 37 OFFCURVE",
"99 16 OFFCURVE",
"44 14 CURVE",
"44 0 LINE",
"291 0 LINE",
"291 14 LINE",
"236 16 OFFCURVE",
"206 37 OFFCURVE",
"206 85 CURVE",
"131 85 LINE"
);
},
{
closed = 1;
nodes = (
"160 645 LINE",
"194 700 LINE",
"33 700 LINE",
"33 686 LINE",
"108 683 OFFCURVE",
"131 688 OFFCURVE",
"131 645 CURVE"
);
},
{
closed = 1;
nodes = (
"376 331 CURVE",
"284 323 LINE",
"341 323 OFFCURVE",
"348 288 OFFCURVE",
"427 144 CURVE SMOOTH",
"468 69 OFFCURVE",
"517 0 OFFCURVE",
"564 0 CURVE SMOOTH",
"579 0 OFFCURVE",
"601 0 OFFCURVE",
"636 0 CURVE SMOOTH",
"670 0 LINE",
"672 14 LINE",
"646 14 LINE SMOOTH",
"581 14 OFFCURVE",
"533 98 OFFCURVE",
"483 193 CURVE SMOOTH",
"428 297 OFFCURVE",
"409 327 OFFCURVE"
);
}
);
width = 643;
},
{
associatedMasterId = "1F3E6E29-04CF-4B88-BFE7-02FED6A7184C";
guideLines = (
{
angle = 164.3205;
position = "{425, 316}";
}
);
layerId = "ED68A759-6695-4A38-9234-8DA21E77F617";
name = "Sep 12 18, 19:21";
paths = (
{
closed = 1;
nodes = (
"128 0 LINE",
"202 0 LINE",
"202 700 LINE",
"128 700 LINE"
);
},
{
closed = 1;
nodes = (
"147 316 LINE",
"327 303 LINE",
"488 303 OFFCURVE",
"541 413 OFFCURVE",
"541 504 CURVE SMOOTH",
"541 606 OFFCURVE",
"441 700 OFFCURVE",
"323 700 CURVE",
"148 700 LINE"
);
},
{
closed = 1;
nodes = (
"168 645 LINE",
"168 700 LINE",
"67 700 LINE",
"67 678 LINE",
"95 675 LINE",
"128 645 LINE"
);
},
{
closed = 1;
nodes = (
"246 668 OFFCURVE",
"281 675 OFFCURVE",
"305 676 CURVE SMOOTH",
"386 679 OFFCURVE",
"480 590 OFFCURVE",
"480 454 CURVE SMOOTH",
"480 369 OFFCURVE",
"399 338 OFFCURVE",
"337 338 CURVE SMOOTH",
"277 338 OFFCURVE",
"247 346 OFFCURVE",
"202 367 CURVE",
"202 635 LINE",
"222 662 LINE"
);
},
{
closed = 1;
nodes = (
"94 25 LINE",
"50 22 LINE",
"50 0 LINE",
"279 0 LINE",
"279 22 LINE",
"235 25 LINE",
"202 70 LINE",
"127 70 LINE"
);
},
{
closed = 1;
nodes = (
"325 318 LINE",
"485 38 LINE",
"529 0 LINE",
"643 0 LINE",
"643 22 LINE",
"599 25 LINE",
"548 70 LINE",
"394 299 LINE"
);
}
);
width = 600;
},
{
associatedMasterId = "1F3E6E29-04CF-4B88-BFE7-02FED6A7184C";
guideLines = (
{
angle = 164.3205;
position = "{425, 216}";
}
);
layerId = "987A0A16-B3BB-4492-BDF7-0F6A1265DC2C";
name = "Sep 30 18, 17:01";
paths = (
{
closed = 1;
nodes = (
"126 0 LINE",
"201 0 LINE",
"201 700 LINE",
"126 700 LINE"
);
},
{
closed = 1;
nodes = (
"147 326 LINE",
"207 322 OFFCURVE",
"262 315 OFFCURVE",
"322 315 CURVE SMOOTH",
"456 315 OFFCURVE",
"549 403 OFFCURVE",
"549 521 CURVE SMOOTH",
"549 618 OFFCURVE",
"447 700 OFFCURVE",
"330 700 CURVE",
"148 700 LINE"
);
},
{
closed = 1;
nodes = (
"168 656 LINE",
"168 700 LINE",
"55 700 LINE",
"55 678 LINE",
"93 675 LINE",
"126 656 LINE"
);
},
{
closed = 1;
nodes = (
"246 666 OFFCURVE",
"291 673 OFFCURVE",
"315 672 CURVE SMOOTH",
"401 670 OFFCURVE",
"473 590 OFFCURVE",
"473 478 CURVE SMOOTH",
"473 404 OFFCURVE",
"415 351 OFFCURVE",
"332 351 CURVE SMOOTH",
"272 351 OFFCURVE",
"247 358 OFFCURVE",
"202 379 CURVE",
"202 635 LINE",
"222 662 LINE"
);
},
{
closed = 1;
nodes = (
"343 327 LINE",
"313 327 LINE",
"471 38 LINE",
"515 0 LINE",
"636 0 LINE",
"636 22 LINE",
"592 25 LINE",
"541 70 LINE",
"394 309 LINE"
);
},
{
closed = 1;
nodes = (
"93 25 LINE",
"40 15 LINE",
"40 0 LINE",
"285 0 LINE",
"285 15 LINE",
"232 25 LINE",
"201 45 LINE",
"126 45 LINE"
);
}
);
width = 600;
},
{
associatedMasterId = "1F3E6E29-04CF-4B88-BFE7-02FED6A7184C";
guideLines = (
{
angle = 164.3205;
position = "{425, 216}";
}
);
layerId = "1D7FC580-4812-4B1D-85DB-CEFB42937DEA";
name = "Sep 30 18, 18:07";
paths = (
{
closed = 1;
nodes = (
"126 0 LINE",
"201 0 LINE",
"201 700 LINE",
"126 700 LINE"
);
},
{
closed = 1;
nodes = (
"147 326 LINE",
"207 322 OFFCURVE",
"262 315 OFFCURVE",
"322 315 CURVE SMOOTH",
"456 315 OFFCURVE",
"549 403 OFFCURVE",
"549 521 CURVE SMOOTH",
"549 618 OFFCURVE",
"447 700 OFFCURVE",
"330 700 CURVE",
"148 700 LINE"
);
},
{
closed = 1;
nodes = (
"168 656 LINE",
"168 700 LINE",
"55 700 LINE",
"55 678 LINE",
"93 675 LINE",
"126 656 LINE"
);
},
{
closed = 1;
nodes = (
"246 666 OFFCURVE",
"291 673 OFFCURVE",
"315 672 CURVE SMOOTH",
"401 670 OFFCURVE",
"473 590 OFFCURVE",
"473 478 CURVE SMOOTH",
"473 404 OFFCURVE",
"415 351 OFFCURVE",
"332 351 CURVE SMOOTH",
"272 351 OFFCURVE",
"247 358 OFFCURVE",
"202 379 CURVE",
"202 635 LINE",
"222 662 LINE"
);
},
{
closed = 1;
nodes = (
"343 327 LINE",
"313 327 LINE",
"471 38 LINE",
"515 0 LINE",
"636 0 LINE",
"636 22 LINE",
"592 25 LINE",
"541 70 LINE",
"394 309 LINE"
);
},
{
closed = 1;
nodes = (
"93 25 LINE",
"40 15 LINE",
"40 0 LINE",
"285 0 LINE",
"285 15 LINE",
"232 25 LINE",
"201 45 LINE",
"126 45 LINE"
);
}
);
width = 600;
},
{
associatedMasterId = "4EF47A43-EA9F-416F-884D-AC541148DC09";
layerId = "1938C876-E9C1-4453-A777-E644E2BC7552";
name = "Aug 26 18, 17:25";
paths = (
{
closed = 1;
nodes = (
"178 0 LINE",
"328 0 LINE",
"328 700 LINE",
"178 700 LINE"
);
},
{
closed = 1;
nodes = (
"273 316 LINE",
"483 303 LINE",
"615 354 LINE",
"687 494 LINE",
"635 642 LINE",
"529 700 LINE",
"274 700 LINE"
);
},
{
closed = 1;
nodes = (
"218 645 LINE",
"218 700 LINE",
"117 700 LINE",
"117 678 LINE",
"145 675 LINE",
"178 645 LINE"
);
},
{
closed = 1;
nodes = (
"451 649 LINE",
"515 553 LINE",
"536 444 LINE",
"493 361 LINE",
"423 346 LINE",
"328 399 LINE",
"328 635 LINE",
"359 665 LINE"
);
},
{
closed = 1;
nodes = (
"144 25 LINE",
"100 22 LINE",
"100 0 LINE",
"405 0 LINE",
"405 22 LINE",
"361 25 LINE",
"328 70 LINE",
"177 70 LINE"
);
},
{
closed = 1;
nodes = (
"381 340 LINE",
"536 1 LINE",
"793 0 LINE",
"793 22 LINE",
"749 25 LINE",
"704 62 LINE",
"586 275 LINE"
);
}
);
width = 903;
},
{
associatedMasterId = "4EF47A43-EA9F-416F-884D-AC541148DC09";
guideLines = (
{
angle = 164.3205;
position = "{425, 316}";
}
);
layerId = "6D341D6A-008D-46C6-8AC7-D6DFF073EC21";
name = "Sep 12 18, 19:17";
paths = (
{
closed = 1;
nodes = (
"128 0 LINE",
"202 0 LINE",
"202 700 LINE",
"128 700 LINE"
);
},
{
closed = 1;
nodes = (
"168 645 LINE",
"168 700 LINE",
"67 700 LINE",
"67 678 LINE",
"95 675 LINE",
"128 645 LINE"
);
},
{
closed = 1;
nodes = (
"94 25 LINE",
"50 22 LINE",
"50 0 LINE",
"279 0 LINE",
"279 22 LINE",
"235 25 LINE",
"202 70 LINE",
"127 70 LINE"
);
},
{
closed = 1;
nodes = (
"301 333 LINE",
"468 38 LINE",
"512 0 LINE",
"643 0 LINE",
"643 22 LINE",
"599 25 LINE",
"548 70 LINE",
"398 306 LINE"
);
},
{
closed = 1;
nodes = (
"166 640 LINE",
"255 664 LINE",
"394 664 OFFCURVE",
"449 601 OFFCURVE",
"449 489 CURVE SMOOTH",
"449 394 OFFCURVE",
"436 337 OFFCURVE",
"203 337 CURVE",
"168 297 LINE",
"447 297 OFFCURVE",
"512 362 OFFCURVE",
"512 519 CURVE SMOOTH",
"512 630 OFFCURVE",
"423 700 OFFCURVE",
"278 700 CURVE SMOOTH",
"166 700 LINE"
);
}
);
width = 600;
},
{
associatedMasterId = "4EF47A43-EA9F-416F-884D-AC541148DC09";
guideLines = (
{
angle = 164.3205;
position = "{425, 316}";
}
);
layerId = "2439F9E9-1017-4299-9F33-60BDA87ABEF4";
name = "Light Sep 12 18, 19:17";
paths = (
{
closed = 1;
nodes = (
"128 0 LINE",
"202 0 LINE",
"202 700 LINE",
"128 700 LINE"
);
},
{
closed = 1;
nodes = (
"168 645 LINE",
"168 700 LINE",
"67 700 LINE",
"67 678 LINE",
"95 675 LINE",
"128 645 LINE"
);
},
{
closed = 1;
nodes = (
"94 25 LINE",
"50 22 LINE",
"50 0 LINE",
"279 0 LINE",
"279 22 LINE",
"235 25 LINE",
"202 70 LINE",
"127 70 LINE"
);
},
{
closed = 1;
nodes = (
"301 333 LINE",
"468 38 LINE",
"512 0 LINE",
"643 0 LINE",
"643 22 LINE",
"599 25 LINE",
"548 70 LINE",
"398 306 LINE"
);
},
{
closed = 1;
nodes = (
"166 640 LINE",
"255 664 LINE",
"394 664 OFFCURVE",
"449 601 OFFCURVE",
"449 489 CURVE SMOOTH",
"449 394 OFFCURVE",
"436 337 OFFCURVE",
"203 337 CURVE",
"168 297 LINE",
"447 297 OFFCURVE",
"512 362 OFFCURVE",
"512 519 CURVE SMOOTH",
"512 630 OFFCURVE",
"423 700 OFFCURVE",
"278 700 CURVE SMOOTH",
"166 700 LINE"
);
}
);
width = 600;
},
{
associatedMasterId = "4EF47A43-EA9F-416F-884D-AC541148DC09";
guideLines = (
{
angle = 164.3205;
position = "{425, 316}";
}
);
layerId = "A48CE37E-BEF8-4857-A258-478320B082DE";
name = "Sep 12 18, 19:21";
paths = (
{
closed = 1;
nodes = (
"128 0 LINE",
"202 0 LINE",
"202 700 LINE",
"128 700 LINE"
);
},
{
closed = 1;
nodes = (
"147 316 LINE",
"327 303 LINE",
"488 303 OFFCURVE",
"541 413 OFFCURVE",
"541 504 CURVE SMOOTH",
"541 606 OFFCURVE",
"441 700 OFFCURVE",
"323 700 CURVE",
"148 700 LINE"
);
},
{
closed = 1;
nodes = (
"168 645 LINE",
"168 700 LINE",
"67 700 LINE",
"67 678 LINE",
"95 675 LINE",
"128 645 LINE"
);
},
{
closed = 1;
nodes = (
"246 668 OFFCURVE",
"281 675 OFFCURVE",
"305 676 CURVE SMOOTH",
"386 679 OFFCURVE",
"480 590 OFFCURVE",
"480 454 CURVE SMOOTH",
"480 369 OFFCURVE",
"399 338 OFFCURVE",
"337 338 CURVE SMOOTH",
"277 338 OFFCURVE",
"247 346 OFFCURVE",
"202 367 CURVE",
"202 635 LINE",
"222 662 LINE"
);
},
{
closed = 1;
nodes = (
"94 25 LINE",
"50 22 LINE",
"50 0 LINE",
"279 0 LINE",
"279 22 LINE",
"235 25 LINE",
"202 70 LINE",
"127 70 LINE"
);
},
{
closed = 1;
nodes = (
"325 318 LINE",
"485 38 LINE",
"529 0 LINE",
"643 0 LINE",
"643 22 LINE",
"599 25 LINE",
"548 70 LINE",
"394 299 LINE"
);
}
);
width = 600;
},
{
associatedMasterId = "4EF47A43-EA9F-416F-884D-AC541148DC09";
guideLines = (
{
angle = 164.3205;
position = "{425, 216}";
}
);
layerId = "95AD0B7A-8BB4-44D0-B5E2-7CC075237CDF";
name = "Sep 30 18, 17:01";
paths = (
{
closed = 1;
nodes = (
"126 0 LINE",
"201 0 LINE",
"201 700 LINE",
"126 700 LINE"
);
},
{
closed = 1;
nodes = (
"147 326 LINE",
"207 322 OFFCURVE",
"262 315 OFFCURVE",
"322 315 CURVE SMOOTH",
"456 315 OFFCURVE",
"549 403 OFFCURVE",
"549 521 CURVE SMOOTH",
"549 618 OFFCURVE",
"447 700 OFFCURVE",
"330 700 CURVE",
"148 700 LINE"
);
},
{
closed = 1;
nodes = (
"168 656 LINE",
"168 700 LINE",
"55 700 LINE",
"55 678 LINE",
"93 675 LINE",
"126 656 LINE"
);
},
{
closed = 1;
nodes = (
"246 666 OFFCURVE",
"291 673 OFFCURVE",
"315 672 CURVE SMOOTH",
"401 670 OFFCURVE",
"473 590 OFFCURVE",
"473 478 CURVE SMOOTH",
"473 404 OFFCURVE",
"415 351 OFFCURVE",
"332 351 CURVE SMOOTH",
"272 351 OFFCURVE",
"247 358 OFFCURVE",
"202 379 CURVE",
"202 635 LINE",
"222 662 LINE"
);
},
{
closed = 1;
nodes = (
"343 327 LINE",
"313 327 LINE",
"471 38 LINE",
"515 0 LINE",
"636 0 LINE",
"636 22 LINE",
"592 25 LINE",
"541 70 LINE",
"394 309 LINE"
);
},
{
closed = 1;
nodes = (
"93 25 LINE",
"40 15 LINE",
"40 0 LINE",
"285 0 LINE",
"285 15 LINE",
"232 25 LINE",
"201 45 LINE",
"126 45 LINE"
);
}
);
width = 600;
},
{
associatedMasterId = "4EF47A43-EA9F-416F-884D-AC541148DC09";
guideLines = (
{
angle = 164.3205;
position = "{425, 216}";
}
);
layerId = "C45FA5A1-D774-40E5-A111-3D1A3C7DE7A6";
name = "Sep 30 18, 18:07";
paths = (
{
closed = 1;
nodes = (
"126 0 LINE",
"201 0 LINE",
"201 700 LINE",
"126 700 LINE"
);
},
{
closed = 1;
nodes = (
"147 326 LINE",
"207 322 OFFCURVE",
"262 315 OFFCURVE",
"322 315 CURVE SMOOTH",
"456 315 OFFCURVE",
"549 403 OFFCURVE",
"549 521 CURVE SMOOTH",
"549 618 OFFCURVE",
"447 700 OFFCURVE",
"330 700 CURVE",
"148 700 LINE"
);
},
{
closed = 1;
nodes = (
"168 656 LINE",
"168 700 LINE",
"55 700 LINE",
"55 678 LINE",
"93 675 LINE",
"126 656 LINE"
);
},
{
closed = 1;
nodes = (
"246 666 OFFCURVE",
"291 673 OFFCURVE",
"315 672 CURVE SMOOTH",
"401 670 OFFCURVE",
"473 590 OFFCURVE",
"473 478 CURVE SMOOTH",
"473 404 OFFCURVE",
"415 351 OFFCURVE",
"332 351 CURVE SMOOTH",
"272 351 OFFCURVE",
"247 358 OFFCURVE",
"202 379 CURVE",
"202 635 LINE",
"222 662 LINE"
);
},
{
closed = 1;
nodes = (
"343 327 LINE",
"313 327 LINE",
"471 38 LINE",
"515 0 LINE",
"636 0 LINE",
"636 22 LINE",
"592 25 LINE",
"541 70 LINE",
"394 309 LINE"
);
},
{
closed = 1;
nodes = (
"93 25 LINE",
"40 15 LINE",
"40 0 LINE",
"285 0 LINE",
"285 15 LINE",
"232 25 LINE",
"201 45 LINE",
"126 45 LINE"
);
}
);
width = 600;
},
{
associatedMasterId = "1F3E6E29-04CF-4B88-BFE7-02FED6A7184C";
background = {
paths = (
{
closed = 1;
nodes = (
"232 645 LINE",
"245 646 OFFCURVE",
"255 647 OFFCURVE",
"273 647 CURVE SMOOTH",
"389 647 OFFCURVE",
"460 618 OFFCURVE",
"460 493 CURVE SMOOTH",
"460 391 OFFCURVE",
"408 343 OFFCURVE",
"287 343 CURVE SMOOTH",
"232 343 LINE"
);
},
{
closed = 1;
nodes = (
"215 671 OFFCURVE",
"106 667 OFFCURVE",
"35 662 CURVE",
"35 640 LINE",
"129 640 OFFCURVE",
"136 643 OFFCURVE",
"136 497 CURVE SMOOTH",
"136 172 LINE SMOOTH",
"136 44 OFFCURVE",
"136 22 OFFCURVE",
"51 22 CURVE SMOOTH",
"30 22 LINE",
"30 0 LINE",
"347 0 LINE",
"347 22 LINE",
"315 22 LINE SMOOTH",
"231 22 OFFCURVE",
"232 44 OFFCURVE",
"232 172 CURVE SMOOTH",
"232 319 LINE",
"246 319 LINE SMOOTH",
"283 319 OFFCURVE",
"303 319 OFFCURVE",
"362 238 CURVE SMOOTH",
"466 95 LINE SMOOTH",
"511 33 OFFCURVE",
"537 13 OFFCURVE",
"554 0 CURVE",
"732 0 LINE",
"732 22 LINE",
"653 22 OFFCURVE",
"598 76 OFFCURVE",
"556 131 CURVE SMOOTH",
"472 241 LINE SMOOTH",
"455 264 OFFCURVE",
"399 331 OFFCURVE",
"369 333 CURVE",
"490 343 OFFCURVE",
"567 406 OFFCURVE",
"567 500 CURVE SMOOTH",
"567 675 OFFCURVE",
"323 671 OFFCURVE",
"280 671 CURVE SMOOTH"
);
}
);
};
layerId = "1E059007-CFE3-4761-9E56-455DACFBD4F6";
name = "Jan 11 19, 17:54";
paths = (
{
closed = 1;
nodes = (
"415 301 OFFCURVE",
"400 301 CURVE SMOOTH",
"357 301 OFFCURVE",
"350 323 OFFCURVE",
"338 341 CURVE",
"305 341 LINE",
"357 280 OFFCURVE",
"424 124 OFFCURVE",
"501 36 CURVE SMOOTH",
"533 0 OFFCURVE",
"579 0 OFFCURVE",
"679 0 CURVE",
"679 14 LINE",
"636 15 OFFCURVE",
"588 28 OFFCURVE",
"540 101 CURVE SMOOTH",
"461 222 OFFCURVE"
);
},
{
closed = 1;
nodes = (
"131 0 LINE",
"206 0 LINE",
"206 700 LINE",
"131 700 LINE"
);
},
{
closed = 1;
nodes = (
"152 323 LINE",
"295 323 LINE",
"462 325 OFFCURVE",
"556 406 OFFCURVE",
"556 534 CURVE SMOOTH",
"556 625 OFFCURVE",
"465 700 OFFCURVE",
"336 700 CURVE",
"153 700 LINE"
);
},
{
closed = 1;
nodes = (
"206 662 OFFCURVE",
"238 683 OFFCURVE",
"322 681 CURVE SMOOTH",
"404 679 OFFCURVE",
"484 599 OFFCURVE",
"484 487 CURVE SMOOTH",
"484 419 OFFCURVE",
"428 356 OFFCURVE",
"364 353 CURVE SMOOTH",
"283 349 OFFCURVE",
"252 361 OFFCURVE",
"206 378 CURVE",
"206 633 LINE"
);
},
{
closed = 1;
nodes = (
"131 37 OFFCURVE",
"99 16 OFFCURVE",
"44 14 CURVE",
"44 0 LINE",
"291 0 LINE",
"291 14 LINE",
"236 16 OFFCURVE",
"206 37 OFFCURVE",
"206 85 CURVE",
"131 85 LINE"
);
},
{
closed = 1;
nodes = (
"160 645 LINE",
"194 700 LINE",
"33 700 LINE",
"33 686 LINE",
"108 683 OFFCURVE",
"131 688 OFFCURVE",
"131 645 CURVE"
);
}
);
width = 650;
}
);
unicode = 0052;
},
{
glyphname = S;
lastChange = "2019-01-22 17:27:28 +0000";
layers = (
{
background = {
paths = (
{
closed = 1;
nodes = (
"511 263 OFFCURVE",
"480 318 OFFCURVE",
"419 361 CURVE",
"362 392 OFFCURVE",
"306 424 OFFCURVE",
"249 455 CURVE",
"188 493 OFFCURVE",
"157 538 OFFCURVE",
"157 589 CURVE SMOOTH",
"157 628 OFFCURVE",
"170 659 OFFCURVE",
"197 681 CURVE SMOOTH",
"221 701 OFFCURVE",
"251 711 OFFCURVE",
"287 711 CURVE SMOOTH",
"319 711 OFFCURVE",
"354 699 OFFCURVE",
"393 676 CURVE",
"456 544 LINE",
"472 544 LINE",
"467 698 LINE",
"405 723 OFFCURVE",
"344 736 OFFCURVE",
"284 736 CURVE SMOOTH",
"228 736 OFFCURVE",
"182 722 OFFCURVE",
"147 694 CURVE SMOOTH",
"107 661 OFFCURVE",
"87 614 OFFCURVE",
"87 552 CURVE SMOOTH",
"87 490 OFFCURVE",
"116 439 OFFCURVE",
"173 400 CURVE",
"227 369 OFFCURVE",
"281 339 OFFCURVE",
"334 308 CURVE",
"391 268 OFFCURVE",
"420 215 OFFCURVE",
"420 149 CURVE SMOOTH",
"420 105 OFFCURVE",
"402 71 OFFCURVE",
"366 46 CURVE SMOOTH",
"335 25 OFFCURVE",
"297 14 OFFCURVE",
"252 14 CURVE SMOOTH",
"199 14 OFFCURVE",
"162 28 OFFCURVE",
"139 57 CURVE",
"75 212 LINE",
"59 212 LINE",
"71 20 LINE",
"132 3 LINE SMOOTH",
"170 -8 OFFCURVE",
"209 -13 OFFCURVE",
"249 -13 CURVE SMOOTH",
"323 -13 OFFCURVE",
"383 3 OFFCURVE",
"429 34 CURVE SMOOTH",
"484 71 OFFCURVE",
"511 125 OFFCURVE",
"511 197 CURVE SMOOTH"
);
}
);
};
layerId = "4EF47A43-EA9F-416F-884D-AC541148DC09";
paths = (
{
closed = 1;
nodes = (
"527 678 OFFCURVE",
"478 703 OFFCURVE",
"429 727 CURVE",
"352 721 OFFCURVE",
"274 714 OFFCURVE",
"197 708 CURVE",
"145 663 OFFCURVE",
"92 617 OFFCURVE",
"40 572 CURVE",
"51 518 OFFCURVE",
"63 464 OFFCURVE",
"74 410 CURVE",
"192 344 OFFCURVE",
"309 277 OFFCURVE",
"427 211 CURVE",
"427 167 OFFCURVE",
"428 124 OFFCURVE",
"428 80 CURVE",
"399 65 OFFCURVE",
"370 51 OFFCURVE",
"341 36 CURVE",
"280 63 OFFCURVE",
"220 89 OFFCURVE",
"159 116 CURVE",
"136 172 OFFCURVE",
"112 228 OFFCURVE",
"89 284 CURVE",
"59 285 LINE",
"25 82 LINE",
"114 49 OFFCURVE",
"203 15 OFFCURVE",
"292 -18 CURVE",
"364 7 OFFCURVE",
"436 31 OFFCURVE",
"508 56 CURVE",
"539 102 OFFCURVE",
"569 149 OFFCURVE",
"600 195 CURVE",
"571 247 OFFCURVE",
"543 300 OFFCURVE",
"514 352 CURVE",
"422 392 OFFCURVE",
"331 431 OFFCURVE",
"239 471 CURVE",
"224 510 OFFCURVE",
"208 548 OFFCURVE",
"193 587 CURVE",
"214 619 OFFCURVE",
"236 650 OFFCURVE",
"257 682 CURVE",
"296 681 OFFCURVE",
"335 681 OFFCURVE",
"374 680 CURVE",
"419 614 OFFCURVE",
"463 548 OFFCURVE",
"508 482 CURVE",
"538 482 LINE",
"576 654 LINE"
);
}
);
width = 620;
},
{
background = {
paths = (
{
closed = 1;
nodes = (
"-5 7 LINE",
"19 7 LINE",
"27 47 OFFCURVE",
"37 62 OFFCURVE",
"43 71 CURVE",
"75 34 OFFCURVE",
"135 -12 OFFCURVE",
"225 -12 CURVE SMOOTH",
"372 -12 OFFCURVE",
"433 83 OFFCURVE",
"433 179 CURVE SMOOTH",
"433 304 OFFCURVE",
"351 345 OFFCURVE",
"223 400 CURVE SMOOTH",
"146 433 OFFCURVE",
"64 470 OFFCURVE",
"64 549 CURVE SMOOTH",
"64 601 OFFCURVE",
"104 650 OFFCURVE",
"178 650 CURVE SMOOTH",
"245 650 OFFCURVE",
"324 609 OFFCURVE",
"354 489 CURVE",
"375 489 LINE",
"375 662 LINE",
"354 662 LINE",
"352 650 OFFCURVE",
"350 631 OFFCURVE",
"328 604 CURVE",
"304 630 OFFCURVE",
"262 674 OFFCURVE",
"175 674 CURVE SMOOTH",
"65 674 OFFCURVE",
"0 596 OFFCURVE",
"0 510 CURVE SMOOTH",
"0 387 OFFCURVE",
"98 343 OFFCURVE",
"200 298 CURVE SMOOTH",
"264 270 OFFCURVE",
"363 235 OFFCURVE",
"363 141 CURVE SMOOTH",
"363 73 OFFCURVE",
"306 12 OFFCURVE",
"216 12 CURVE SMOOTH",
"61 12 OFFCURVE",
"28 174 OFFCURVE",
"19 220 CURVE",
"-5 220 LINE"
);
}
);
};
layerId = "1F3E6E29-04CF-4B88-BFE7-02FED6A7184C";
paths = (
{
closed = 1;
nodes = (
"446 667 OFFCURVE",
"376 714 OFFCURVE",
"290 714 CURVE SMOOTH",
"210 714 OFFCURVE",
"144 695 OFFCURVE",
"100 661 CURVE SMOOTH",
"62 632 OFFCURVE",
"40 592 OFFCURVE",
"40 544 CURVE SMOOTH",
"40 481 OFFCURVE",
"73 425 OFFCURVE",
"209 356 CURVE SMOOTH",
"265 328 OFFCURVE",
"344 297 OFFCURVE",
"394 251 CURVE SMOOTH",
"423 224 OFFCURVE",
"442 192 OFFCURVE",
"442 152 CURVE SMOOTH",
"442 117 OFFCURVE",
"428 88 OFFCURVE",
"402 67 CURVE SMOOTH",
"375 45 OFFCURVE",
"334 33 OFFCURVE",
"282 32 CURVE SMOOTH",
"152 31 OFFCURVE",
"75 102 OFFCURVE",
"62 233 CURVE",
"47 233 LINE",
"47 57 LINE",
"89 33 OFFCURVE",
"167 -10 OFFCURVE",
"251 -14 CURVE SMOOTH",
"323 -17 OFFCURVE",
"382 3 OFFCURVE",
"425 37 CURVE SMOOTH",
"475 77 OFFCURVE",
"503 135 OFFCURVE",
"503 198 CURVE SMOOTH",
"503 242 OFFCURVE",
"476 276 OFFCURVE",
"439 305 CURVE SMOOTH",
"388 345 OFFCURVE",
"316 374 OFFCURVE",
"266 400 CURVE SMOOTH",
"145 464 OFFCURVE",
"102 516 OFFCURVE",
"102 574 CURVE SMOOTH",
"102 603 OFFCURVE",
"115 629 OFFCURVE",
"137 648 CURVE SMOOTH",
"162 670 OFFCURVE",
"198 683 OFFCURVE",
"238 683 CURVE SMOOTH",
"399 683 OFFCURVE",
"442 548 OFFCURVE",
"456 483 CURVE",
"471 483 LINE",
"460 656 LINE"
);
},
{
closed = 0;
nodes = (
"398 9 LINE"
);
}
);
width = 538;
},
{
associatedMasterId = "1F3E6E29-04CF-4B88-BFE7-02FED6A7184C";
layerId = "EC94FA93-7D0C-4DA0-813E-EA4E589384FA";
name = "Oct 5 18, 18:15";
paths = (
{
closed = 1;
nodes = (
"586 654 OFFCURVE",
"526 713 OFFCURVE",
"406 713 CURVE SMOOTH",
"265 713 OFFCURVE",
"139 670 OFFCURVE",
"139 526 CURVE SMOOTH",
"139 427 OFFCURVE",
"207 390 OFFCURVE",
"363 315 CURVE SMOOTH",
"477 260 OFFCURVE",
"526 207 OFFCURVE",
"526 145 CURVE SMOOTH",
"526 75 OFFCURVE",
"476 24 OFFCURVE",
"392 26 CURVE SMOOTH",
"295 28 OFFCURVE",
"257 57 OFFCURVE",
"200 97 CURVE",
"166 233 LINE",
"151 233 LINE",
"106 74 LINE",
"153 49 OFFCURVE",
"240 -21 OFFCURVE",
"345 -18 CURVE SMOOTH",
"464 -15 OFFCURVE",
"615 53 OFFCURVE",
"615 172 CURVE SMOOTH",
"615 250 OFFCURVE",
"561 306 OFFCURVE",
"431 373 CURVE SMOOTH",
"286 448 OFFCURVE",
"230 454 OFFCURVE",
"230 546 CURVE SMOOTH",
"230 622 OFFCURVE",
"284 673 OFFCURVE",
"352 673 CURVE SMOOTH",
"405 673 OFFCURVE",
"474 649 OFFCURVE",
"504 622 CURVE",
"547 488 LINE",
"562 488 LINE",
"602 646 LINE"
);
}
);
width = 615;
},
{
associatedMasterId = "1F3E6E29-04CF-4B88-BFE7-02FED6A7184C";
layerId = "ED2C3102-D30F-4A8B-BE50-165EBE2A30D8";
name = "Oct 5 18, 18:25";
paths = (
{
closed = 1;
nodes = (
"510 670 OFFCURVE",
"456 714 OFFCURVE",
"356 714 CURVE SMOOTH",
"208 714 OFFCURVE",
"108 637 OFFCURVE",
"108 527 CURVE SMOOTH",
"108 437 OFFCURVE",
"159 390 OFFCURVE",
"308 322 CURVE SMOOTH",
"423 269 OFFCURVE",
"476 221 OFFCURVE",
"476 154 CURVE SMOOTH",
"476 93 OFFCURVE",
"416 41 OFFCURVE",
"345 41 CURVE SMOOTH",
"271 41 OFFCURVE",
"228 56 OFFCURVE",
"171 90 CURVE",
"142 213 LINE",
"127 213 LINE",
"106 35 LINE",
"153 13 OFFCURVE",
"190 -14 OFFCURVE",
"289 -14 CURVE SMOOTH",
"404 -14 OFFCURVE",
"558 57 OFFCURVE",
"558 176 CURVE SMOOTH",
"558 263 OFFCURVE",
"508 300 OFFCURVE",
"370 370 CURVE SMOOTH",
"232 440 OFFCURVE",
"189 455 OFFCURVE",
"189 547 CURVE SMOOTH",
"189 621 OFFCURVE",
"229 681 OFFCURVE",
"292 681 CURVE SMOOTH",
"345 681 OFFCURVE",
"404 660 OFFCURVE",
"444 630 CURVE",
"487 492 LINE",
"502 492 LINE",
"526 662 LINE"
);
}
);
width = 615;
},
{
associatedMasterId = "4EF47A43-EA9F-416F-884D-AC541148DC09";
layerId = "AE80267F-DC3F-495E-BADA-E55BF739FFD8";
name = "Oct 5 18, 18:15";
paths = (
{
closed = 1;
nodes = (
"586 654 OFFCURVE",
"526 713 OFFCURVE",
"406 713 CURVE SMOOTH",
"265 713 OFFCURVE",
"139 670 OFFCURVE",
"139 526 CURVE SMOOTH",
"139 427 OFFCURVE",
"207 390 OFFCURVE",
"363 315 CURVE SMOOTH",
"477 260 OFFCURVE",
"526 207 OFFCURVE",
"526 145 CURVE SMOOTH",
"526 75 OFFCURVE",
"476 24 OFFCURVE",
"392 26 CURVE SMOOTH",
"295 28 OFFCURVE",
"257 57 OFFCURVE",
"200 97 CURVE",
"166 233 LINE",
"151 233 LINE",
"106 74 LINE",
"153 49 OFFCURVE",
"240 -21 OFFCURVE",
"345 -18 CURVE SMOOTH",
"464 -15 OFFCURVE",
"615 53 OFFCURVE",
"615 172 CURVE SMOOTH",
"615 250 OFFCURVE",
"561 306 OFFCURVE",
"431 373 CURVE SMOOTH",
"286 448 OFFCURVE",
"230 454 OFFCURVE",
"230 546 CURVE SMOOTH",
"230 622 OFFCURVE",
"284 673 OFFCURVE",
"352 673 CURVE SMOOTH",
"405 673 OFFCURVE",
"474 649 OFFCURVE",
"504 622 CURVE",
"547 488 LINE",
"562 488 LINE",
"602 646 LINE"
);
}
);
width = 615;
},
{
associatedMasterId = "4EF47A43-EA9F-416F-884D-AC541148DC09";
layerId = "3273DDF1-0D3B-4192-916E-519CCA660321";
name = "Oct 5 18, 18:25";
paths = (
{
closed = 1;
nodes = (
"510 670 OFFCURVE",
"456 714 OFFCURVE",
"356 714 CURVE SMOOTH",
"208 714 OFFCURVE",
"108 637 OFFCURVE",
"108 527 CURVE SMOOTH",
"108 437 OFFCURVE",
"159 390 OFFCURVE",
"308 322 CURVE SMOOTH",
"423 269 OFFCURVE",
"476 221 OFFCURVE",
"476 154 CURVE SMOOTH",
"476 93 OFFCURVE",
"416 41 OFFCURVE",
"345 41 CURVE SMOOTH",
"271 41 OFFCURVE",
"228 56 OFFCURVE",
"171 90 CURVE",
"142 213 LINE",
"127 213 LINE",
"106 35 LINE",
"153 13 OFFCURVE",
"190 -14 OFFCURVE",
"289 -14 CURVE SMOOTH",
"404 -14 OFFCURVE",
"558 57 OFFCURVE",
"558 176 CURVE SMOOTH",
"558 263 OFFCURVE",
"508 300 OFFCURVE",
"370 370 CURVE SMOOTH",
"232 440 OFFCURVE",
"189 455 OFFCURVE",
"189 547 CURVE SMOOTH",
"189 621 OFFCURVE",
"229 681 OFFCURVE",
"292 681 CURVE SMOOTH",
"345 681 OFFCURVE",
"404 660 OFFCURVE",
"444 630 CURVE",
"487 492 LINE",
"502 492 LINE",
"526 662 LINE"
);
}
);
width = 615;
}
);
unicode = 0053;
},
{
glyphname = T;
lastChange = "2019-01-09 15:34:58 +0000";
layers = (
{
background = {
paths = (
{
closed = 1;
nodes = (
"660 720 LINE",
"77 720 LINE",
"67 547 LINE",
"82 547 LINE",
"138 679 LINE",
"324 695 LINE",
"324 48 LINE",
"223 15 LINE",
"223 0 LINE",
"513 0 LINE",
"513 15 LINE",
"412 48 LINE",
"412 695 LINE",
"598 679 LINE",
"654 547 LINE",
"669 547 LINE"
);
}
);
};
layerId = "4EF47A43-EA9F-416F-884D-AC541148DC09";
paths = (
{
closed = 1;
nodes = (
"266 0 LINE",
"416 0 LINE",
"416 700 LINE",
"266 700 LINE"
);
},
{
closed = 1;
nodes = (
"46 645 LINE",
"636 645 LINE",
"636 700 LINE",
"46 700 LINE"
);
},
{
closed = 1;
nodes = (
"223 25 LINE",
"169 22 LINE",
"169 0 LINE",
"513 0 LINE",
"513 22 LINE",
"459 25 LINE",
"416 70 LINE",
"266 70 LINE"
);
},
{
closed = 1;
nodes = (
"466 700 LINE",
"466 680 LINE",
"586 615 LINE",
"648 531 LINE",
"673 531 LINE",
"652 700 LINE"
);
},
{
closed = 1;
nodes = (
"10 531 LINE",
"35 531 LINE",
"97 615 LINE",
"217 680 LINE",
"217 700 LINE",
"31 700 LINE"
);
}
);
width = 683;
},
{
background = {
paths = (
{
closed = 1;
nodes = (
"78 503 LINE",
"100 597 OFFCURVE",
"112 640 OFFCURVE",
"194 640 CURVE SMOOTH",
"332 640 LINE",
"332 172 LINE SMOOTH",
"332 44 OFFCURVE",
"333 22 OFFCURVE",
"248 22 CURVE SMOOTH",
"214 22 LINE",
"214 0 LINE",
"545 0 LINE",
"545 22 LINE",
"512 22 LINE SMOOTH",
"428 22 OFFCURVE",
"428 44 OFFCURVE",
"428 172 CURVE SMOOTH",
"428 640 LINE",
"534 640 LINE SMOOTH",
"615 640 OFFCURVE",
"661 640 OFFCURVE",
"684 503 CURVE",
"705 503 LINE",
"701 662 LINE",
"59 662 LINE",
"56 503 LINE"
);
}
);
};
layerId = "1F3E6E29-04CF-4B88-BFE7-02FED6A7184C";
paths = (
{
closed = 1;
nodes = (
"295 0 LINE",
"370 0 LINE",
"370 700 LINE",
"295 700 LINE"
);
},
{
closed = 1;
nodes = (
"47 671 LINE",
"627 671 LINE",
"625 700 LINE",
"47 700 LINE"
);
},
{
closed = 1;
nodes = (
"461 671 LINE",
"525 668 OFFCURVE",
"610 656 OFFCURVE",
"629 526 CURVE",
"648 526 LINE",
"625 700 LINE",
"461 700 LINE"
);
},
{
closed = 1;
nodes = (
"38 700 LINE",
"15 526 LINE",
"34 526 LINE",
"53 656 OFFCURVE",
"138 668 OFFCURVE",
"202 671 CURVE",
"202 700 LINE"
);
},
{
closed = 1;
nodes = (
"295 37 OFFCURVE",
"243 16 OFFCURVE",
"188 14 CURVE",
"188 0 LINE",
"475 0 LINE",
"475 14 LINE",
"420 16 OFFCURVE",
"370 37 OFFCURVE",
"370 85 CURVE",
"295 85 LINE"
);
}
);
width = 663;
}
);
unicode = 0054;
},
{
glyphname = U;
lastChange = "2019-01-09 15:36:58 +0000";
layers = (
{
anchors = (
{
name = bottom;
position = "{370, 0}";
},
{
name = ogonek;
position = "{659, 10}";
},
{
name = top;
position = "{370, 700}";
},
{
name = topright;
position = "{711, 700}";
}
);
background = {
paths = (
{
closed = 1;
nodes = (
"750 720 LINE",
"481 720 LINE",
"481 705 LINE",
"599 672 LINE",
"606 494 LINE",
"606 187 LINE SMOOTH",
"606 138 OFFCURVE",
"585 97 OFFCURVE",
"544 66 CURVE SMOOTH",
"506 37 OFFCURVE",
"461 23 OFFCURVE",
"409 23 CURVE SMOOTH",
"358 23 OFFCURVE",
"316 37 OFFCURVE",
"282 65 CURVE SMOOTH",
"244 96 OFFCURVE",
"225 140 OFFCURVE",
"225 197 CURVE SMOOTH",
"225 672 LINE",
"327 705 LINE",
"327 720 LINE",
"36 720 LINE",
"36 705 LINE",
"138 672 LINE",
"138 169 LINE SMOOTH",
"138 111 OFFCURVE",
"164 65 OFFCURVE",
"216 31 CURVE SMOOTH",
"263 0 OFFCURVE",
"320 -15 OFFCURVE",
"387 -15 CURVE SMOOTH",
"456 -15 OFFCURVE",
"515 1 OFFCURVE",
"563 33 CURVE SMOOTH",
"616 69 OFFCURVE",
"643 117 OFFCURVE",
"643 178 CURVE SMOOTH",
"643 494 LINE",
"650 672 LINE",
"750 705 LINE"
);
}
);
};
layerId = "4EF47A43-EA9F-416F-884D-AC541148DC09";
paths = (
{
closed = 1;
nodes = (
"583 39 LINE",
"666 211 LINE",
"666 661 LINE",
"601 661 LINE",
"601 209 LINE",
"500 84 LINE",
"334 88 LINE",
"237 194 LINE",
"237 656 LINE",
"87 657 LINE",
"87 195 LINE",
"178 30 LINE",
"387 -23 LINE"
);
},
{
closed = 1;
nodes = (
"666 630 LINE",
"696 675 LINE",
"740 678 LINE",
"740 700 LINE",
"524 700 LINE",
"524 678 LINE",
"568 675 LINE",
"601 630 LINE"
);
},
{
closed = 1;
nodes = (
"237 630 LINE",
"270 675 LINE",
"314 678 LINE",
"314 700 LINE",
"10 700 LINE",
"10 678 LINE",
"54 675 LINE",
"87 630 LINE"
);
}
);
width = 745;
},
{
anchors = (
{
name = bottom;
position = "{358, 0}";
},
{
name = ogonek;
position = "{659, 10}";
},
{
name = top;
position = "{358, 700}";
},
{
name = topright;
position = "{714, 700}";
}
);
background = {
paths = (
{
closed = 1;
nodes = (
"500 662 LINE",
"500 640 LINE",
"601 633 OFFCURVE",
"601 589 OFFCURVE",
"601 509 CURVE SMOOTH",
"601 284 LINE SMOOTH",
"601 200 OFFCURVE",
"601 154 OFFCURVE",
"573 111 CURVE SMOOTH",
"530 44 OFFCURVE",
"446 21 OFFCURVE",
"380 21 CURVE SMOOTH",
"293 21 OFFCURVE",
"240 60 OFFCURVE",
"217 99 CURVE SMOOTH",
"192 141 OFFCURVE",
"192 194 OFFCURVE",
"192 289 CURVE SMOOTH",
"192 497 LINE SMOOTH",
"192 640 OFFCURVE",
"195 640 OFFCURVE",
"294 640 CURVE",
"294 662 LINE",
"-8 662 LINE",
"-8 640 LINE",
"7 640 LINE SMOOTH",
"95 640 OFFCURVE",
"96 629 OFFCURVE",
"96 495 CURVE SMOOTH",
"96 292 LINE SMOOTH",
"96 180 OFFCURVE",
"96 134 OFFCURVE",
"129 85 CURVE SMOOTH",
"155 47 OFFCURVE",
"220 -12 OFFCURVE",
"357 -12 CURVE SMOOTH",
"483 -12 OFFCURVE",
"564 38 OFFCURVE",
"599 102 CURVE SMOOTH",
"625 150 OFFCURVE",
"625 193 OFFCURVE",
"625 280 CURVE SMOOTH",
"625 500 LINE SMOOTH",
"625 582 OFFCURVE",
"625 633 OFFCURVE",
"722 640 CURVE",
"722 662 LINE"
);
}
);
};
layerId = "1F3E6E29-04CF-4B88-BFE7-02FED6A7184C";
paths = (
{
closed = 1;
nodes = (
"541 -7 OFFCURVE",
"646 86 OFFCURVE",
"646 245 CURVE",
"646 661 LINE",
"601 661 LINE",
"601 256 LINE SMOOTH",
"601 129 OFFCURVE",
"522 42 OFFCURVE",
"402 42 CURVE SMOOTH",
"256 42 OFFCURVE",
"182 126 OFFCURVE",
"182 247 CURVE SMOOTH",
"182 657 LINE",
"107 657 LINE",
"107 274 LINE",
"107 63 OFFCURVE",
"221 -9 OFFCURVE",
"360 -9 CURVE"
);
},
{
closed = 1;
nodes = (
"182 615 LINE",
"182 663 OFFCURVE",
"212 684 OFFCURVE",
"267 686 CURVE",
"267 700 LINE",
"20 700 LINE",
"20 686 LINE",
"75 684 OFFCURVE",
"107 663 OFFCURVE",
"107 615 CURVE"
);
},
{
closed = 1;
nodes = (
"646 615 LINE",
"646 663 OFFCURVE",
"676 684 OFFCURVE",
"731 686 CURVE",
"731 700 LINE",
"514 700 LINE",
"514 686 LINE",
"569 684 OFFCURVE",
"601 663 OFFCURVE",
"601 615 CURVE"
);
}
);
width = 751;
}
);
unicode = 0055;
},
{
glyphname = Ucircumflex;
lastChange = "2019-01-09 17:20:36 +0000";
layers = (
{
components = (
{
name = U;
},
{
name = circumflexcomb.case;
transform = "{1, 0, 0, 1, 84, 143}";
}
);
layerId = "4EF47A43-EA9F-416F-884D-AC541148DC09";
width = 745;
},
{
anchors = (
{
name = bottom;
position = "{377, 0}";
},
{
name = ogonek;
position = "{678, 10}";
},
{
name = top;
position = "{376.5, 945}";
},
{
name = topright;
position = "{733, 700}";
}
);
layerId = "1F3E6E29-04CF-4B88-BFE7-02FED6A7184C";
paths = (
{
closed = 1;
nodes = (
"560 -7 OFFCURVE",
"665 95 OFFCURVE",
"665 241 CURVE",
"665 661 LINE",
"620 661 LINE",
"620 252 LINE SMOOTH",
"620 133 OFFCURVE",
"541 42 OFFCURVE",
"421 42 CURVE SMOOTH",
"275 42 OFFCURVE",
"201 121 OFFCURVE",
"201 242 CURVE SMOOTH",
"201 657 LINE",
"126 657 LINE",
"126 269 LINE",
"126 58 OFFCURVE",
"240 -9 OFFCURVE",
"379 -9 CURVE"
);
},
{
closed = 1;
nodes = (
"201 655 LINE",
"232 675 LINE",
"285 685 LINE",
"285 700 LINE",
"40 700 LINE",
"40 685 LINE",
"93 675 LINE",
"126 655 LINE"
);
},
{
closed = 1;
nodes = (
"665 655 LINE",
"696 675 LINE",
"749 685 LINE",
"749 700 LINE",
"534 700 LINE",
"534 685 LINE",
"587 675 LINE",
"620 655 LINE"
);
},
{
closed = 1;
nodes = (
"388 945 LINE",
"410 945 LINE",
"549 787 LINE",
"538 778 LINE",
"399 886 LINE",
"260 778 LINE",
"250 787 LINE"
);
}
);
width = 753;
}
);
unicode = 00DB;
},
{
glyphname = V;
lastChange = "2019-01-09 15:38:59 +0000";
layers = (
{
background = {
paths = (
{
closed = 1;
nodes = (
"693 720 LINE",
"439 720 LINE",
"439 705 LINE",
"540 672 LINE",
"459 415 LINE",
"325 103 LINE",
"208 416 LINE",
"121 672 LINE",
"222 705 LINE",
"223 720 LINE",
"-70 720 LINE",
"-70 705 LINE",
"32 672 LINE",
"286 -9 LINE",
"324 -9 LINE",
"592 672 LINE",
"693 705 LINE"
);
}
);
};
layerId = "4EF47A43-EA9F-416F-884D-AC541148DC09";
paths = (
{
closed = 1;
nodes = (
"-4 700 LINE",
"321 0 LINE",
"374 0 LINE",
"647 700 LINE",
"584 700 LINE",
"386 192 LINE",
"372 256 LINE",
"160 700 LINE"
);
},
{
closed = 1;
nodes = (
"662 675 LINE",
"706 678 LINE",
"706 700 LINE",
"496 700 LINE",
"496 678 LINE",
"540 675 LINE",
"540 579 LINE",
"619 630 LINE"
);
},
{
closed = 1;
nodes = (
"189 630 LINE",
"222 675 LINE",
"266 678 LINE",
"266 700 LINE",
"-50 700 LINE",
"-50 678 LINE",
"-6 675 LINE",
"27 630 LINE"
);
}
);
width = 656;
},
{
background = {
paths = (
{
closed = 1;
nodes = (
"372 -16 LINE",
"607 544 LINE SMOOTH",
"629 596 OFFCURVE",
"657 640 OFFCURVE",
"707 640 CURVE",
"707 662 LINE",
"505 662 LINE",
"505 640 LINE",
"535 640 OFFCURVE",
"585 634 OFFCURVE",
"585 581 CURVE SMOOTH",
"585 568 OFFCURVE",
"585 555 OFFCURVE",
"546 462 CURVE SMOOTH",
"393 96 LINE",
"203 536 LINE SMOOTH",
"183 583 OFFCURVE",
"180 588 OFFCURVE",
"180 602 CURVE SMOOTH",
"180 638 OFFCURVE",
"217 640 OFFCURVE",
"270 640 CURVE",
"270 662 LINE",
"-15 662 LINE",
"-15 640 LINE",
"54 640 OFFCURVE",
"70 611 OFFCURVE",
"90 565 CURVE SMOOTH",
"341 -16 LINE"
);
}
);
};
layerId = "1F3E6E29-04CF-4B88-BFE7-02FED6A7184C";
paths = (
{
closed = 1;
nodes = (
"360 91 LINE",
"589 697 LINE",
"625 697 LINE",
"347 1 LINE",
"322 1 LINE",
"17 700 LINE",
"100 700 LINE"
);
},
{
closed = 1;
nodes = (
"69 581 LINE",
"48 632 OFFCURVE",
"25 684 OFFCURVE",
"-30 686 CURVE",
"-30 700 LINE",
"223 700 LINE",
"223 686 LINE",
"148 684 OFFCURVE",
"124 645 OFFCURVE",
"151 581 CURVE"
);
},
{
closed = 1;
nodes = (
"573 656 OFFCURVE",
"545 684 OFFCURVE",
"470 686 CURVE",
"470 700 LINE",
"686 700 LINE",
"686 686 LINE",
"621 684 OFFCURVE",
"599 632 OFFCURVE",
"578 581 CURVE",
"543 581 LINE"
);
}
);
width = 650;
}
);
unicode = 0056;
},
{
glyphname = W;
lastChange = "2019-01-09 15:40:31 +0000";
layers = (
{
background = {
paths = (
{
closed = 1;
nodes = (
"952 720 LINE",
"693 720 LINE",
"693 705 LINE",
"795 672 LINE",
"733 415 LINE",
"638 124 LINE",
"554 416 LINE",
"474 720 LINE",
"414 720 LINE",
"341 415 LINE",
"247 124 LINE",
"161 416 LINE",
"94 672 LINE",
"196 705 LINE",
"196 720 LINE",
"-99 720 LINE",
"-99 705 LINE",
"3 672 LINE",
"206 -9 LINE",
"245 -9 LINE",
"375 413 LINE",
"427 578 LINE",
"598 -9 LINE",
"637 -9 LINE",
"766 413 LINE",
"849 672 LINE",
"952 705 LINE"
);
}
);
};
guideLines = (
{
angle = -66.6633;
position = "{303, 350}";
}
);
layerId = "4EF47A43-EA9F-416F-884D-AC541148DC09";
paths = (
{
closed = 1;
nodes = (
"-13 700 LINE",
"289 0 LINE",
"312 0 LINE",
"564 700 LINE",
"510 700 LINE",
"355 230 LINE",
"151 700 LINE"
);
},
{
closed = 1;
nodes = (
"922 675 LINE",
"966 678 LINE",
"966 700 LINE",
"766 700 LINE",
"766 678 LINE",
"810 675 LINE",
"810 579 LINE",
"879 630 LINE"
);
},
{
closed = 1;
nodes = (
"327 700 LINE",
"629 0 LINE",
"652 0 LINE",
"904 700 LINE",
"850 700 LINE",
"695 230 LINE",
"491 700 LINE"
);
},
{
closed = 1;
nodes = (
"179 630 LINE",
"212 675 LINE",
"256 678 LINE",
"256 700 LINE",
"-60 700 LINE",
"-60 678 LINE",
"-16 675 LINE",
"17 630 LINE"
);
},
{
closed = 1;
nodes = (
"538 630 LINE",
"571 675 LINE",
"615 678 LINE",
"615 700 LINE",
"280 700 LINE",
"280 678 LINE",
"324 675 LINE",
"357 630 LINE"
);
}
);
width = 906;
},
{
background = {
paths = (
{
closed = 1;
nodes = (
"674 -16 LINE",
"829 513 LINE SMOOTH",
"845 567 OFFCURVE",
"873 636 OFFCURVE",
"929 640 CURVE",
"929 662 LINE",
"748 662 LINE",
"748 640 LINE",
"808 640 OFFCURVE",
"834 613 OFFCURVE",
"802 500 CURVE SMOOTH",
"696 128 LINE",
"501 662 LINE",
"472 662 LINE",
"301 128 LINE",
"175 543 LINE SMOOTH",
"163 581 OFFCURVE",
"162 594 OFFCURVE",
"162 599 CURVE SMOOTH",
"162 614 OFFCURVE",
"173 640 OFFCURVE",
"232 640 CURVE",
"232 662 LINE",
"-16 662 LINE",
"-16 640 LINE",
"28 640 OFFCURVE",
"51 629 OFFCURVE",
"77 546 CURVE SMOOTH",
"251 -16 LINE",
"275 -16 LINE",
"453 529 LINE",
"652 -16 LINE"
);
}
);
};
layerId = "1F3E6E29-04CF-4B88-BFE7-02FED6A7184C";
paths = (
{
closed = 1;
nodes = (
"296 113 LINE",
"453 700 LINE",
"480 700 LINE",
"285 1 LINE",
"260 1 LINE",
"29 700 LINE",
"113 700 LINE"
);
},
{
closed = 1;
nodes = (
"686 118 LINE",
"849 696 LINE",
"885 696 LINE",
"672 0 LINE",
"647 0 LINE",
"453 700 LINE",
"515 700 LINE"
);
},
{
closed = 1;
nodes = (
"69 581 LINE",
"48 632 OFFCURVE",
"25 684 OFFCURVE",
"-30 686 CURVE",
"-30 700 LINE",
"243 700 LINE",
"243 686 LINE",
"148 684 OFFCURVE",
"124 645 OFFCURVE",
"151 581 CURVE"
);
},
{
closed = 1;
nodes = (
"840 661 OFFCURVE",
"818 684 OFFCURVE",
"723 686 CURVE",
"723 700 LINE",
"957 700 LINE",
"957 686 LINE",
"892 684 OFFCURVE",
"865 631 OFFCURVE",
"849 581 CURVE",
"817 582 LINE"
);
}
);
width = 921;
}
);
unicode = 0057;
},
{
glyphname = X;
lastChange = "2019-01-09 20:31:50 +0000";
layers = (
{
background = {
paths = (
{
closed = 1;
nodes = (
"597 15 LINE",
"495 48 LINE",
"284 387 LINE",
"473 672 LINE",
"576 705 LINE",
"576 720 LINE",
"315 720 LINE",
"315 705 LINE",
"417 672 LINE",
"350 548 LINE",
"268 411 LINE",
"121 672 LINE",
"222 705 LINE",
"222 720 LINE",
"-70 720 LINE",
"-70 705 LINE",
"32 672 LINE",
"226 345 LINE",
"4 48 LINE",
"-98 15 LINE",
"-98 0 LINE",
"170 0 LINE",
"170 15 LINE",
"68 48 LINE",
"153 185 LINE",
"243 321 LINE",
"394 48 LINE",
"291 15 LINE",
"291 0 LINE",
"597 0 LINE"
);
}
);
};
guideLines = (
{
angle = 270;
position = "{760, 0}";
},
{
angle = 90;
position = "{-1, 0}";
}
);
layerId = "4EF47A43-EA9F-416F-884D-AC541148DC09";
paths = (
{
closed = 1;
nodes = (
"538 0 LINE",
"728 0 LINE",
"209 700 LINE",
"19 700 LINE"
);
},
{
closed = 1;
nodes = (
"295 675 LINE",
"339 678 LINE",
"339 700 LINE",
"-15 700 LINE",
"-15 678 LINE",
"29 675 LINE",
"71 630 LINE",
"262 630 LINE"
);
},
{
closed = 1;
nodes = (
"453 25 LINE",
"409 22 LINE",
"409 0 LINE",
"760 0 LINE",
"760 22 LINE",
"716 25 LINE",
"676 70 LINE",
"486 70 LINE"
);
},
{
closed = 1;
nodes = (
"333 344 LINE",
"48 0 LINE",
"139 0 LINE",
"393 344 LINE"
);
},
{
closed = 1;
nodes = (
"427 374 LINE",
"695 700 LINE",
"604 700 LINE",
"367 374 LINE"
);
},
{
closed = 1;
nodes = (
"53 25 LINE",
"9 22 LINE",
"9 0 LINE",
"234 0 LINE",
"234 22 LINE",
"190 25 LINE",
"190 70 LINE",
"107 70 LINE"
);
},
{
closed = 1;
nodes = (
"678 675 LINE",
"732 678 LINE",
"732 700 LINE",
"509 700 LINE",
"509 678 LINE",
"553 675 LINE",
"553 630 LINE",
"636 630 LINE"
);
}
);
width = 745;
},
{
background = {
paths = (
{
closed = 1;
nodes = (
"415 367 LINE",
"519 499 LINE SMOOTH",
"610 615 OFFCURVE",
"654 640 OFFCURVE",
"721 640 CURVE",
"721 662 LINE",
"473 662 LINE",
"473 640 LINE",
"518 640 OFFCURVE",
"559 635 OFFCURVE",
"559 603 CURVE SMOOTH",
"559 584 OFFCURVE",
"536 559 OFFCURVE",
"527 547 CURVE SMOOTH",
"398 385 LINE",
"276 534 LINE SMOOTH",
"240 578 OFFCURVE",
"229 594 OFFCURVE",
"229 610 CURVE SMOOTH",
"229 623 OFFCURVE",
"231 640 OFFCURVE",
"294 640 CURVE",
"294 662 LINE",
"11 662 LINE",
"11 640 LINE",
"65 640 OFFCURVE",
"87 615 OFFCURVE",
"141 551 CURVE SMOOTH",
"339 313 LINE",
"228 180 LINE SMOOTH",
"134 67 OFFCURVE",
"100 29 OFFCURVE",
"11 22 CURVE",
"11 0 LINE",
"267 0 LINE",
"267 22 LINE",
"244 23 OFFCURVE",
"191 24 OFFCURVE",
"191 73 CURVE SMOOTH",
"191 92 OFFCURVE",
"210 119 OFFCURVE",
"236 151 CURVE SMOOTH",
"354 295 LINE",
"473 150 LINE SMOOTH",
"514 100 OFFCURVE",
"528 82 OFFCURVE",
"528 61 CURVE SMOOTH",
"528 20 OFFCURVE",
"473 22 OFFCURVE",
"439 22 CURVE",
"439 0 LINE",
"768 0 LINE",
"768 22 LINE",
"722 22 OFFCURVE",
"705 14 OFFCURVE",
"586 159 CURVE SMOOTH"
);
}
);
};
layerId = "1F3E6E29-04CF-4B88-BFE7-02FED6A7184C";
paths = (
{
closed = 1;
nodes = (
"191 700 LINE",
"705 7 LINE",
"614 7 LINE",
"100 700 LINE"
);
},
{
closed = 1;
nodes = (
"164 7 LINE",
"98 7 LINE",
"393 369 LINE",
"419 345 LINE"
);
},
{
closed = 1;
nodes = (
"640 700 LINE",
"706 700 LINE",
"430 361 LINE",
"403 384 LINE"
);
},
{
closed = 1;
nodes = (
"188 581 LINE",
"137 651 OFFCURVE",
"119 683 OFFCURVE",
"43 686 CURVE",
"43 700 LINE",
"368 700 LINE",
"368 686 LINE",
"228 684 OFFCURVE",
"218 668 OFFCURVE",
"278 581 CURVE"
);
},
{
closed = 1;
nodes = (
"609 661 OFFCURVE",
"595 684 OFFCURVE",
"500 686 CURVE",
"500 700 LINE",
"749 700 LINE",
"749 686 LINE",
"684 684 OFFCURVE",
"646 625 OFFCURVE",
"609 581 CURVE",
"552 582 LINE"
);
},
{
closed = 1;
nodes = (
"622 119 LINE",
"673 49 OFFCURVE",
"701 17 OFFCURVE",
"777 14 CURVE",
"777 0 LINE",
"442 0 LINE",
"442 14 LINE",
"562 16 OFFCURVE",
"591 39 OFFCURVE",
"532 119 CURVE"
);
},
{
closed = 1;
nodes = (
"190 39 OFFCURVE",
"204 16 OFFCURVE",
"299 14 CURVE",
"299 0 LINE",
"50 0 LINE",
"50 14 LINE",
"115 16 OFFCURVE",
"153 75 OFFCURVE",
"190 119 CURVE",
"247 118 LINE"
);
}
);
width = 762;
}
);
unicode = 0058;
},
{
glyphname = Y;
lastChange = "2019-01-08 14:21:30 +0000";
layers = (
{
anchors = (
{
name = bottom;
position = "{307, 0}";
},
{
name = top;
position = "{307, 700}";
},
{
name = topleft;
position = "{-17, 700}";
}
);
background = {
paths = (
{
closed = 1;
nodes = (
"640 720 LINE",
"379 720 LINE",
"379 705 LINE",
"481 672 LINE",
"419 544 LINE",
"311 373 LINE",
"147 672 LINE",
"239 705 LINE",
"239 720 LINE",
"-46 720 LINE",
"-46 705 LINE",
"56 672 LINE",
"242 348 LINE",
"242 48 LINE",
"139 15 LINE",
"139 0 LINE",
"430 0 LINE",
"430 15 LINE",
"328 48 LINE",
"328 352 LINE",
"538 672 LINE",
"640 705 LINE"
);
}
);
};
layerId = "4EF47A43-EA9F-416F-884D-AC541148DC09";
paths = (
{
closed = 1;
nodes = (
"5 700 LINE",
"281 243 LINE",
"341 243 LINE",
"593 700 LINE",
"534 700 LINE",
"357 371 LINE",
"345 409 LINE",
"169 700 LINE"
);
},
{
closed = 1;
nodes = (
"222 675 LINE",
"266 678 LINE",
"266 700 LINE",
"-30 700 LINE",
"-30 678 LINE",
"14 675 LINE",
"47 630 LINE",
"189 630 LINE"
);
},
{
closed = 1;
nodes = (
"602 675 LINE",
"646 678 LINE",
"646 700 LINE",
"447 700 LINE",
"447 678 LINE",
"491 675 LINE",
"491 579 LINE",
"559 630 LINE"
);
},
{
closed = 1;
nodes = (
"233 0 LINE",
"383 0 LINE",
"383 337 LINE",
"233 337 LINE"
);
},
{
closed = 1;
nodes = (
"190 25 LINE",
"136 22 LINE",
"136 0 LINE",
"480 0 LINE",
"480 22 LINE",
"426 25 LINE",
"383 70 LINE",
"233 70 LINE"
);
}
);
width = 596;
},
{
anchors = (
{
name = bottom;
position = "{321, 0}";
},
{
name = top;
position = "{321, 700}";
},
{
name = topleft;
position = "{20, 700}";
}
);
background = {
paths = (
{
closed = 1;
nodes = (
"398 290 LINE",
"239 551 LINE SMOOTH",
"219 584 OFFCURVE",
"214 592 OFFCURVE",
"214 606 CURVE SMOOTH",
"214 629 OFFCURVE",
"234 640 OFFCURVE",
"289 640 CURVE",
"289 662 LINE",
"21 662 LINE",
"21 640 LINE",
"77 640 OFFCURVE",
"88 621 OFFCURVE",
"138 539 CURVE SMOOTH",
"312 254 LINE",
"312 172 LINE SMOOTH",
"312 37 OFFCURVE",
"313 22 OFFCURVE",
"218 22 CURVE",
"218 0 LINE",
"500 0 LINE",
"500 22 LINE",
"407 22 OFFCURVE",
"408 38 OFFCURVE",
"408 172 CURVE SMOOTH",
"408 260 LINE",
"556 509 LINE SMOOTH",
"601 584 OFFCURVE",
"629 630 OFFCURVE",
"698 640 CURVE",
"698 662 LINE",
"482 662 LINE",
"482 640 LINE",
"521 640 OFFCURVE",
"560 627 OFFCURVE",
"560 585 CURVE SMOOTH",
"560 567 OFFCURVE",
"546 539 OFFCURVE",
"539 528 CURVE SMOOTH"
);
}
);
};
layerId = "1F3E6E29-04CF-4B88-BFE7-02FED6A7184C";
paths = (
{
closed = 1;
nodes = (
"74 700 LINE",
"349 273 LINE",
"399 273 LINE",
"627 700 LINE",
"571 700 LINE",
"391 331 LINE",
"154 700 LINE"
);
},
{
closed = 1;
nodes = (
"334 0 LINE",
"409 0 LINE",
"409 317 LINE",
"334 317 LINE"
);
},
{
closed = 1;
nodes = (
"334 37 OFFCURVE",
"297 16 OFFCURVE",
"232 14 CURVE",
"232 0 LINE",
"509 0 LINE",
"509 14 LINE",
"444 16 OFFCURVE",
"409 37 OFFCURVE",
"409 85 CURVE",
"334 85 LINE"
);
},
{
closed = 1;
nodes = (
"180 661 OFFCURVE",
"192 681 OFFCURVE",
"322 686 CURVE",
"322 700 LINE",
"6 700 LINE",
"6 686 LINE",
"82 683 OFFCURVE",
"100 651 OFFCURVE",
"151 581 CURVE",
"231 581 LINE"
);
},
{
closed = 1;
nodes = (
"563 581 LINE",
"597 645 OFFCURVE",
"629 684 OFFCURVE",
"704 686 CURVE",
"704 700 LINE",
"455 700 LINE",
"455 686 LINE",
"560 684 OFFCURVE",
"553 660 OFFCURVE",
"513 582 CURVE"
);
}
);
width = 641;
}
);
unicode = 0059;
},
{
glyphname = Ycircumflex;
lastChange = "2018-11-28 16:50:03 +0000";
layers = (
{
components = (
{
name = Y;
},
{
name = circumflexcomb.case;
transform = "{1, 0, 0, 1, 21, 143}";
}
);
layerId = "4EF47A43-EA9F-416F-884D-AC541148DC09";
width = 596;
},
{
anchors = (
{
name = bottom;
position = "{321, 0}";
},
{
name = top;
position = "{320.5, 945}";
},
{
name = topleft;
position = "{20, 700}";
}
);
layerId = "1F3E6E29-04CF-4B88-BFE7-02FED6A7184C";
paths = (
{
closed = 1;
nodes = (
"74 700 LINE",
"349 273 LINE",
"399 273 LINE",
"627 700 LINE",
"588 700 LINE",
"385 332 LINE",
"145 700 LINE"
);
},
{
closed = 1;
nodes = (
"334 0 LINE",
"409 0 LINE",
"409 317 LINE",
"334 317 LINE"
);
},
{
closed = 1;
nodes = (
"173 655 LINE",
"205 675 LINE",
"265 684 LINE",
"265 700 LINE",
"17 700 LINE",
"17 685 LINE",
"70 675 LINE",
"103 655 LINE"
);
},
{
closed = 1;
nodes = (
"305 25 LINE",
"252 15 LINE",
"252 0 LINE",
"500 0 LINE",
"500 16 LINE",
"440 25 LINE",
"408 45 LINE",
"338 45 LINE"
);
},
{
closed = 1;
nodes = (
"602 655 LINE",
"634 675 LINE",
"694 684 LINE",
"694 700 LINE",
"477 700 LINE",
"477 685 LINE",
"530 675 LINE",
"563 655 LINE"
);
},
{
closed = 1;
nodes = (
"353 945 LINE",
"375 945 LINE",
"514 787 LINE",
"503 778 LINE",
"364 886 LINE",
"225 778 LINE",
"215 787 LINE"
);
}
);
width = 641;
}
);
unicode = 0176;
},
{
glyphname = Ydieresis;
lastChange = "2018-11-28 16:48:34 +0000";
layers = (
{
components = (
{
name = Y;
},
{
name = dieresiscomb.case;
transform = "{1, 0, 0, 1, -8, 200}";
}
);
layerId = "4EF47A43-EA9F-416F-884D-AC541148DC09";
width = 596;
},
{
anchors = (
{
name = bottom;
position = "{321, 0}";
},
{
name = top;
position = "{320.5, 882}";
},
{
name = topleft;
position = "{20, 700}";
}
);
layerId = "1F3E6E29-04CF-4B88-BFE7-02FED6A7184C";
paths = (
{
closed = 1;
nodes = (
"74 700 LINE",
"349 273 LINE",
"399 273 LINE",
"627 700 LINE",
"588 700 LINE",
"385 332 LINE",
"145 700 LINE"
);
},
{
closed = 1;
nodes = (
"334 0 LINE",
"409 0 LINE",
"409 317 LINE",
"334 317 LINE"
);
},
{
closed = 1;
nodes = (
"173 655 LINE",
"205 675 LINE",
"265 684 LINE",
"265 700 LINE",
"17 700 LINE",
"17 685 LINE",
"70 675 LINE",
"103 655 LINE"
);
},
{
closed = 1;
nodes = (
"305 25 LINE",
"252 15 LINE",
"252 0 LINE",
"500 0 LINE",
"500 16 LINE",
"440 25 LINE",
"408 45 LINE",
"338 45 LINE"
);
},
{
closed = 1;
nodes = (
"602 655 LINE",
"634 675 LINE",
"694 684 LINE",
"694 700 LINE",
"477 700 LINE",
"477 685 LINE",
"530 675 LINE",
"563 655 LINE"
);
},
{
closed = 1;
nodes = (
"251 789 OFFCURVE",
"237 796 OFFCURVE",
"228 808 CURVE SMOOTH",
"222 816 OFFCURVE",
"219 825 OFFCURVE",
"219 836 CURVE SMOOTH",
"219 849 OFFCURVE",
"224 860 OFFCURVE",
"233 869 CURVE SMOOTH",
"242 878 OFFCURVE",
"253 882 OFFCURVE",
"266 882 CURVE SMOOTH",
"279 882 OFFCURVE",
"290 877 OFFCURVE",
"299 869 CURVE SMOOTH",
"309 860 OFFCURVE",
"312 849 OFFCURVE",
"312 836 CURVE SMOOTH",
"312 823 OFFCURVE",
"308 812 OFFCURVE",
"300 803 CURVE SMOOTH",
"291 793 OFFCURVE",
"279 789 OFFCURVE",
"266 789 CURVE SMOOTH"
);
},
{
closed = 1;
nodes = (
"442 789 OFFCURVE",
"429 796 OFFCURVE",
"420 808 CURVE SMOOTH",
"414 816 OFFCURVE",
"411 825 OFFCURVE",
"411 836 CURVE SMOOTH",
"411 849 OFFCURVE",
"416 860 OFFCURVE",
"424 869 CURVE SMOOTH",
"433 879 OFFCURVE",
"445 882 OFFCURVE",
"458 882 CURVE SMOOTH",
"471 882 OFFCURVE",
"482 877 OFFCURVE",
"490 869 CURVE SMOOTH",
"500 859 OFFCURVE",
"504 849 OFFCURVE",
"504 836 CURVE SMOOTH",
"504 823 OFFCURVE",
"499 812 OFFCURVE",
"491 803 CURVE SMOOTH",
"482 793 OFFCURVE",
"471 789 OFFCURVE",
"458 789 CURVE SMOOTH"
);
}
);
width = 641;
}
);
unicode = 0178;
},
{
glyphname = Z;
lastChange = "2019-01-09 15:41:38 +0000";
layers = (
{
background = {
paths = (
{
closed = 1;
nodes = (
"549 207 LINE",
"474 46 LINE",
"189 26 LINE",
"353 337 LINE",
"562 711 LINE",
"562 720 LINE",
"130 720 LINE",
"120 555 LINE",
"136 555 LINE",
"186 673 LINE",
"461 696 LINE",
"86 9 LINE",
"86 0 LINE",
"540 0 LINE",
"565 207 LINE"
);
}
);
};
layerId = "4EF47A43-EA9F-416F-884D-AC541148DC09";
paths = (
{
closed = 1;
nodes = (
"63 511 LINE",
"88 511 LINE",
"146 602 LINE",
"270 700 LINE",
"78 700 LINE"
);
},
{
closed = 1;
nodes = (
"620 700 LINE",
"429 700 LINE",
"434 633 LINE",
"30 51 LINE",
"30 0 LINE",
"230 0 LINE",
"225 64 LINE",
"620 640 LINE"
);
},
{
closed = 1;
nodes = (
"434 700 LINE",
"98 700 LINE",
"97 635 LINE",
"434 645 LINE"
);
},
{
closed = 1;
nodes = (
"623 189 LINE",
"598 189 LINE",
"540 98 LINE",
"416 0 LINE",
"608 0 LINE"
);
},
{
closed = 1;
nodes = (
"230 0 LINE",
"588 0 LINE",
"589 65 LINE",
"230 55 LINE"
);
},
{
closed = 1;
nodes = (
"342 700 LINE",
"446 573 LINE",
"534 700 LINE"
);
},
{
closed = 1;
nodes = (
"229 127 LINE",
"125 0 LINE",
"317 0 LINE"
);
}
);
width = 653;
},
{
background = {
paths = (
{
closed = 1;
nodes = (
"25 0 LINE",
"561 0 LINE",
"583 171 LINE",
"561 171 LINE",
"508 29 OFFCURVE",
"474 22 OFFCURVE",
"344 22 CURVE SMOOTH",
"143 22 LINE",
"565 640 LINE",
"565 662 LINE",
"73 662 LINE",
"52 510 LINE",
"72 510 LINE",
"124 647 OFFCURVE",
"160 640 OFFCURVE",
"247 640 CURVE SMOOTH",
"453 640 LINE",
"25 17 LINE"
);
}
);
};
layerId = "1F3E6E29-04CF-4B88-BFE7-02FED6A7184C";
paths = (
{
closed = 1;
nodes = (
"108 0 LINE",
"42 0 LINE",
"31 19 LINE",
"517 701 LINE",
"584 700 LINE",
"595 685 LINE"
);
},
{
closed = 1;
nodes = (
"216 701 OFFCURVE",
"376 701 OFFCURVE",
"522 701 CURVE",
"522 671 LINE",
"70 652 LINE",
"70 701 LINE"
);
},
{
closed = 1;
nodes = (
"107 0 LINE",
"107 30 LINE",
"574 56 LINE",
"574 0 LINE"
);
},
{
closed = 1;
nodes = (
"247 660 LINE",
"148 656 OFFCURVE",
"86 628 OFFCURVE",
"65 505 CURVE",
"45 505 LINE",
"70 700 LINE",
"247 700 LINE"
);
},
{
closed = 1;
nodes = (
"400 46 LINE",
"498 51 OFFCURVE",
"561 72 OFFCURVE",
"581 195 CURVE",
"602 195 LINE",
"576 0 LINE",
"400 0 LINE"
);
}
);
width = 622;
}
);
unicode = 005A;
},
{
glyphname = H.001;
layers = (
{
background = {
paths = (
{
closed = 1;
nodes = (
"754 15 LINE",
"652 48 LINE",
"652 672 LINE",
"754 705 LINE",
"754 720 LINE",
"467 720 LINE",
"467 705 LINE",
"569 672 LINE",
"569 394 LINE",
"233 381 LINE",
"233 672 LINE",
"335 705 LINE",
"335 720 LINE",
"49 720 LINE",
"49 705 LINE",
"151 672 LINE",
"151 48 LINE",
"49 15 LINE",
"49 0 LINE",
"336 0 LINE",
"336 15 LINE",
"233 48 LINE",
"233 356 LINE",
"569 350 LINE",
"569 48 LINE",
"467 15 LINE",
"467 0 LINE",
"754 0 LINE"
);
}
);
};
layerId = "4EF47A43-EA9F-416F-884D-AC541148DC09";
paths = (
{
closed = 1;
nodes = (
"97 0 LINE",
"247 0 LINE",
"247 700 LINE",
"97 700 LINE"
);
},
{
closed = 1;
nodes = (
"555 0 LINE",
"705 0 LINE",
"705 700 LINE",
"555 700 LINE"
);
},
{
closed = 1;
nodes = (
"222 339 LINE",
"602 339 LINE",
"602 394 LINE",
"222 394 LINE"
);
},
{
closed = 1;
nodes = (
"64 25 LINE",
"20 22 LINE",
"20 0 LINE",
"324 0 LINE",
"324 22 LINE",
"280 25 LINE",
"247 70 LINE",
"97 70 LINE"
);
},
{
closed = 1;
nodes = (
"247 630 LINE",
"280 675 LINE",
"324 678 LINE",
"324 700 LINE",
"20 700 LINE",
"20 678 LINE",
"64 675 LINE",
"97 630 LINE"
);
},
{
closed = 1;
nodes = (
"522 25 LINE",
"478 22 LINE",
"478 0 LINE",
"782 0 LINE",
"782 22 LINE",
"738 25 LINE",
"705 70 LINE",
"555 70 LINE"
);
},
{
closed = 1;
nodes = (
"705 630 LINE",
"738 675 LINE",
"782 678 LINE",
"782 700 LINE",
"478 700 LINE",
"478 678 LINE",
"522 675 LINE",
"555 630 LINE"
);
}
);
width = 802;
},
{
background = {
paths = (
{
closed = 1;
nodes = (
"579 332 LINE",
"579 172 LINE SMOOTH",
"579 44 OFFCURVE",
"580 22 OFFCURVE",
"496 22 CURVE SMOOTH",
"473 22 LINE",
"473 0 LINE",
"774 0 LINE",
"774 22 LINE",
"759 22 LINE SMOOTH",
"675 22 OFFCURVE",
"675 44 OFFCURVE",
"675 172 CURVE SMOOTH",
"675 497 LINE SMOOTH",
"675 638 OFFCURVE",
"678 640 OFFCURVE",
"774 640 CURVE",
"774 662 LINE",
"473 662 LINE",
"473 640 LINE",
"491 640 LINE SMOOTH",
"578 640 OFFCURVE",
"579 631 OFFCURVE",
"579 497 CURVE SMOOTH",
"579 366 LINE",
"234 366 LINE",
"234 497 LINE SMOOTH",
"234 640 OFFCURVE",
"237 640 OFFCURVE",
"335 640 CURVE",
"335 662 LINE",
"37 662 LINE",
"37 640 LINE",
"136 640 OFFCURVE",
"138 640 OFFCURVE",
"138 497 CURVE SMOOTH",
"138 172 LINE SMOOTH",
"138 44 OFFCURVE",
"138 22 OFFCURVE",
"54 22 CURVE SMOOTH",
"37 22 LINE",
"37 0 LINE",
"335 0 LINE",
"335 22 LINE",
"318 22 LINE SMOOTH",
"234 22 OFFCURVE",
"234 44 OFFCURVE",
"234 172 CURVE SMOOTH",
"234 332 LINE"
);
}
);
};
layerId = "1F3E6E29-04CF-4B88-BFE7-02FED6A7184C";
paths = (
{
closed = 1;
nodes = (
"198 700 LINE",
"198 0 LINE",
"126 0 LINE",
"126 700 LINE"
);
},
{
closed = 1;
nodes = (
"683 700 LINE",
"683 0 LINE",
"611 0 LINE",
"611 700 LINE"
);
},
{
closed = 1;
nodes = (
"627 386 LINE",
"627 356 LINE",
"181 356 LINE",
"181 386 LINE"
);
},
{
closed = 1;
nodes = (
"198 45 LINE",
"230 25 LINE",
"290 16 LINE",
"290 0 LINE",
"40 0 LINE",
"40 15 LINE",
"93 25 LINE",
"126 45 LINE"
);
},
{
closed = 1;
nodes = (
"683 45 LINE",
"715 25 LINE",
"775 16 LINE",
"775 0 LINE",
"525 0 LINE",
"525 15 LINE",
"578 25 LINE",
"611 45 LINE"
);
},
{
closed = 1;
nodes = (
"93 675 LINE",
"40 685 LINE",
"40 700 LINE",
"290 700 LINE",
"290 684 LINE",
"230 675 LINE",
"198 655 LINE",
"126 655 LINE"
);
},
{
closed = 1;
nodes = (
"578 675 LINE",
"525 685 LINE",
"525 700 LINE",
"775 700 LINE",
"775 684 LINE",
"715 675 LINE",
"683 655 LINE",
"611 655 LINE"
);
}
);
width = 815;
}
);
},
